<svg xmlns="http://www.w3.org/2000/svg" version="1.0" width="1000" height="888.159" viewBox="0 0 2502.515 1517.401"><g style="fill-opacity:.98823529;stroke:#fff;stroke-width:.5257113;stroke-miterlimit:3.98288536;stroke-dasharray:none;stroke-opacity:1"><path d="M2324.809 838.583c-.508.321-.365.561.43.72l-.43-.72m1.509-18.79c-.652.219-.726.962-.5 1.51a3.188 3.188 0 0 1 .5-1.51m1.161 2.3c-.534-.118-.584.122-.15.721.049-.241.1-.481.15-.721m3.879-9.28c-.908.194-.762 1.996.216 1.72.574-.161 0-1.467-.216-1.72m1.73 4.6-.069.439a6.31 6.31 0 0 0 1.51-.289 57.623 57.623 0 0 1-1.441-.15m1.95-7.2c0 1.131 1.9 2.56 2.722 1.306.586-.893-2.272-1.262-2.722-1.306m.86 8.28-.141.72c1.857.127 3.455 1.141 5.25 1.521.761.161 1.572.506 2.365.295.881-.234 1.877-.761 2.815-.586-.764-1.121-2.729-1.048-3.909-1.19-2.13-.257-4.236-.539-6.38-.76m13.32 58.32-.22.72c1.486-.494 3.094-.271 4.629-.279 1.505-.007 2.393-.777 3.549-1.665.508-.39 3.661-4.271 3.027-5.057-1.832-2.268-3.027-2.504-5.834-1.333-2.886 1.205-4.007 4.999-5.151 7.614" style="fill-opacity:.98823529;stroke:#fff;stroke-width:.5257113;stroke-miterlimit:3.98288536;stroke-dasharray:none;stroke-opacity:1" transform="translate(-12925.057 -3966.074) scale(6.48761)"/><path d="m2358.068 877.393.729-.22c-.373-.733-.336-2.142-1.543-1.655-1.604.646-.328 1.838.814 1.875m-.35-14.54c.034.568.394.939.931 1.08-.051-.548-.387-.96-.931-1.08" style="fill-opacity:.98823529;stroke:#fff;stroke-width:.5257113;stroke-miterlimit:3.98288536;stroke-dasharray:none;stroke-opacity:1" transform="translate(-12925.057 -3966.074) scale(6.48761)"/><path d="M2303.638 813.313c.23-.566.134-1.07-.29-1.511 2.246-.571 4.11-.697 5.859-2.308 1.623-1.496 3.313-2.133 5.495-1.595 2.206.544 3.307 2.173 5.206 2.992 1.922.828 3.902-.273 5.689 1.121-1.366 1.014-.053 2.375.531 3.397.789 1.381-.11 2.533-.619 3.807-1.302 3.264.638 7.164 2.108 10.006.504-.734-.187-2.384.64-2.928 1.164-.767 1.02 2.666 1.031 2.992.024.653.24.813.686 1.25.641.627.34 1.473.909 2.113 1.103 1.238 3.365 1.9 4.636.582.924-.958 1.875-1.807 2.821-2.738.994-.979 1.185-2.29 2.513-3.13 1.19-.753.848-3.544 2.365-3.553 1.798-.011 2.664.159 4.346-.718 1.205-.628 1.262-1.049.725-2.175-.412-.867 2.227-2.095 2.76-2.378 1.34-.713 2.581-1.206 3.999-.475 1.851.955 4.059 1.622 5.718 2.872 1.394 1.05 2.979 1.629 4.53 2.414 1.061.537 3.144 2.179 4.39 1.743 1.572-.551 2.229.647 3.839.625 1.69-.023 2.529 1.723 4.204 1.496-.209 5.034-.604 10.057-.946 15.083-.358 5.262-.126 10.67-.67 15.9-.174 1.674-1.446 2.87-1.373 4.648.03.733.979 1.129.979 1.589 0 1.117-.19 2.264-.267 3.38-.361 5.254-.761 10.525-1.253 15.77-2.155-1.087-2.599-3.551-4.237-5.113-.81-.772-3.899-2.735-2.453-4.097-.943.738-2.625.425-3.754.874-.961.382-2.739.47-2.226-1.093-.479.587-1.705 1.694-2.521 1.702-1.234.012.207-2.112.335-2.412.418-.979 1.788-3.176.792-3.71-.898-.481-1.156-1.665-1.847-2.351 1.177-1.015 2.737.76 3.67-.79-1.626 1.623-3.75-.935-4.89-1.939 1.506-1.73 3.224.289 4.75.359-1.328-.516-2.456-1.435-3.67-2.16 1.417-.249.197-.685-.271-1.174-.665-.692-1.319-1.525-1.586-2.465-.344-1.209-1.464-3.473.127-4.071-1.57.58-1.663-1.115-.22-1.37-.538-.001-1.882.854-2.3.221-.501-.757.504-1.75.14-2.59-.462 1.846-1.827-1.1-2.429-1.36-1.027-.444-1.088-.699-1.872-1.059-.606-.278-2.067-.689-2.431-1.298-.501-.84-3.599-.908-4.561-1.492-1.51-.916-3.265-1.914-4.954-2.458-1.63-.524-4.032-.04-5.454-.741-1.27-.625-2.959-1.49-3.495-2.9-.498-1.31 1.593-1.104 2.306-1.223-.87-.263-1.965-.708-2.662.173-.785.992-1.303-.535-2.019-.753-.011 1.476-2.313.391-1.229-.64-1.574.015-2.189.032-2.59-1.881-.07.556-.371 1.01-.822.439-.637-.807-.133-1.311-.207-2.154-.135-1.543 1.401-2.415 1.459-3.975-.381.81-1.73 1.097-1.73 2.107 0 .902.079 2.304-1.22 2.223 1.127.504.233 1.092-.14 1.72a9.59 9.59 0 0 0-.72.72c-.039.479-.065.959-.08 1.44-.351 1.022-2.431 2.102-3.514 1.8-.959-.268-1.52-2.512-1.553-3.351-.022-.566.728-.619 1.116-.799 1.027-.478-.55-1.761-.29-2.61-1.239.747-2.776-3.252-4.513-3.322-2.692-.11-1.245-1.962.692-2.158 2.014-.205 3.465 1.791 4.861-.546 1.046-1.749 4.242-2.306 3.419.546a7.23 7.23 0 0 0 .5-1.51c.286 1.381 1.871-.327 1.81 1.15.216-1.199.629-.532.931.08.291-.627.341-1.44-.221-1.95.498.105.981.059 1.45-.14-.416-.501-.393-.981.07-1.44-1.54 1.146-.354-.82-.07-1.15-1.65.138-2.539 1.187-4.312.912-1.105-.171-2.58.874-3.533.523-1.173-.431-1.666.369-2.586-.545-.318-.316-1.225.263-1.531.282-1.019.063-1.828-.866-2.588-1.392.188-.245.381-.485.58-.72-.812.142-1.544-.808-1.254-1.58.108-.288.497-.682.441-1.015-.14-.848-1.463.532-.558-1.005-.736.144-.921.154-.86-.649-1.039 1.507-3.057-1.128-3.96-1.08.86 1.133-1.2.96-1.729.595-1.466-1.016 1.384-2.892 1.652-3.906m-267.329-29.233c.314.219 1.451.339 1.274-.423-.085-.368-1.332-1.134-1.628-1.432-.37-.372-.813-.71-1.377-.593.287-.8-.811-1.405-1.37-1.656-.293-.132-.533-.73-.925-.408-.726.596-.711 1.198.012 1.826 1.205 1.048 3.323 1.058 4.014 2.686m175.319 65.303c-.336 1.213.309 2.326.141 3.53 1.116-.52 1.765 1.628 3.014.699.854-.635.867-.757 1.971-.63 1.038.12 1.731-1.067 2.726-.29-.095-1.688-1.434-3.145-.813-4.877.757-2.118 1.158-3.503.897-5.824-.219-1.941.217-3.465.394-5.353.081-.862-.01-1.718.087-2.582.157-1.448-.496-1.446-.854-2.674-.696-2.388 3.441-4.34 5.248-3.774 1.632.511 1.127 4.159.268 5.113-2.415 2.681 1.67 5.731 3.978 6.971.979.526-1.481 4.198-.484 5.693.538.806 2.31 1.219 3.218 1.352 1.117.163.835-1.646.958-2.285.278-1.438 2.311-1.176 3.322-1.587.601-.245 3.034.998 1.633-.752 1.093 1.851 2.566-1.901.65-2.45-.344 1.761-.814-.665-1.73-.65l.58-.79c-.793-.034-1.777-1.07-2.23-1.649-.738-.945.23-1.722-.439-2.67.357.088.717.161 1.08.22-.826-.502-.605-1.718.439-1.66a3.326 3.326 0 0 0-.757-.967c-.572-.628-.157-1.298-.543-1.983-.323-.574-1.08-.618-1.439-1.149-.408-.604-.542-1.566-.877-2.239-.505-1.015-.93-2.009-2.001-2.533-.873-.427-1.288-2.255-2.452-1.708.053-.622.076-1.246.069-1.87 1.216 1.032 2.179 1.974 3.412.272 1.069-1.477 2.184-1.498 3.695-2.342 2.074-1.158 3.592-6.019 6.311-5.933.776.025.915 2.268 1.813 1.323.536-.563 1.557-2.003 1.012-2.805-.906-1.332-4.429-.923-5.512-.026a2.439 2.439 0 0 1 1.51.72c-1.418.05-5.495-.944-5.992.892-.333 1.229-4.032 1.183-3.798-.531-1.233.756-2.511 2.01-3.132 3.328-.675 1.435-.985 2.282-2.646 1.92-1.088-.236-2.12-.52-2.419-1.748-.151-.619-.208-1.245-.549-1.804-.628-1.028-1.056-.191-1.751-.697-2.237-1.626-2.334-6.686-1.366-8.934.555-1.289 1.482-2.734 2.756-3.417 1.052-.563 3.631.367 4.729.766.779.282 2.271-.37 2.969-.692 1.44-.667 1.839.353 3.234.565 1.552.235 3.62-.605 5.28-.564 1.987.05 3.264.162 4.854 1.31 1.977 1.428 8.121.465 9.731-1.418 1.106-1.293 1.495-2.742 2.826-3.938 1.433-1.288 1.367-3.47 2.913-4.622-.544-.344-.854-.944-.65-1.584-.566.146-1.361-.254-1.838.151-.717.607-.676 1.793-1.658 2.094-1.499.459-.546.921-1.254 1.859-.408.541-1.41.332-1.696 1.073-.717 1.856-3.561 2.187-5.139 1.846-1.337-.289-2.918-.597-4.292-.528-.772.039-1.511.894-2.146.638-1.99-.802-3.397-1.183-5.531-1.405-1.097-.114-1.736-.437-2.902-.319-1.33.134-1.728-1.68-2.401-1.667-.869.016-4.097-1.573-4.282.233-.252 2.461-2.484 4.805-4.289 2.223-.172.807-.435 1.42-1.06 1.971-.845.745-.673 1.896-1.494 2.559-1.567 1.263.478 3.463-1.127 4.61-.133-.566-.539-.95-1.149-.79.396 1.528 1.579 1.154 1.095 2.916-.441 1.606 1.026 3.078.565 4.715-.333-.61-.472-1.314-1.011-1.801-.9 2.437-2.817 3.71-2.95 6.48-.06 1.237.049 2.556-.04 3.761-.104 1.412-1.424 2.327-1.52 3.838-.126 2.001-3.397 2.924-2.887 4.595.287.941 1.041.353.229 1.686-.702 1.154.221 3.653.688 4.841.649-.73 2.326-1 3.235-1.049 1.989-.107.412 1.822 1.059 2.978 1.073 1.92.815 3.562.475 5.773-.285 1.81-.747 4.628-1.964 6.046m19.87-.79c-2.326.806-.24 3.407-.117 3.295.623-.57.563-2.649.117-3.295" style="fill-opacity:.98823529;stroke:#fff;stroke-width:.5257113;stroke-miterlimit:3.98288536;stroke-dasharray:none;stroke-opacity:1" transform="translate(-12925.057 -3966.074) scale(6.48761)"/><path d="M2232.148 808.703c-.389-.723-1.41-.752-1.44.22.521.197 1.001.123 1.44-.22m1.081-.79c-.46-.655-1.03-.636-1.511 0 .47.332 1.032.32 1.511 0m2.449 43.779c.298-.37 1.039-1.164.767-1.706-.496-.992.499-1.438.767-2.293.146-.467.752-3.654-.532-2.964-.635.341-1.474.79-2.024 1.247-1.035.858.53 1.957-.207 2.874-.284.354-1.027 1.576-.789 2.043.387.755 1.656.531 1.65-.359.111.389.234.776.368 1.158" style="fill-opacity:.98823529;stroke:#fff;stroke-width:.5257113;stroke-miterlimit:3.98288536;stroke-dasharray:none;stroke-opacity:1" transform="translate(-12925.057 -3966.074) scale(6.48761)"/><path d="M2240.138 842.763c-1.85.034-2.527 4.02-2.61 5.432-.086 1.473-.663 2.108-1.204 3.452-.671 1.665.364 1.221 1.295 2.206.448-.613.496-1.433.968-2.019.476-.59 1.353-.269 1.805-.833.648-.806-.689-2.225-1.482-1.399.217-.876.173-1.794.416-2.667.16-.575 1.226-2.482 1.464-.793.803-1.335-.734-2.109-.652-3.379m2.091-23.91a4.83 4.83 0 0 1 .14-1.51c2.749 1.425 2.058-4.005-.14-.65-.717-1.063.721-1.362-.734-1.81-.498-.153-1.085-.216-1.547.084-1.056.685-.807 2.448-.529 3.456.808-.414 1.267-1.228 1.65-2.01.79.568.035 2.357 1.16 2.44m-2.161 20.23c-.821.344-.724 1.849.083 2.164 1.204.47 1.9-1.905-.083-2.164" style="fill-opacity:.98823529;stroke:#fff;stroke-width:.5257113;stroke-miterlimit:3.98288536;stroke-dasharray:none;stroke-opacity:1" transform="translate(-12925.057 -3966.074) scale(6.48761)"/><path d="M2242.878 815.043c-.239.305-.393.232-.149.72l.149-.72m.351 4.25c-.317.124-.484.364-.5.72l.5-.72m.08 30.81c.074.512.001.716.649.721l-.649-.721m1.219 1.87c.056.407.295.624.72.65-.24-.217-.479-.434-.72-.65m2.02 3.68c-.517.518-.35.758.5.72l-.5-.72m4.681-36.65c-1.26 1.836-.257 3.436 1.939 2.73a9.384 9.384 0 0 1 1.08-.575c.418.084.84.125 1.267.122.796-.399 2.186-.082 2.554-1.126-.576.07-.959-.232-1.08-.79-.93 1.312-4.37-.854-5.76-.361m7.559-38.163c-.741-.173-.815.067-.22.72l.22-.72m1.51-5.184c.432-.902-.837-3.777-1.95-2.521 1.179.324.781 2.031 1.95 2.521m-1.51 44.427c-1.035 1.085 1.618 1.141 2.134 1.149 1.403.023 3.48.24 4.557-.859-2.206-.325-4.544.492-6.691-.29m4.1 1.65c-1.543.334-.139 3.851.65 4.399.319-.558-.286-3.834-.65-4.399m5.04 16.06c1.057-.526 3.374-.876 4.047-1.885.852-1.276.384-2.212-.946-2.505 1.056-1.191-1.239-1.925-2.031-2.122-1.488-.37-2.813.093-4.289.253-1.807.197-2.184 1.092-1.37 2.834.854 1.831 2.915 2.529 4.589 3.425m.14-65.953c.197-.577-.021-1.155-.5-1.512.143.512.309 1.016.5 1.512m.29-1.656c.786-.813.977-2.084.828-3.163-.076-.555-.561-2.199-1.073-.882-.356.917.707 1.644.359 2.339-.318.639-.96 1.113-.114 1.706m4.54 36.789c-.902-.387-1.618 1.641-1.011 2.16 1.051.898 1.153-1.614 1.011-2.16m0 2.96c-.867.451-.427 1.808.58 1.51a4.841 4.841 0 0 0-.58-1.51m.72-12.68c-.218.343-.09.476.22.79l-.22-.79m1.51 10.08c-.237.315-.478.628-.72.939a28.752 28.752 0 0 1-.72-.72c-.662 1.998.313 1.269.939 2.66.14.308-.785 1.63.2 1.393.534-.128 1.11-.434 1.305.269.224.811 3.097-.549.697-1.21-.98-.27-1.211-.835-.682-1.684.332-.528-.724-1.353-1.019-1.647m-1.01-5.9c-.183.34-.33.251 0 .721v-.721m.361 15.62c-1.113.865-.533 2.422.79 2.601.559.075 1.053-.36 1.606-.36.601 0 1.2.191 1.802.225 2.052.115.038-1.854-.576-2.167-1.345-.687-2.296-1.338-3.622-.299m-.071-18.79-.5-.07c.13.287.297.551.5.791v-.721m1.87 6.34c.061.894-.289 1.828.341 2.603.609.749 1.257 1.11 1.612 2.065.389 1.043 2.321 3.292 3.236 2.742-2.604-2.668-2.908-5.887-3.423-9.319-.224-1.487-.164-2.71 1.688-1.766 1.575.803 3.86 1.29 5.614 1.445-1.102-.539-1.122-1.883-2.016-2.589-.896-.71-3.43-.594-2.333-2.428.732-1.224 2.666-1.263 3.032-2.787.248-1.028-.479-2.753-.043-3.506-1.845-.469-3.863 1.355-4.61 2.881 1.723.083.041.977-.438 1.166-1.042.411-.587 1.532-1.079 2.297-.511.793-1.592-.021-1.913-.549-.573-.939.617-1.547 1.255-1.967 1.316-.866 2.176-3.534 1.455-5.052-.309-.65-1.402-.886-1.137-1.757.254-.835 1.391-1.351 1.066-2.346-1.76.013-2.56 2.235-2.98 3.607-.446 1.454-1.601 4.025-1.339 5.464.128.707.433 1.445.83 2.042.159.284.386.492.68.623-.479.6-.65 1.335-.575 2.089.097.986.438 1.55 1.025 2.284.591.737.183 1.935.052 2.758m-.93 10.22-.789.58a2.368 2.368 0 0 0 1.51-.29l-.721-.29m-.44 18.07c-.434.602-.24.842.58.721a203 203 0 0 0-.58-.721m1.08-.93c-.174.26-.244.547-.21.86.272.003.536-.044.79-.141a4.401 4.401 0 0 0-.58-.719m1.88-2.09c-.228.369-.467.729-.72 1.08.569-.119.851-.502.72-1.08" style="fill-opacity:.98823529;stroke:#fff;stroke-width:.5257113;stroke-miterlimit:3.98288536;stroke-dasharray:none;stroke-opacity:1" transform="translate(-12925.057 -3966.074) scale(6.48761)"/><path d="M2293.348 834.692c1.608.93 3.256 1.576 4.729 2.727 1.714 1.338 1.954-.668 1.676-2.005-.172-.823-1.277-1.088-1.44-1.871-.167-.808-.167-1.71-.968-2.188-.74-.442-1.02-1.019-1.987-.832-.971.188-1.902.053-2.692-.572-.769-.609-1.755-1.071-2.755-1.04-1 .031-1.467.844-2.352 1.038-.781.17-1.081-.237-1.496-.725-.147-.174-2.596.128-2.949.103-3.365-.244-6.913 2.145-5.535 5.877.027-.76 1.074-3.848 2.16-3.601-.345 1.016 1.459 2.639 2.324 2.8.355.066 4.403-3.298 3.436-.71.633-.139 4.364 1.362 4.576.075.183-1.107 3.08-.188 3.273.924" style="fill-opacity:.98823529;stroke:#fff;stroke-width:.5257113;stroke-miterlimit:3.98288536;stroke-dasharray:none;stroke-opacity:1" transform="translate(-12925.057 -3966.074) scale(6.48761)"/><path d="M2278.298 835.703c-.572.274-1.009.843-.87 1.51.85-.107 1.439-.767 2.24-1-.771 1.292 1.033.055.86-1.16-.811.056-1.376.822-2.23.65m1.15-50.903c.218-.328.376-.222.07-.72l-.07.72m1.15 2.376c2.707-.609 3.705-2.908 2.091-5.328-.318.781-1.199.979-1.731 1.558-.921 1-.943 2.623-.36 3.77m.87 47.877c-.211.268-.238.558-.08.87.303-.144.569-.337.801-.58l-.721-.29m1.08-.21c-.267.747.321 1.383 1.08 1.01-.088-.568-.491-.986-1.08-1.01m6.41-30.24c.376.646.943 1.178 1.65 1.44-.5-.517-.997-1.107-1.65-1.44m4.82 17.49c.492.166.995.286 1.51.36.553-.013.848-.514 1.44-.431-.581-.797.632-1.185.01-2.395-.67-1.297-3.542.846-4.687 1.026.178.811.903 1.41 1.731 1.44m-.794-7.56a2.968 2.968 0 0 0-.8.58c.69.382.957.189.8-.58m1.8-9.86.36.72c.096-.602-.089-.413-.36-.72m4.68 3.74c3.009.851 0-2.043-.649-2.73.849-.12 1.418.791 1.875 1.338.854 1.021 1.083.142 1.911.556 1.567.783 1.708-1.458.567-2.083-1.075-.588-6.687-1.43-6.804.688 1.433-.965.646.594-.22.29.688.882 2.255.28 1.949 1.87a1.3 1.3 0 0 1 1.011-1.08c.14.378.259.761.36 1.151m-2.09 3.39c-.259 1.356 3.388.878 3.021-.51-.772.862-2.062.21-3.021.51" style="fill-opacity:.98823529;stroke:#fff;stroke-width:.5257113;stroke-miterlimit:3.98288536;stroke-dasharray:none;stroke-opacity:1" transform="translate(-12925.057 -3966.074) scale(6.48761)"/><path d="M2298.818 808.272a2.1 2.1 0 0 0-1.01.86c.626.38 2.028-.437 1.01-.86m2.02 4.101c-2.734.456-1.658 2.364-.176 3.83.861.851 2.565-3.366.176-3.83m1.8.87c-.225.32-.451.18-.29.72l.29-.72m.43 26.64c.117.447.104.633.649.72l-.649-.72m.93-.941c-.624-.094-.551.146.22.721l-.22-.721m14.55 1.231c-.29.997 1.68 1.209 2.16 1.72-.56-.783-1.599-.939-2.16-1.72m-77.62 50.97c.395.295.342.604.94.36.198 1.067-1.772 1.406-1.95 2.811.861-.266 1.733-.033 2.604-.199 1.135-.217 1.98-1.431 3.132-1.464 1.851-.053 2.484-.583 3.717-1.958.795-.887 2.127-2.009 2.461-3.122.508-1.692-.52-.333.966-.83l1.116-3.827-1.624-1.266c-2.979 1.204-.695 1.881-4.2 2.561-.874.17-.195 2.65-.812 3.042-.617.392-.779-.93-1.208-.364-.429.566-1.874-1.449-2.183-.758-.31.692-2.701 4.246-2.959 5.014m-32.97-16.13c-.504.198-.674.558-.51 1.08.671-.063.843-.529.51-1.08m-104.62-13.821a2.217 2.217 0 0 0-.79.58c.693.384.956.19.79-.58m11.38-4.109c-.639-.496-3.844-1.09-4.47-.5-.081-2.038-1.974.629-2.23 1.3-.261.679-.295 3.95-1.729 2.66-.243 1.075-.907 1.937-1.3 2.95-.426-1.01-1.344-.734-2.08-.28 2.321 1.126 5.061-.224 7.153 1.23.652.453 1.587.489 2.302.832 1.141.546-.455 1.381-.624 2.17-.456 2.13 5.67 1.76 6.807 1.964 2.188.393 4.008 1.991 6.191 2.554.689.178 1.634.411 2.313.062.725-.373.554-1.009 1.595-1.039 2.654-.078 5.336.55 7.806 1.371 3.057 1.015 6.009 2.65 9.143 3.367 1.302.298 3.16.024 4.326.593 1.202.586 2.229.049 3.539.175 2.68.258 5.672 1.924 8.128.241 2.004-1.375 4.322 1.132 6.048 2.025.583.302 4.142.52 4.068.931-.134.747.983 1.196 1.588.901.447-.219-.739-1.719-.877-1.931-1.211-1.862.258-3.707.437-5.623.112-1.203-1.082-1.428-1.951-1.701-1.488-.468-1.949.181-3.34.044-1.315-.128-3.104.826-4.242.265-.723-.356-2.795-1.051-3.129-1.846-.286-.679.976-3.895-.689-2.483.328-1.065-.593-2.098-.51-3.171-.972.497-2.269.155-3.311.255a1.454 1.454 0 0 1-1.006-.548c-.719-.623-1.466-.155-2.233-.566-.403-.216-1.079-1.891-1.78-1.05-.693.831-2.086.688-2.622-.252-1.266-2.224-2.753-2.496-3.79.269-.35.931-.963 3.048-2.383 2.581-.792-.261-.957-.675-1.846-.614-.719.049-1.47.237-2.189.077-1.408-.313-2-.235-3.363-.15-.789.05-2.049-.99-2.752-.608-2.843 1.546-3.454-2.444-4.539-3.967-1-1.405-.817-.104-1.721-.104-1.062 0-1.981-1.537-3.081-.987-1.044.522-1.761-.852-2.404-1.393-1.057-.888-1.852-.526-3.02-1.22-.213 1.01-1.218 2.396-2.233 1.216" style="fill-opacity:.98823529;stroke:#fff;stroke-width:.5257113;stroke-miterlimit:3.98288536;stroke-dasharray:none;stroke-opacity:1" transform="translate(-12925.057 -3966.074) scale(6.48761)"/><path d="M2129.979 871.133c.074.757.991.685 1.51.72a4.64 4.64 0 0 0-1.51-.72m31.75-6.84c-.731-.117-2.604 1.334-1.736 2.056.817.681 2.771 1.27 2.886.104 1.179 1.397 2.692.588 4.091.086.576-.207 1.204-.374 1.819-.237-.126-.969.948-.947 1.58-1.149-.247-1.44-2.183-1.103-3.193-.963-1.801.25-3.682-.377-5.447.103m-1.371-10.08c-.574.089-.691.502-.5 1 .682-.01.835-.457.5-1m11.81 11.52c.066.533-.032.776.65.789-.2-.276-.417-.54-.65-.789m.65 8.92c-.937 1.776 1.435 2.638 2.653 3.217.767.365 1.38.738 1.899 1.423.938 1.238-.232.908-.294 1.802-.04.585 2.322-2.089 2.426-2.125.976-.346 3.427-1.315 2.2-2.606-.887-.934-2.646-2.251-3.974-1.521-1.518.837-3.416.861-4.91-.19m.79-8.28c.208.183.447.183.72 0h-.72m6.05-2.59c-.605.324-.743.879-.22 1.37.554-.684 1.471-.788 2.239-.431-.334-.867-1.237-.885-2.019-.939m1.22 17.07c.229-.385.229-.771 0-1.16-.282.17-.522.387-.72.65l.72.51m6.05-5.12c-1.038.52-2.322 1.487-2.195 2.81.102 1.053-.264 2.756-1.614 1.66-1.115 1.72 4.67 1.239 4.89 1.51-.477-1.053 1.043-3.073 1.552-3.927.781-1.31-1.631-2.428-2.633-2.053m11.52 6.12c1.548-.799 3.077-1.059 3.96-2.729.332.554-.424 1.702.145 1.998.611.317 1.038.084 1.602-.143.713-.288 1.295.132 1.994.235a1.937 1.937 0 0 0-1.431-.8c1.375-.831 3.349.727 3.74-1.51-1.247 1.547-1.093-1.318-1.394-1.917-.727-1.452-2.247.038-2.206 1.127-.214-1.084-1.046-2.927-2.281-1.557-.935 1.035-1.715-1.003-2.191-1.53-.696-.771-3.564-.185-2.736 1.105 1.013 1.577 2.343 1.952 3.898 2.842-.489.656-1.805 1.011-2.557 1.18-1.292.289-1.445-.903-1.988-1.72-1.267-1.902-5.234-1.227-6.554.281-.634.724.021 1.854-.563 2.592-.782.989.62 1.783 1.416 1.993.493.13.914.154 1.338-.174.785-.607.757-.207 1.774-.247 1.429-.057 2.596-1.493 4.034-1.026" style="fill-opacity:.98823529;stroke:#fff;stroke-width:.5257113;stroke-miterlimit:3.98288536;stroke-dasharray:none;stroke-opacity:1" transform="translate(-12925.057 -3966.074) scale(6.48761)"/><path d="M2195.928 877.253c.506-.612.796-1.356 1.221-2.02-1.504-.688-1.374 1.085-1.221 2.02m10.01 9.93c.681 1.787 2.345 1.73 3.96 1.91 1.912.213 3.432 1.983 4.581 3.354 2.157 2.572 7.129.245 4.531-2.63-.811-.896-1.421-1.641-2.613-1.643.056 0-1.874-2.309-2.118-2.528-.18-.162-3.379-.111-3.532-.013-1.488.956-3.557-.562-4.809 1.55m4.61-9.58c-.405.671-.903 1.455-.22 2.17.024-.994 1.987-1.476.22-2.17m1.221 1.44a1.655 1.655 0 0 1-.21 1.59c.964.238.798-.873 1-1.44l-.79-.15m2.659 1.88c.77-.412 2.252.052 3.149-.049.827-.093 2.071.088 2.884.254.889.182 1.361 1.176 2.382.711.705-.321 2.385.298 2.105-1.067 2.236.938 3.192.322 5.347-.464 1.44-.525 6.486.188 5.743-2.706.995.191.878-1.043 1.8-1.069-.409-1.19-1.68-2.965-2.02-.65a1.565 1.565 0 0 1 1.439-.149c-1.002 1.151-2.789 1.229-3.546 2.64-.915 1.708-2.454.572-3.418-.327-.914-.852-2.043.556-3.018.168-.515-.205-.478.203-.803.509-.509.481-1.489-.357-1.864-.628-1.248-.901-3.221-1.463-4.698-1.809-2.327-.544-3.074.34-5.007 1.303-.969.484-1.6.471-1.71 1.82-.056.698.214 2.768 1.235 1.513m5.41-26.21c-1.232.412-.631 4.976-.359 5.9.25-1.973.689-3.904.359-5.9m.641 10.66c-.219.357-.219.717 0 1.08.277-.146.518-.34.72-.58-.241-.166-.48-.333-.72-.5m1.229 2.16c.198.616 1.08.298 1.44.14a4.6 4.6 0 0 1-1.44-.14m3.17 28.87c.253.106.492.056.72-.15l-.72.15m1.51-.51-.149.36c.574.219 1.426.056 1.889-.344.232-.186.288-.414.168-.685-.487-.916-1.33.364-1.908.669m8.421 1.879c-.308.466-.331.946-.07 1.44 1.219-.693 3.065-1.898 4.39-2.24a10.995 10.995 0 0 1-.649-1.439c-1.371.628-2.143 1.694-3.671 2.239m2.019-19.439.21.64a3.637 3.637 0 0 1 1.23-1.29 1.693 1.693 0 0 0-1.44.65m1.51-2.02a1.35 1.35 0 0 0-.5 1.079c.611-.077 2.01.197 2.23-.649.28-1.066-1.241-.713-1.73-.43m1.221 16.2a1.9 1.9 0 0 0-.86 1.51c.936.125 1.125-.824.86-1.51m1.159-16.27c.196.22.362.459.5.72-.562.229-1.453.643-1.644 1.283-.336 1.132 1.797.276 2.224.587-.146-1.358 1.934-2.451 3.021-2.66-1.404-1.546-2.127.457-3.101.93.483-1.04-.253-.976-1-.86m4.39.57c-.307.294-.45.654-.431 1.079.617-.146 1.164.172 1.44.721.584-.609 1.786-2.078 1-2.95-.388.801-1.244.93-2.009 1.15m3.88-1.8c-.422.468-.988 1.66.359.94-.749.333-1.395 1.015-1.439 1.87 1.776-.169 3.818-.024 5.479-.772 1.049-.472.693-1.576-.345-1.759-.614-.108-1.151.15-1.764.091-.771-.074-1.497-.476-2.29-.37m8.93.15c-.559-.058-.979.9-1.08 1.29a1.91 1.91 0 0 0 1.08-1.29m1.08-1.15c1.506-1.257 2.969-.971 4.75-.661.947.165 1.902-1.672 3.1-1.649-1.564-1.931-2.374-1.242-4.633-.363-.631.246-1.072-.328-1.605-.099-.975.418-1.472 1.814-1.612 2.772m12.75-4.4a1.893 1.893 0 0 0-.439 1.3c.644-.222.95-.727.439-1.3m1.51 5.69c-.178.85.063.899.721.15l-.721-.15m1.011-.57c-.321 1.255 2.06 1.676 2.3.279-.784.145-1.555-.063-2.3-.279m2.369.93.08.65a3.05 3.05 0 0 0 .71-.65h-.79m4.54-9.86a.973.973 0 0 0-.5.86c.786.089.953-.197.5-.86m1.15 9.719c.229.489.613.706 1.15.65-.109-.607-.572-.875-1.15-.65m6.12-3.389c-.642.559-.308 1.929.629 1.912 1.785-.032.969-2.096-.629-1.912m8.35 4.76c1.181-.396 2.255-1.135 3.24-1.88-1.242.48-2.477.362-3.24 1.88m1.3-7.35c-.128.619.112.642.721.07l-.721-.07m1.29-.72-.35.58c.577.194.961-.069 1.08-.65l-.73.07m4.83-2.59c-1.183.072-4.527 4.052-3.38 5.109-2.329-1.073-.706 4.782.472 2.077.521-1.198 1.821-1.783 2.464-2.923.531-.943-.098-3.073 1.095-3.474a3.709 3.709 0 0 0-.651-.789m.79 0c.385.638 1.244.464 1.73 1.01.01-.987-.989-1.067-1.73-1.01m8.28-12.461c-.181-.231-.421-.301-.72-.209.309.521-.19 2.125.504 2.339 1.084.336.407-1.744.216-2.13m.58-.859c-.631-.131-.654.109-.07.72l.07-.72m0 3.67c1.296-.96 2.579-4.366 3.02-5.9-1.087.384-.973 1.451-1.341 2.334-.519 1.244-1.292 2.213-1.679 3.566m9.72 1.439c-.201.888-.364 2.092.36 2.811-1.447-.082-1.926 4.254.467 3.113 3.11-1.485 1.093-4.488-.827-5.924m4.25 3.67c-.517.327-.581 1.002-.359 1.521a1.65 1.65 0 0 0 .359-1.521m0-1.219c-.668.392-.574.632.28.72l-.28-.72m1 .14c.856-2.607-.609-.843 0 0m-247.1-8.49c.205-.974-1.196-2.093-1.94-1.15.699.337.991 1.512 1.94 1.15m-54.29-97.635c1.084.341.526-1.038-.5-.721l.5.721m17.07 4.68c-.635.37-1.455.925-2.245.706-.752-.209-.962-.89-1.814-.912-1.424-.037-2.657.699-4.121.558-1.723-.166-2.851-.73-3.974-2.021-.838-.963-3.164-2.305-4.438-1.413-4.702 3.296 6.704 12.52 8.51 14.933.688.92 1.618.956 2.669 1.148 1.737.318 2.292 2.257 3.084 3.534.609.981 1.836 3.441 2.886 3.884 1.826.771 1.118 2.544 1.624 4.171.476 1.532 2.056 1.149 3.232 1.966.749.519 1.481 1.077 2.22 1.611.907.657 1.832 1.332 2.615 2.139 1.1 1.134.048 1.258.383 2.517.402 1.509 1.054 2.963 1.465 4.488.435 1.615 1.591 3.301 1.476 5.005-.122 1.797 1.271.694 1.954 1.501 1.117 1.321 2.759 1.013 3.063 3.171.396 2.813 4.102 4.64 4.732 7.59.09.422-.613.47-.279.925a13.73 13.73 0 0 1 1.197 1.951c.781 1.548 2.401 3.582 2.461 5.338.058 1.698.016 2.776 1.061 4.249.787 1.109 1.992 1.89 2.653 3.085.788 1.424 1.2 2.859 2.454 3.991 1.241 1.12 2.979 1.871 3.738 3.444.75 1.552.617 2.463 2.053 3.645 1.455 1.197 2.746 2.562 4.139 3.829 1.205 1.095 2.377 2.129 3.824 2.883 1.443.752 1.635 1.31 2.348 2.596.378.682.874 1.321 1.352 1.936.411.438.855.84 1.334 1.204.295.266-.06.559.313.824.266.189 2.661 3.308 2.674 1.658.01-.967-.913-1.706-1.012-2.661-.14-1.342 1.969.391 2.221.614 1.793 1.591 3.544 1.598 3.33-1.419 1.118.967 1.872 2.932 3.46 3.24.951.185.916-2.691.938-3.177.084-1.872.363-3.732.502-5.603.073-.997.719-2.411.274-3.367-.343-.738-.582-1.159-.347-1.953.287-.965 1.07-2.258.946-3.288-.092-.764-.95-.797-.754-1.83.17-.897.72-1.68 1.171-2.452.486-.833.868-1.188.684-2.226-.177-.987-.989-.585-1.544-1.165-.756-.791-1.962-3.43-1.511-4.46-.871-.142-5.054-1.242-5.399-.36-.13-.259-.25-.521-.36-.789-.914 1.136-1.032 2.736-2.38 3.529.396-.587 2.229-2.585.431-2.6.972-.395 2.131-1.244 1.97-2.437-.121-.898-1.065-.585-1.626-.924-.57-.345-.886-1.827-1.015-2.402-.38-1.688-.785-3.291-.997-5.021-.131-1.064-3.248-1.178-4.163-.966-.72.167-2.095-1.254-2.619-1.69-.888-.737-.531-2.284-.91-3.33.399.482.995.575 1.51.209-.204-.833-1.009-.943-1.729-1 .584-.042 1.016-.455 1.16-1.01a4.539 4.539 0 0 0-1.44.141c.848-.248 1.352-1 1.974-1.562.479-.433 1.731-.306 2.022-.792.48-.803-1.284-2.545-1.744-3.063-1.277-1.436-2.226-1.316-3.699-.269-1.14.809-4.025 2.855-5.253 1.225 2.551 1.463 7.458-3.06 2.811-4.109-.741-.167-1.505.154-2.23-.141-.822-.333-1.168-1.265-1.833-1.792-1.366-1.083-.599-3.308-2.092-4.458-.551-.424-1.123-1.082-1.719-1.425-.634-.366-1.478-.053-2.18-.418-1.142-.595-1.051-2.362-1.786-3.332-.361-.478-2.934-2.989-3.498-1.49-.42 1.116.939 2.541 1.077 3.627-.469-.479-.604-1.123-.985-1.655-.631-.88-1.784-1.012-2.545-1.729-1.259-1.187-1.389-3.085-2.59-4.319-.344.466-.414.97-.21 1.512-.203-.362-1.45-2.813-1.01-.864-.809-.93.397-2.088-.828-2.888-1.11-.724-1.971-1.987-3.062-2.799-1.255-.935-2.268-2.438-3.724-3.072-.518-.226-1.073-.345-1.587-.58-.888-.406-.754-1.063-1.33-1.673-.756-.801-2.096-.853-2.859-1.588-.96-.924.317-2.541-.708-3.378-1.235-1.009-1.471-1.019-2.015-2.608-.464-1.349-2.756-3.145-3.831-4.097m2.52 40.104c1.494 1.597 2.011-2.856 1.348-3.759-.782-1.063-2.03-3.071-3.265-3.606-.913-.396-1.437.892-2.403.308.153 1.342 1.342 2.333 1.917 3.489.357.717 1.186.965 1.604 1.628.379.603.448 1.326.799 1.94" style="fill-opacity:.98823529;stroke:#fff;stroke-width:.5257113;stroke-miterlimit:3.98288536;stroke-dasharray:none;stroke-opacity:1" transform="translate(-12925.057 -3966.074) scale(6.48761)"/><path d="M2044.229 786.888c-.012-.72-.543-1.907-1.44-1.224a6.203 6.203 0 0 1 1.44 1.224m9 21.815c.191-.638-.058-1.267-.58-1.66-.397.541-.689 1.375-.844 2.023-.207.868 1.711.901 1.424-.363m-1.301-4.1c.377 1.068.941 2.047 1.511 3.021.245-.798-.386-3.15-1.511-3.021m1.801-14.043c.107-.562-.133-.562-.721 0h.721m1.869 13.253c-.196-.952-1.701-.8-2.229-.291.668.445 1.469.499 2.229.291m2.24 16.41c2.987-.421-1.668-6.247-1.59-7.63-.491.269-1.323.138-1.671.625-.5.701-.819 2.05-.287 2.802 1.009 1.422 1.594 3.783 3.548 4.203m5.54 4.969c-.187-.771-1.17-3.485-2.229-2.762-1.168.799 1.697 2.445 2.229 2.762m1.011 3.461c.227.854 1.222.459 1.526-.085.454-.81-1.032-2.033-1.606-2.365-.304.823.234 1.617.08 2.45m3.379 4.82c.031-.551-.48-.965-.383-1.505.126-.699.541-.534.332-1.229-.151-.507-.773-2.076-1.546-1.784-1.155.437 1.043 4.059 1.597 4.518m10.371-45.649c-.299-1.424-2.284-1.862-2.796-.323-.284.857.26 2.078 1.206 2.267 1.142.228 1.179-1.283 1.59-1.944m5.329 3.743c-1.072-.454-2.308-.39-3.319-1.008-.199 1.054.694 1.533 1.574 1.694.864.158 1.328.955 1.955 1.474 0-.726.067-1.466-.21-2.16" style="fill-opacity:.98823529;stroke:#fff;stroke-width:.5257113;stroke-miterlimit:3.98288536;stroke-dasharray:none;stroke-opacity:1" transform="translate(-12925.057 -3966.074) scale(6.48761)"/><path d="M2083.608 794.231c-.44-.748-1.086-1.589-2.011-1.728-.241 1.315-.111 3.668 1.58 3.959.266-.724.135-1.513.431-2.231m4.39 3.602c-.498-.946-1.467-1.593-2.474-1.886-.56-.164-1.071-.968-1.435-1.038-.422-.081-.8 2.311-.287 2.653 1.181.792 2.89-.022 4.056.99l.14-.719" style="fill-opacity:.98823529;stroke:#fff;stroke-width:.5257113;stroke-miterlimit:3.98288536;stroke-dasharray:none;stroke-opacity:1" transform="translate(-12925.057 -3966.074) scale(6.48761)"/><path d="M2088.868 797.253c-.305-1.235-4.221-3.62-3.68-1.439 1.501-.672 2.151 1.924 3.68 1.439m1.01 2.31c-.105-.513-.419-.803-.939-.871-.363.542-.293 1.022.21 1.44.266-.159.509-.349.729-.569m1-3.82a1.848 1.848 0 0 0-.79-.647c-.087.607.212.85.79.647m.58 2.52c-.176-.567-.616-.943-1.229-.72.021.601.38 1.117.869 1.44l.36-.72m1.66 8.71c-.526-.36-2.479-.153-1.683.782.488.572 1.597-.229 1.683-.782m1.65-10.37c.206-.753-.057-.896-.789-.43l.789.43" style="fill-opacity:.98823529;stroke:#fff;stroke-width:.5257113;stroke-miterlimit:3.98288536;stroke-dasharray:none;stroke-opacity:1" transform="translate(-12925.057 -3966.074) scale(6.48761)"/><path d="M2096.348 794.808c-.521-1.201-1.51.163-1.51.878 0 .855 1.617-.058 1.51-.878m.22 2.955c.395-.718.201-.958-.58-.72l.58.72m3.741-2.02c-1.031-2.517-3.911-.152-2.709.295.803.298 1.16-.474 1.418.855.259 1.336 1.319-.591 1.291-1.15m-2.951 2.81a1.774 1.774 0 0 0-.21-.79c.071.263.14.527.21.79m1.59 9.07c-.344.275-1.023.414-1.439.549-.798.258.546 1.838.64 2.261.053-.72.421-.946 1.01-.5.194-.859.82-1.705-.211-2.31m-.43-4.39c-.412.453-.246.716.5.789l-.5-.789m.711 1.37c.104.514-.802 2.405.285 2.266.607-.078.975-.409 1.582-.102.622.315 1.147.819 1.883.426-.383-.607-3.041-2.662-3.75-2.59m.719-6.63a1.437 1.437 0 0 0-.72.15l.72-.15m-.43 4.83c-.324.703.724 1.268 1.16 1.511a23.267 23.267 0 0 0-1.16-1.511m5.98 16.7c.844 1.158-1.296 1.682-1.73 2.45.884.716 1.558 1.301 2.745.865.8-.293 2.125.39 2.353 1.21.203.726.76 1.597.878 2.236.274 1.471-.593 2.088 1.081 3.005.719.394 3.973 2.894 4.754 2.184.776-.707-.414-1.035-.649-1.619-.372-.924.763-2.595 1.659-2.771-1.139-.688-2.702-.354-3.75-1.221-.965-.799-1.307-2.777-1.201-3.955.062-.7-.411-2.962-.879-3.535-1.32-1.625-3.029.243-1.81 1.73-.514.07-3.349-3.846-3.451-.579" style="fill-opacity:.98823529;stroke:#fff;stroke-width:.5257113;stroke-miterlimit:3.98288536;stroke-dasharray:none;stroke-opacity:1" transform="translate(-12925.057 -3966.074) scale(6.48761)"/><path d="m2116.518 829.733-.649.209c.148.597.599.856 1.149.511a3.844 3.844 0 0 0-.5-.72m5.041-.65a2.22 2.22 0 0 0-.87.57c.563.269.891.053.87-.57m1.789-2.311c-.95.967-1.174 2.638-1.07 3.914.11 1.362 2.126 2.079 1.791.627.593.039 1.479 1.684 2.066 1.105.805-.794 1.628-2.402 1.496-3.569-.193-1.707-2.897-2.355-4.283-2.077m2.31-55.436c.62.102 1.183.455 1.58.937-.584-.368-.97-.062-1.01.575 1.788.257 2.295-1.537 1.6-2.891-1.235-2.403-2.762-.496-2.17 1.379m5.18 48.167c.302.028.592-.018.87-.14a1.74 1.74 0 0 0-.87.14m2.23-1.29c-.405-.32-.812-.32-1.221 0 .168.284.385.523.65.72.22-.218.409-.458.571-.72m6.12-4.61c-1.129-1.601-3.427.908-2.011 2.301.678-.677 2.465-.985 2.011-2.301m49.4 19.44c-2.61-1.094-1.773 5.536-1.229 6.41.688-1.134 1.427-.789 1.328-2.342-.078-1.218-.575-2.905-.099-4.068m1.15 1.08c-.814.149-.746 1.017-.221 1.44.117-.473.191-.953.221-1.44m7.7-58.323c-.156.657.084.729.72.216l-.72-.216m.871-.864c-.313.695.353 1.305.93 1.513.047-.649.063-1.743-.93-1.513m.21-5.76c-.016.621.382 1.037 1.01.72-.074-.578-.434-.858-1.01-.72m.29 38.667a.895.895 0 0 0-.29.79l.29-.79m1.229-34.131c.026.517.29.853.79 1.008.017-.526-.302-.869-.79-1.008m6.26 10.872c.053.518.293.925.721 1.224a12.953 12.953 0 0 0-.721-1.224" style="fill-opacity:.98823529;stroke:#fff;stroke-width:.5257113;stroke-miterlimit:3.98288536;stroke-dasharray:none;stroke-opacity:1" transform="translate(-12925.057 -3966.074) scale(6.48761)"/><path d="M2132.639 797.113c.934-.626.299-1.282.499-2.125.261-1.095 1.85-1.166 2.021-2.413a6.007 6.007 0 0 1-1.22 1.439c-.878-1.292.21-2.565 1.038-3.522.54-.623.701-1.208.982-1.959.364-.973 1.61-1.199 2.299-1.862-.132.89-1.308 1.981.034 2.517.191.077.672 2.179 1.049 2.59 1.103 1.202 3.083 2.143 3.791 3.677.274.593 1.497 1.107 2.085 1.412 1.102.57 2.655-.557 3.606-.98 1.89-.843 3.688.271 5.701.075.805-.079 1.536-.697 2.246-1.076 1.062-.567.761-1.953 1.565-2.828.838-.912 5.094-1.836 5.752-.441.627 1.327 4.512 2.593 5.754 1.827 1.073-.662 1.304-1.717 2.76-1.216.716.247 1.285-.34 1.9-.585.509-.205 1.104.456 1.626.43-.281-1.386 2.66-4.404 1.852-5.299-1.394-1.544 1.732-3.514 2.898-3.917-.684-.845-1.969-3.955.162-4.211 2.677-.323.672-1.98 2.204-3.447.591-.565-.171-2.877-.08-3.85.084-.9.316-2.04.721-2.851.35-.698 1.066-1.031 1.243-1.842 1.416.527 1.769.808 3.278.159.514-.221 1.778 1.684 1.902-.304.978.944 2.825.707 4.045.595 1.563-.143 2.515 1.556 4.024 1.422a3.19 3.19 0 0 1-1.51.575c.272.237 2.981 2.492 1.15 1.585.372.262 1.333.437 1.521.873.188.437.176.872.709 1.07-.863 1.107-2.271.415-2.66-.72.178.489.248.993.21 1.512-.777-.482-2.138-.433-2.95-.072 1.029.398 1.561 1.454 2.671 1.729-.283.566-.413 1.815-1.37 1.368.705.917 1.756 1.3 2.81 1.655-.876 1 .819 1.098-.58 1.296.483.019.94.139 1.37.36-1.428.39.364 1.203.908 1.871.621.765 1.171 1.6 1.682 2.442.643 1.059-.711 3.142-1.95 3.103.808.284.412 1.089 1.042 1.612.907.753 1.813 1.53 2.758 2.235.762.568 1.211 1.54 2.101 1.86 1.192.429 2.03 1.643 2.82 2.573.333.392 1.2.084.595 1.031-.748 1.17-1.968.589-3 1.112-1.712.866-3.735-1.519-5.085-2.066.623.912 1.114 2.063-.344 2.146-1.324.074-1.743 2.093-2.08 3.085-.901 2.65-1.334 5.686-1.176 8.449.381-.438.86-.678 1.439-.72-.185.594-1.138 1.304-.43 1.58-.682.422-.682 1.017 0 1.439-.936.264-1.976 1.382-2.23.07-.289 1.857-3.743 5.774-4.25 2.02-.724 1.313.504 2.341-.977 3.37-.683.474-.346 1.213-.823 1.811-.555.694-1.581.671-2.09 1.439 2.264-.859 1.513 2.29.43 3.101.559.549 1.704-.212 2.174.356.456.553-.463 2.69-.804 3.173-.396-.466-.875-.585-1.44-.359 1.417 1.226-.438 5.153-1.439 3.16-.27.875.463 1.628.939 2.239-1.98.363-1.371 3.374-3.038 4.048-1.828.74-3.673 1.97-5.531 2.792-.489.216-4.347 2.829-4.184 1.356.099-.894-.01-1.875.034-2.787.059-1.3-.781-2.377-.461-3.689-1.462 1.433-2.462.893-1.439-1.08-.663 1.122-2.132 1.844-1.801-.141-.154 1.053-2.934 3.5-3.744 1.877-.28-.561.495-.992-.042-1.582-.987-1.083-2.039.879-2.333-.585.325 1.666-1.816-1.299-2.021-2.02.013 1.508-1.611 3.187-2.892 3.842-1.333.682-2.5-1.237-3.793-.304-.469.338-2.285 2.947-2.637 1.253-.428-2.062.27-3.904-.828-5.941-.863 2.233-1.163 1.193-2.814 1.147-.695-.019-1.264.582-1.802.922-1.023.648-1.693.069-2.725-.119a9.644 9.644 0 0 1 1.08-1.01c-.835.126-1.108 1.208-2.02 1.08.382-2.191-1.826-.977-2.73-.29-1.05-1.31-.211-3.482-.673-4.993-.313-1.027-.122-2.113-.311-3.157-.159-.881-1.537-1.589-1.446-2.36.021-.181.779-1.114.87-1.383.322-.962.498-1.796-.093-2.683-.404-.606-.489-1.259-.833-1.841-.419-.708-1.315-.97-1.265-1.943-.206.25-.423.489-.649.72-.763-1.473-1.574-.118-2.616-.748-.59-.356-.216-1.014.044-1.417.262-.406 1.229.062 1.563.075-.563-.314-.898-1.078-1.521-1.234-.463-.117-1.061-.03-1.363-.495-.425-.652-.675-3.309.653-2.511-.345-.928-.918-2.051.22-2.159-.961-1.269-2.236-2.372-2.577-3.985-.142-.674-.767-2.861-.16-3.433" style="fill-opacity:.98823529;stroke:#fff;stroke-width:.5257113;stroke-miterlimit:3.98288536;stroke-dasharray:none;stroke-opacity:1" transform="translate(-12925.057 -3966.074) scale(6.48761)"/><path d="m2195.788 774.144.07-.504c.769.11 1.483.427 2.16.792-.758.138-1.517-.04-2.23-.288m3.31-5.544c.875-.116 2.018-.281 1.801 1.009-.836.174-1.252-.574-1.801-1.009m125.28 88.203c.05.594.289 1.098.72 1.511-.195-.343.149-2.436.301-2.909.386-1.207-.885-.581-.521-1.632.98.492 1.611-1.117 2.024-1.7.708-1.001 1.637 1.145 1.624 1.688-.034 1.421-.126 2.947-.207 4.368-.129 2.229-1.793 1.207-2.932.405 1.469 1.748-3.815-1.891-1.009-1.731" style="fill-opacity:.98823529;stroke:#fff;stroke-width:.5257113;stroke-miterlimit:3.98288536;stroke-dasharray:none;stroke-opacity:1" transform="translate(-12925.057 -3966.074) scale(6.48761)"/><path d="M2326.108 859.033c.3.197 1.239 1.418.621 1.71-1.006.476-1.685-1.459-.621-1.71" style="fill-opacity:.98823529;stroke:#fff;stroke-width:.5257113;stroke-miterlimit:3.98288536;stroke-dasharray:none;stroke-opacity:1" transform="translate(-12925.057 -3966.074) scale(6.48761)"/></g><g style="fill-opacity:.98823529;stroke:#fff;stroke-width:.5257113;stroke-miterlimit:3.98288536;stroke-dasharray:none;stroke-opacity:1"><path d="M2049.559 733.824c-.371 1.208-.162 2.515.279 3.672 1.072-.862.953-2.997-.279-3.672m1.789.648c.217.503.477.99.65 1.512a1.715 1.715 0 0 0-.65-1.512m4.61 5.616a2.758 2.758 0 0 0-.72-1.512c.062.589.302 1.093.72 1.512m4.61 6.552c-.509.51-.562 1.265.29 1.44a64.344 64.344 0 0 0-.29-1.44m1.23-24.84c-.497.453-.474.885.07 1.296.484-.448.46-.88-.07-1.296m-.15-1.872c-.222.513.195.726.649.72a5.54 5.54 0 0 0-.649-.72m15.991-19.152.709.071c.01-.583-.354-1.047-.859-1.296 0 .415.055.823.15 1.225m2.229 2.16c-.229.561-.108 1.041.36 1.44.142-.545.022-1.025-.36-1.44" style="fill-opacity:.98823529;stroke:#fff;stroke-width:.5257113;stroke-miterlimit:3.98288536;stroke-dasharray:none;stroke-opacity:1" transform="translate(-12925.057 -3966.074) scale(6.48761)"/><path d="M2034.288 643.824c.445.857 2.298.823 2.909.195.737-.756-.72-2.807-.529-3.796.106-.551.544-.931.57-1.512.041-.9-.688-1.483-.444-2.442.154-.611 1.266-2.68 1.682-2.604 1.22.226 2.414.754 3.667.48.595-.129 1.165-.808 1.756-.795.601.013.837.599 1.345-.178.499-.765-.431-2.221.747-2.524.846-.217 4.067.439 2.338-1.801 1.234-.062 4.552-2.249 4.54.433.677-.188.892-1.157 1.684-.92.353.105 1.548 1.696 1.832 2.021.696.792-.282 1.98-.487 2.773-.288 1.118.488 1.991 1.297 2.654 1.135.926 2.797-.936 4.095-.552.788.232 1.517.238 1.083 1.288-.417 1.011.992 2.461 1.158 3.398.141.793-.38 1.579-.269 2.419.147 1.117-.854 1.695-.807 2.634.023.452.834.716.921 1.301.145.974.197 1.834-.164 2.758-.879 2.252-1.671 3.542.957 4.489 1.088-1.697 3.853-2.961 3.96-5.184 1.221.731 1.315-1.256 2.25-1.274.646-.012 1.515 1.247 2.104 1.54.461.23 1.526.311 1.808.784.893 1.494 1.934-.698 3.059-.474.608.121.826-2.312 1.801-2.448-1.685-1.856 3.48-.653 4.038-.498 3.138.872 4.25 5.244 7.157 6.768 2.402 1.26 1.226 5.698 1.674 7.917.272 1.347 1.469 2.043 2.229 3.102 1.222 1.699 1.786 1.692 3.691 2.439-1.625 1.109.798 1.867 1.532 2.453.856.683-.819 3.523.338 3.307-.313.713-1.03 1.405-.536 2.214.28.458.845.663.785 1.287-.165 1.717.509 3.413-1.204 4.477-1.144.71-1.763 2.196-2.649.597-.914-1.646-3.513-.017-4.862-.422-.936-.28-1.834.058-2.756.187-.989.138-1.447-.471-2.318-.542-1.201-.099-2.689.449-3.791.882-1.74.684-1.876 2.747-2.759 4.138-.409.646-1.479 1.178-1.388 1.993.098.862-1.022.545-1.563.526.557 1.467.791 3.053 1.33 4.544.45 1.246.383 2.908 1.584 3.75 1.349.945 1.021 1.998 1.139 3.418.146 1.74 2.044 3.159 1.777 4.921-.018-.881-.752-1.361-1.14-2.065-.585-1.063-.507-2.399-1.95-2.832.033.432.057.863.07 1.296-.398-.955-3.621-1.404-1.73-2.664-.521.311-.886-.021-1.08-.504 0 1.551-1.835-.848-2.159-1.584 0 1.364-1.03-1.4-2.314-.813-.626.286-1.259.817-2.006.668-.915-.183-1.972-.686-2.919-.452-1.852.458-.813-1.462-.937-2.603-.072-.668-.094-1.345-.187-2.011-.127-.921.55-1.639.372-2.494-.784.628-2.879.048-3.17-.936.341 1.974-5.648.23-3.935 3.297.854 1.529.311 2.501.01 4.099-.322 1.696.939 3.281.619 4.988-.127.677-.63 1.188-.969 1.758-.417.698-.153 1.543-.632 2.231-.901 1.298-1.042 3.293-1.371 4.807-.401 1.846-.671 3.178-1.442 4.873-.275.605.305 2.268-.847 2.099 1.303 1.574-.079 4.487.745 6.39.393.905.975 1.508.521 2.428-.513 1.042 1.382 1.274 1.928.985 1.923-1.018 3.105-1.039 3.396 1.574.096.862 1.313 7.038 2.561 5.04.762 1.756.888 3.708 1.468 5.521.52 1.621 1.324 3.332 1.342 5.063-1.195-.218-1.43-5.458-2.722-4.553-.929.651.456 2.702.82 3.226.435.623.948 1.103 1.501 1.61.461.423 1.136.262 1.586.684 1.043.98 1.244 2.003 2.967 2.053 1.266.036 2.678-.466 3.791.385 1.225.936 1.484 2.647 2.67 3.639 1.254 1.049 2.063 1.554 1.436 3.216-.288.762-.791 2.31-1.739 2.511-.729.155-.873-1.037-1.43-1.257-1.46-.578-2.271 1.999-3.205 1.994-1.803-.009-1.355-1.782-.725-2.771.686-1.074-.542-2.057-1.329-2.251-1.117-.275-.671-1.867-2.1-2.059-1.315-.176-2.079-.231-2.922-1.333-1.181-1.545-.761 1.124-1.27 1.819-.11-2.04-5.207-3.954-3.17-6.12-1.716 1.03-1.028-1.643-1.87-2.159.088 1.049-.797.826-1.179.187-.492-.825-.382-2.077-1.096-2.764-.473-.455-1.418.138-1.511-.609-.084-.679.056-.929-.345-1.496-.604-.854-.532-.789-1.428-.96-.561-.106-.455-1.027-.632-1.414-.286-.627-.611-1.593-1.511-1.368-.96.24-.563 1.117-.869 1.801-2.407-.496-1.926-4.098-1.651-5.836.554-3.5 1.295-7.056 2.036-10.523.287-1.346 1.396-3.134 1.38-4.458-.02-1.556.586-1.645 1.181-3.031.749-1.745 5.33-6.426 3.78-8.347-.663-.818-1.216-3.044-1.454-4.047-.362-1.528-.925-2.047-1.68-3.339-.435-.744-1.413-2.831-1.267-3.643.354-1.962.27-3.39-.53-5.277-1.303-3.071-4.336-4.927-6.303-7.553-.861-1.151-1.702-2.284-1.886-3.771-.104-.836.142-2.758 1.353-1.664-.261-1.018.943-.8 1.19-1.514.352-1.013-.289-3.383-.447-4.471-.262-1.798 1.146-.878 1.781-1.885.407-.646.427-2.043-.214-2.571a4.088 4.088 0 0 1-.87 1.513c-1.214-1.503-1.563-3.26-2.08-5.04-.328-1.133-2.003-2.254-2.794-3.136-1.219-1.358-2.827-2.797-3.854-4.278-.568-.82-.304-1.593-.574-2.479-.245-.799-1.093-1.433-.917-2.347-1.491.437-2.145-1.528-2.449-2.594" style="fill-opacity:.98823529;stroke:#fff;stroke-width:.5257113;stroke-miterlimit:3.98288536;stroke-dasharray:none;stroke-opacity:1" transform="translate(-12925.057 -3966.074) scale(6.48761)"/></g><g style="fill-opacity:1;stroke:#fff;stroke-width:.5257113;stroke-miterlimit:3.98288536;stroke-dasharray:none;stroke-opacity:1"><path d="M1997.858 627.768c-.05.371.116.636.5.792l-.5-.792m1.58 3.816c.333.479.623.983.87 1.512-.21-.819-.559-1.62-1.16-2.231l.29.719m3.68.432c-.253.578.492 1.23.86 1.513-.023-.616-.379-1.153-.86-1.513m2.8 9.215a2.106 2.106 0 0 0-1.08.36c2.338 2.691 2.365-.41 1.08-.36m1.95-4.175c-.421-.847-1.465-.877-2.021-1.584-1.045 1.065 1.05 3.05 2.021 1.584m8.35 27c-.484.531-2.258 2.198-1.229 2.952.738-.779 1.812-1.762 1.229-2.952m1.66 2.808c-.194.342-.348.237 0 .72v-.72m19.8-5.04c-.389.172-.513 1.728-.015 1.728.975 0 .944-1.607.015-1.728m7.051 36.432c.207-.224.327-.487.359-.792-.855-.141-.975.123-.359.792m.939 5.472a1.986 1.986 0 0 0-.51-1.439c.205.466.375.946.51 1.439m-.22-4.392h.43a3.922 3.922 0 0 0-.649-.792l.219.792m1.01-6.984c.456-.575.202-1.168-.43-1.439.139.481.282.96.43 1.439m1.58 19.512c-.094-.843-.505-1.613-1.22-2.088a2.352 2.352 0 0 0-.43.72c.986-.477 1.352.714 1.65 1.368m-1.36-6.336c1.211-.083 1.095-2.277.57-2.952-.247.971-.437 1.96-.57 2.952m.5-7.92c.368.525 1.997-2.688-.289-2.232.14.737.442 1.466.289 2.232m.36 20.52.14.72c.449-.286.666-.694.65-1.224-.28.142-.543.31-.79.504m.941-13.968c.168.416.479.632.93.647.359-2.339-2.246-2.784-.93-.647m-.081-3.384c.197.334.391.67.58 1.008.283-.168.522-.385.72-.648a3.287 3.287 0 0 1-1.44-1.08l.14.72m-.07-3.6c.145-.386.389-.243.07-.792l-.07.792" style="fill-opacity:1;stroke:#fff;stroke-width:.5257113;stroke-miterlimit:3.98288536;stroke-dasharray:none;stroke-opacity:1" transform="translate(-12925.057 -3966.074) scale(6.48761)"/><path d="M1992.528 621.288c.071-.554-.042-1.955.777-2.047 1.015-.114 1.668 1.417 2.683 1.111-.536-1.286-.909-2.644-1.045-4.033a5.262 5.262 0 0 0-.18-1.685c-.215-.535.635-1.083.504-1.698.733.262 1.138 1.815 2.046 1.53.65-.204.352-1.48.475-1.963 1.51.881.864-1.338.587-1.999-.779-1.86-.622-3.305-.877-5.273 1.486 1.103 1.543-1.167 1.516-2.103-.068-2.307-.502-4.292-1.296-6.465.346-.025.651.075.917.299.683.458.64.123 1.457-.022.814-.146 3.252.876 3.887 1.38-.028-3.304 4.521-9.193 1.958-11.766-1.36-1.365 1.522-3.268 1.832-4.632.36-1.589.84-2.508.048-3.915-.651-1.158-.851-3.383.412-4.24.391-.267 1.579.086 1.65-.606.065-.646 1.356-1.075 1.854-1.549.629-.6.972-1.21 1.393-1.961.714-1.277 2.569-1.091 3.813-1.283.598-.092 1.328-.511 1.856-.006.713.681 1.447 2.271 2.753 1.733-.203-1.106-1.289-1.641-1.958-2.429-1.224-1.441-.405-2.551.691-3.648 1.576-1.574.837-1.257.837-2.958 0-.603.756-.835.699-1.393-.07-.693.208-1.342.23-2.027 1.346 1.496 4.048 1.738 5.138 3.649.396.693.272 1.548.623 2.255.476.958 1.183 1.778 1.659 2.736.56-.199.864-.649.57-1.225 2.986 1.388 3.058 4.47 3.872 7.424.401 1.457.678 2.685.444 4.188-.096.617 1.024 2.688-.566 2.068.244.624 2.298 3.043.257 2.432-.365-.109-1.015 1.448-.953 1.743.198.94-1.041.325-1.533.29-.15.529-.264 4.479-1.95 2.952.071 1.332-.629 2.328.149 3.6-1.341.105-1.335 1.074-1.279 2.126.057 1.09.947 1.103 1.326 1.947.165.368.766 1.388.599 1.802-.29.72-1.393 1.747-.475 2.472.429.338 2.888-1.609 3.307-1.844 1.814-1.02 3.984.619 5.732-.67.278 1.125-1.188 1.568-.815 2.686.211.634.637.95 1.068 1.418.546.591-.132 1.251.249 1.578 1.026.882.636 2.517 1.966 3.194 1.813.923 3.281-.244 4.013 1.924-1.86-.075-.844 2.162-.714 3.172.137 1.061-2.128 3.149-.207 3.765 1.308.419 4.075-.451 5.171.551 1.198 1.097-.477 3.208 1.94 3.24-.329.502-.069 1.426.275 1.853.559.693 1.086-.815 1.865-.313 1.607 1.036 3.7-1.498 4.919-2.403.087 1.255 1.046 1.957-.119 3.002-.537.482-1.773.758-2.088 1.313-.247.436-1.788 4.192-.313 3.317-.114 1.069-1.821.53-2.449 1.008-1.096.834-.724 2.505-1.011 3.672-1.458-1.434-2.612.2-4.39.288.469.606.463 1.611-.323 1.964-.778.35-1.253-.466-1.976-.407-.9.075-.688 2.034-.852 2.624-.184.661-.568.582-1.043.261-.468-.316-1.667 1.063-2.356.995-.346-.034-3.74-.532-3.74-.623 0 1.169-.937 1.952-1.245 3.117-.151.57.28 1.256.41 1.79.175.716-.539 1.475-.633 2.19-.122.933 1.307 2.015.662 2.982-.581.874-2.401 1.129-2.944.084.304 1.065.958 3.031 2.45 2.592-.13.679.324 1.223.643 1.759.474.8.212 1.595.508 2.417.511 1.423 2.549 3.119 3.565 4.237.622.684 1.26 1.355 1.765 2.135.462.714 1.33.558 1.659 1.692.518 1.78.866 3.537 2.08 5.04.399-.441.689-.945.87-1.513.909.749.584 2.266-.22 2.952-1.068.912-1.67-.035-1.289 1.848.216 1.069.448 2.769.334 3.845-.09.853-1.394.788-1.136 1.796-.697-.629-1.252-.138-1.406.629-.22 1.099.375 2.489.897 3.426 1.399 2.511 3.949 4.292 5.873 6.339 1.811 1.928 2.142 4.541 2.382 7.03.11 1.15-.596 1.013-.047 2.309.52 1.229.594 1.932 1.578 2.9.925.91.766 1.932 1.146 3.071.388 1.156 1.108 2.132 1.446 3.318.481 1.692-1.115 3.966-1.883 5.508-.803 1.61-1.826 3.471-3.132 4.556-.907.754.09 1.603-.352 2.487-.652 1.299-.768 2.78-1.533 4.075-.861-1.354-.422-3.344-.78-4.863-.146-.621-.479-1.156.136-1.538.752-.465.178-.744.539-1.322.777-1.245.947-2.736.65-4.197-.141-.692-.566-2.989.685-2.985a2.006 2.006 0 0 1-.29-1.08c-.349.483-.858.859-1.439 1.008-.179-1.028 1.237-1.588-.221-1.439 1.667-.794-.775-2.05.58-2.809-.597.158-1.1-.151-1.3-.72a2.477 2.477 0 0 0 1.08-.433c-.652-.352-1.103-1.133-.069-1.367-.889-.295-.352-1.159-.486-1.959-.224-1.33-.728-2.728-1.24-3.973-.539-1.309-1.333-2.562-1.968-3.831-.604-1.209-.661-2.669-1.486-3.773.382 1.029.856 3.382.07 4.319.277-.853-.456-1.616-.528-2.437-.069-.774-.092-2.042-.271-2.747-.17-.669-2.918-5.397-1.221-4.464-.07-.286-.19-.55-.359-.792l-.721.432c-1.239-3.095-.962-6.559-2.096-9.643-.22-.597-.754-.921-1.017-1.473-.234-.492.034-1.071.01-1.587-.05-.944-.72-2.788.517-3.28-.796.127-2.195.678-2.789-.099-1.082-1.417-1.939-2.975-2.041-4.797-.71.474-.572-.565-1.177-1.121-.522-.479-1.195-.894-1.413-1.615-.146.183.113 1.736.107 2.09-.018 1.219.722 2.466.072 3.741-.469.924-1.067 2.206-2.26 2.304-1.225.102-2.63-1.555-1.729-2.664-1.423.357-.192 1.404.188 2.279.526 1.211-.751 2.596-1.849 1.465 1.174.826-1.157 2.293-2.021 1.439.293 1.104-.583 4.851-2.395 4.164-.935-.354-.066-2.843-.265-3.588-.045.068-.983 3.496-.5 1.224a3.707 3.707 0 0 0-.36 1.944c-.899-.443-1.147-2.403-.439-2.952-1.064-.695-.644 4.324-2.076 3.074-.682-.595-.088-3.847.496-4.154-1.05.413-1.338 2.563-1.87 3.528a2.627 2.627 0 0 1-.79-.72c.881-.369 1-1.279 1.22-2.088-.413.707-.581 1.765-1.58 1.871 1.084-1.461.59-3.298.79-4.968a2.206 2.206 0 0 1-.43 0c.56 1.202-1.072 3.892-2.191 4.342-1.618.651-.307-6.197-.099-6.956.209-.762-.022-3.011.4-3.411 1.072-1.014-.098-3.866-.603-4.984-.649-1.438-.431-3.623-1.497-4.802-.452-.5-.714-1.151-1.006-1.748-.438-.895-1.623-1.423-.405-1.665-.85-.587-1.87-.785-1.87-2.027 0-.925.054-2.412-.439-3.229.118.673.416 2.223-.79 1.367.556.682 1.005 2.039.58 2.881-1.742-.709-2.807-2.511-3.831-3.989-.281-.404.605-.815.904-.266.224.413.814.557 1.229.677.936.271 2.136-.227 1.272-1.369-.487-.645-2.671-1.477-1.375-2.397a8.53 8.53 0 0 1-1.729-.216c.178-.489.248-.993.21-1.512-.661.323-1.571-.455-1.938-.916-.686-.861-1.271-.255-2.232-.668.334.769.756 1.5 1.01 2.304a26.39 26.39 0 0 1-.87-1.512 1.643 1.643 0 0 0 .29 1.44c-.859-1.18-1.324-1.92-.57-3.313a4.44 4.44 0 0 1-1.01.072c.198-.511.411-1.015.641-1.512a.626.626 0 0 0-.351.216 3.185 3.185 0 0 1 0-1.656c-.5 1.209-.421 2.561-1.01 3.744-.963-.422-.52-.948-.412-1.705.126-.882-.887-1.61-1.317-2.255.125.734.556 1.516.069 2.231-.361-1.333-1.739-1.98-2.503-3.036-.926-1.28-1.477-3.091-2.174-4.521" style="fill-opacity:1;stroke:#fff;stroke-width:.5257113;stroke-miterlimit:3.98288536;stroke-dasharray:none;stroke-opacity:1" transform="translate(-12925.057 -3966.074) scale(6.48761)"/></g><g transform="translate(-4741.841 -271.081) scale(2.38012)" style="fill:#dd9e96;fill-opacity:.98823529;stroke:#fff;stroke-width:.5257113;stroke-miterlimit:3.98288536;stroke-dasharray:none;stroke-opacity:1"/><g style="fill-opacity:.98823529;stroke:#fff;stroke-width:.5257113;stroke-miterlimit:3.98288536;stroke-dasharray:none;stroke-opacity:1"><path d="M2108.088 720.288c.238.767.688 1.553 1.51 1.8-.58-.527-1.108-1.123-1.51-1.8m4.61-7.92c.168.788-.383 1.58.43 2.16.366-.76.116-1.568-.43-2.16m1.22 1.296a1.487 1.487 0 0 0 0 .72v-.72m16.641-18.36a.963.963 0 0 0 .709.648 455.84 455.84 0 0 1-.709-.648" style="fill-opacity:.98823529;stroke:#fff;stroke-width:.5257113;stroke-miterlimit:3.98288536;stroke-dasharray:none;stroke-opacity:1" transform="translate(-12925.057 -3966.074) scale(6.48761)"/><path d="M2065.538 610.848c1.348.063 1.071-1.897 1.578-2.671.825-1.26 3.072.699 3.705 1.333 1.132 1.133 1.959.2 2.657-.994.96-1.642 1.402-.101 2.14.748.274-.635.26-2.187 1.254-1.194.614.613 1.182 1.368 1.923 1.835.463.292.782-2.749 2.083-2.801-.372 2.019 3.378.194 3.985-.421.752-.76-.141-1.278.023-1.942.267-1.082 2.592-1.189 3.111-2.388 1.066 1.475 2.415 2.638 4.047 3.425 1.277.617 2.453-.563 3.377.567.927 1.134 2.364-.626 3.492.502.572.573 1.268 2.896-.326 2.346-.01 1.967 1.037 3.412 1.65 5.327.569-.489 2.67.176 2.67 1.008 0 1.247 2.4.968 2.73 2.161l.72-.433c.388 1.019 1.069.258 1.915.002 1.061-.321 1.949.872 2.694 1.438-.864.757-1.057-.684-1.942.051-.802.666-1.059 1.615-2.14 1.783-1.158.18-.246 1.235-.67 2-.413.745-2.751 1.466-1.577.126-.754-.183-1.762.964-1.801 1.368-.635-.355-.883-1.538-1.8-1.225.284.308.617.547 1 .72-.636.744-.156 1.112.326 1.902.402.658-1.051.639-1.326.474.327.681.51 2.588-.22 3.097a.45.45 0 0 0 .29 0c-.078.545-2.325 2.995-2.811 2.376-1.212.605-1.601 2.421-1.718 3.629-.162 1.667.541 2.796-.321 4.364-.978 1.778.92 2.184 1.029 3.814.429-1.125.685.571 1.15 1.184.626.824 1.354 1.463 2.2 2.053.805.562 1.619 1.146 2.338 1.817 1.033.964.58 2.001.932 3.227a2.699 2.699 0 0 0-1.51-.576c1.798.305 2.647 2.548 4.053 3.674 1.026.822 4.278 2.423 3.438 4.174 1.1-.635 2.849 1.567 3.459 2.232a7.966 7.966 0 0 0-.939-.36c1.345.838 2.573 1.759 3.46 3.097 1.198-1.436 3.618 1.785 2.95 2.52.634-.444-.348-1.832.939-1.152-1.93 1.663 3.992 5.51 4.101 6.984.491-1.251.718-.207 1.112.368.616.899-.329.53-.173 1.216.29 1.276 1.326 2.412 1.833 3.603.687 1.614 1.045 3.365 1.772 4.987.293.653.608 1.313.768 2.017.078.344.11 2.158-.343.409-.026.975 1.122 3.806 0 2.089a4.494 4.494 0 0 0 1.08 1.512c-1.34.184-.261.854-.049 1.614.307 1.1.656 1.843 1.24 2.82.238.398.253 2.376.168 2.981a3.413 3.413 0 0 1-.859-1.44c-1.36.797-.084 2.447.359 3.385a5.068 5.068 0 0 0-1.439-.576c.644.585 1.297 3.662.939 4.535-.01-.521-.149-1-.43-1.439.451.716.068 1.457-.149 2.16.812-.022.854.57.641 1.186-.228.657-1.189.971-1.251 1.19-.377 1.351.152 1.39-1.32 2.145-.414.355-.852.677-1.313.965-.641.262-.843 1.19-1.333 1.338-.812.245-1.648.592-2.359 1.058-.333.218-.835 1.832-1.091 1.745-.731-.249-1.959.658-2.512 1.075-.75.566-2.232 1.064-2.781 1.755-.509-.988-1.846-.956-1.94-2.232-.095.505-.19 1.009-.289 1.513a4.715 4.715 0 0 0-.5-1.152c.373.833.249.785-.371-.145.811 0-.806-.508-.789-.504.248.874-.106 1.994-1.221 1.729.263.805 1.422-.417 1.688.72.34 1.451-2.248.74-2.768.72.897.728 2.371.587 2.95 1.729-.869.132-.918 1.503-1.916.805-.662-.463-1.101-1.856-1.974-1.957.559.655 3.338 2.954 2.88 3.672-1.772-.721-2.702-2.48-4.17-3.6.316 1.153 5.591 4.695 3.225 5.987-1.554.849-4.187-3.283-5.314-3.972.768 1.263 3.607 3.212 3.122 4.893-.376 1.3-2.584 1.655-3.629 2.178-1.764.883-1.824 2.202-2.904 3.611-.735.961-2.648 2.555-3.859 1.414.371-.47.852-.758 1.44-.864a4.024 4.024 0 0 1-.29-.937 7.169 7.169 0 0 1-.94.36c.048-1.815-.328-3.617-.341-5.433-.01-.895.058-1.812.341-2.667.19-.576 1.464-3.022 1.73-1.261-.01-2.827-5.396-2.415-4.89-4.823-.104.426-.297.402-.58-.072.482-.166.781-.937 1.323-.937.576 0 1.222.156 1.771-.105.46-.22.976-.896 1.283-1.293.595-.764-.491-1.525.232-2.273 1.366 1.314 3.278-.11 4.753-.4.513-.101.805.346 1.037.725.562.915 1.663.828 2.56 1.116.021-.788-.803-1.446.141-1.584-.183-1.33-1.845-1.38-2.389-2.302-.466-.788-.778-1.8-.968-2.692-.181-.846.708-.943 1.129-1.597.642-.996 2.779.455 3.598.614-.457-.836.135-1.823-.5-2.592.695-.175 1.464.183 2.145-.113.577-.251 1.739-1.017 2.297-1.406.647-.453.786-1.099 1.607-1.334.635-.181 1.488-.11 2-.593 1.379-1.301-.729-4.871-.554-6.536.148-1.427.679-2.45-.027-3.83-.232-.423-.467-.845-.704-1.266-.4-.753-.15-1.289-.434-1.985-.401-.984-.953-.894-1.051-2.205-.118-1.586.892-2.514.984-3.918.022-.338.027-2.105-.166-2.266-1.2-.999-.057-.752.397-1.796.7-1.609-1.21-3.196-2.367-3.942-.53-.342-1.896-1.068-1.828-1.856.081-.941 1.652-1.326 2.02-2.16-1.006-.382-2.312-1.165-2.955-2.051-.479-.658-.928-.111-1.458-1.013-.715-1.215-1.111-.084-1.996-.608-.515-.306-1.105-1.607-1.203-2.185-.308-1.819-1.064-3.372-2.552-4.654-.42-.362-1.376-.603-1.964-1.22-1.107-1.165-2.436-2.346-3.371-3.649-.602-.838-.86-1.866-1.491-2.684-.251-.324-.67-.711-1.09-.369-.441-.678-1.261-.915-1.678-1.613-.307-.514-1.177-1.727-.598-2.301.724-.719-2.672-1.417-2.897-1.469-2.263-.517-3.809-3.112-5.952-3.7-.619-.17-2.291-.956-.947-1.588 1.91-.898-.494-1.428-.157-2.432.18-.54 2.777.254 3.034.293 1.056.16 3.916-1.596 2.436-2.021.323-.489 1.29-.747 1.29-1.44 0-.875-.971-1.66-1.821-1.549-.578.075-.648-.299-.816-.782-.371-1.067-1.475-.779-2.322-1.125.197-.759 1.301-.61 1.361-1.241.104-1.071-1.08-1.476-1.776-1.98-.831-.602-1.391-1.325-2.555-1.113-1.813.329-1.409 1.298-2.22 2.391-.806-.494-1.994-1.428-2.878-1.257-1.008.195-2.89-1.614-3.382-2.344-.561-.829-1.07-2.813-.785-3.805.504-1.757-.951-1.373-1.306-2.747.221.564.124 1.068-.29 1.512-.945-.286-1.158-1.962-1.975-2.608-1.104-.881-2.922-2.432-3.494-3.733" style="fill-opacity:.98823529;stroke:#fff;stroke-width:.5257113;stroke-miterlimit:3.98288536;stroke-dasharray:none;stroke-opacity:1" transform="translate(-12925.057 -3966.074) scale(6.48761)"/><path d="M2102.618 624.312c.093-.345-.05-.585-.43-.72l.43.72m.65.072c.314.448.721.784 1.221 1.008.598-.923-.573-1.174-1.221-1.008m3.6-3.817a7.846 7.846 0 0 0-.36 1.944c.754-.446 1.587-1.438.36-1.944m1.01 2.089a3.545 3.545 0 0 0-.87 1.151c.525-.167.89-.579.87-1.151m1.87-3.024c.25.118.49.07.72-.144l-.72.144" style="fill-opacity:.98823529;stroke:#fff;stroke-width:.5257113;stroke-miterlimit:3.98288536;stroke-dasharray:none;stroke-opacity:1" transform="translate(-12925.057 -3966.074) scale(6.48761)"/></g><g transform="translate(-4741.841 -271.081) scale(2.38012)" style="fill:#d9d7d7;fill-opacity:1;stroke:#fff;stroke-width:.5257113;stroke-miterlimit:3.98288536;stroke-dasharray:none;stroke-opacity:1"/><g style="fill-opacity:.98823529;stroke:#fff;stroke-width:.5257113;stroke-miterlimit:3.98288536;stroke-dasharray:none;stroke-opacity:1"><path d="M2034.266 703.942c.396-.54.328-1.53.591-2.153.46-1.091 1.521 1.21 2.075 1.534.688.402 1.312.133 2.02.33.664.187.708.963 1.055 1.44.686.947 2.455.749 1.946 2.595-.246.89-1.392 3.415.884 2.878 1.021-.24 1.24-1.943 2.425-2.13.986-.156 1.402 1.773 2.315 1.417.741-.29 1.84-3.471 1.81-4.254.92.292 1.767.383 2.38 1.224.607.833.848 1.846 1.684 2.515 2.081 1.665 3.911 3.196 5.147 5.6 1.25 2.429 2.123 4.888 1.986 7.669a24.288 24.288 0 0 1-.397 3.303c-.289 1.489-.02 1.6.43 2.94.668 2.003-.555 4.433.636 6.448.92 1.558 3.025 2.387 3.53 4.274.59 2.23 2.06 4.105 2.625 6.363.76 3.03-2.675 1.37-1.1.27-.604.023-1.118-.326-1.37-.863.106.208.67 2.235-.166 1.632-.84-.608-2.808.733-3.575 1.104-.81-2.641-4.02-3.37-5.938-4.992-.495-.42-.87-.924-1.344-1.36-.757-.7-1.96-.68-2.798-1.281-.842-.604-2.18-1.896-2.646-2.768-.32-.603-.819-.66-1.417-.821-.928-.25-1.345-1.086-2.09-1.607-.712-.497-.564-.633-.179-1.175.43-.604-.136-1.837-.387-2.404-.788-1.778-2.784-3.004-3.507-4.803-.349-.866-2.242-1.346-.075-2.046-1.277.183-2.556-2.476-2.217-3.412.657-1.816-.308-3.773-1.403-5.126-.965-1.19-.765-4.93-.77-6.438-.01-2.205-1.347-3.95-2.16-5.903m134.93 19.584-.14-.792c.696-.06 1.261.352 1.8.72a9.691 9.691 0 0 0-1.66.072m-48.24 14.4c.07.498.16.74.72.792-.389-.997.126-2.281-.86-3.024-.049.752.186 1.48.14 2.232m28.51-24.048c.733.266.83.025.29-.721l-.29.72m12.1-16.487c.431-.246.717-.605.86-1.08-.566.095-.959.473-.86 1.08m1.72-.936c-.245.472-.219.927.08 1.367 1.543-.537.91-2.4-.08-1.367m2.16 5.4a.963.963 0 0 0 .801-.216c-.267.072-.535.143-.8.216m8.929 17.28c.417.44.896.512 1.44.216a9.054 9.054 0 0 0-1.44-.216m-96.33 15.84c.706-.407.751-1.327-.15-1.512.136.495.186.999.15 1.512m23.54-.504c.25.2.513.2.79 0a2.12 2.12 0 0 0-.36-.72l-.43.72m-69.41-30.816a4.406 4.406 0 0 1-1.22.937c.773 1.484 2.401.017 1.22-.937" style="fill-opacity:.98823529;stroke:#fff;stroke-width:.5257113;stroke-miterlimit:3.98288536;stroke-dasharray:none;stroke-opacity:1" transform="translate(-12731.067 -3673.648) scale(6.48761)"/><path d="M2036.066 712.438c-.876-.385-.966.444-.914 1.08.11 1.344 1.077-.2.914-1.08m30.38 22.32c-.292.177-.436.44-.43.792.828.15.972-.114.43-.792m41.91 6.84c-.245 2.565 5.35 4.75 5.26 2.376.027.67 1.017.744.95 1.02-.2.848 1.416 1.214 2.013 1.434.921.339 1.471-.408 2.26.495.72.824 1.81.915 2.838 1.01-.716-.982-2.25-.123-2.628-1.593-.244-.953.498-1.752 1.328-.925-.796-.5-.847-1.277-.58-2.097.166-.395.292-.802.378-1.222.213-1.005.741-.613 1.352-1.218-.503.053-1.006.1-1.51.144.694-.664.016-1.451.221-2.231.75.006 1.415.393 2.16.432-2.608-1.956 1.312-4.282 2.924-4.538 2.552-.405 6.23-.94 8.382-2.456 1.86-1.31 1.92-4.002 3.57-5.487 2.114-1.902 3.326-4.094 3.483-6.96 1.507.046 1.805.81 2.355 2.02.323.71 2.14 2.679 2.918 2.712 1.381.059 1.772-2.784 1.188-3.608-1.316-1.858.31-2.611 1.308-3.715.348 1.824-.03 4.37 2.311 4.896.108-1.41-.227-3.004-.955-4.218-.932-1.552.832-.637 1.392-1.084.517-.413 2.312-1.796.884-2.351-2.156-.838-.048-2.44.62-3.364-.179 1.82 2.071-.156 2.47-.934.606-1.188.8-2.535 1.356-3.744.317-.69.713-.355 1.073-.794.437-.531.806-1.433 1.268-2.053 1.011-1.355.895-3.324 2.192-4.571 1.008 1.186-.2 2.409.28 3.672.824-.524 1.585-3.68 2.604-3.493.07.013 2.517 5.6 2.875 3.062.128 1.043 2.063 1.5 1.922 2.753-.093.827-1.245.523-.948 1.653.348 1.322.178 1.66-1.123 2.146.812-.466 1.682.053 2.426-.372.608-.347.937-1.22 1.795-.86 1.623.683.105 1.807-.69 2.096.164 1.559 1.67.065 2.264-.313 1.277-.812 2.79 1.076 2.916 2.185.881-.934 2.38.719 2.74 1.439.707-.968 2.711-.218 2.74.932.041 1.66-3.605 2.974-4.916 2.872-.91-.071-4.406-1.292-3.327 1.257.425 1.004 2.745 1.429 2.553 2.644.71-.445 1.28.219.867.89-.442.723-1.447.564-2.153.622-2.26.182-3.2.76-5.124-.863-.167.518.193 1.6-.325 1.959-.785.544-1.896-.578-2.478-.958-1.729-1.128-4.083.636-5.627-.857-.109 1.73-1.258.146-2.096.376-.623.17-.814-.417-1.255.292-.49.793-1.253-.31-1.83-.524-.168.77-.81 1.008-1.149 1.655-.438.838-.66 2.005-.775 2.938-.09.738-.196 1.613.027 2.34.347 1.132-.072 1.269-.313 2.329-.387 1.696.123 2.488-1.813 2.528-2.099.043-.81 3.689-.226 4.41-1.166.404-4.292 2.374-2.898 3.918.81.895-2.133 3.913-1.852 5.299-1.2.06-1.21-.777-2.453.009-.856.542-1.728-.311-2.569.143-1.148.619-1.44 1.63-2.974 1.384-1.012-.163-3.096-.874-3.643-1.81-.745-1.271-5.502-1.105-6.348.418-.399.717-.634 1.614-.896 2.385.054-.158-2.323 1.254-2.22 1.246-.699.054-1.397.154-2.09.25-.826.113-1.52-.52-2.38-.574-1.49-.094-2.46.696-3.728 1.3-1.736.828-1.795-.581-3.209-.951-.435-.113-1.413-1.27-1.83-1.641-.525-.468-.737-1.158-1.25-1.628-.506-.463-1.156-.421-1.5-1.093-.314-.615-.143-2.145-.793-2.506-1.328-.74-.149-1.262.011-2.335m74.16-22.176c.381-.75.31-1.573-.07-2.304.087.766.07 1.536.07 2.304" style="fill-opacity:.98823529;stroke:#fff;stroke-width:.5257113;stroke-miterlimit:3.98288536;stroke-dasharray:none;stroke-opacity:1" transform="translate(-12731.067 -3673.648) scale(6.48761)"/></g><g style="fill-opacity:.98823529;stroke:#fff;stroke-width:.5257113;stroke-miterlimit:3.98288536;stroke-dasharray:none;stroke-opacity:1"><path d="M2249.568 695.88c.197.178.341.153.43-.072l-.43.072m-57.24 41.256c.481-.783.485-1.705-.29-2.304a2.296 2.296 0 0 0 .29 2.304m12.02 7.2c.094-.796-.193-.964-.859-.504.269.196.556.364.859.504m10.95 16.632c.45-.254 3.06-1.666 2.938-1.991-.446-1.199-1.203-.073-1.813.361-.749.537-1.981.559-1.125 1.63m4.681-11.448c-.169.397-.146.781.069 1.152.349-.414.326-.798-.069-1.152m5.899 4.463c1.974-.984-1.108-1.938-2.054-1.763-1.029.192-.889 1.498-.648 1.368.668-.359 2.399-.526 2.702.395m4.11-5.975c.141.87.968 1.36 1.785.986.835-.38.777-1.284 1.305-1.922-.741.063-1.188-.512-1.87-.648-.704-.142-1.233.725-1.87.864a4.4 4.4 0 0 0 .65.72m-.58 4.104c.21.558.569.726 1.08.504a3.141 3.141 0 0 0-1.08-.504m7.56-10.44c2.662-1.05-2.155-1.712 0 0m4.61-15.696c1.243-.064.718-1.202.22-1.8-.702.346-1.136 1.382-.22 1.8m1.01-3.888c.684-.043.924-.283.721-.72-.561-.045-.746.185-.721.72m1.01-6.048.57-.72c-.668.011-.573.195-.57.72m7.05 10.08c.341-.751-.293-1.918-1.15-1.152.161.556.587.999 1.15 1.152m6.26 31.968a.871.871 0 0 0 .729.072c-.241-.229-.484-.253-.729-.072m2.6-13.032c.227-.776.012-1.544-.149-2.304-1.248.25-.166 1.494.149 2.304m-65.81-14.688c-.386.693-.252 1.49-.43 2.231 1.96-2.429 4.747-3.229 6.479-5.976.645-1.021 6.15-4.616 4.17-6.264 1.169.289.37-.516.441-1.225.087-.864 1.477-.983 2.08-1.063 1.033-.136 1.234-.538 1.405-1.487.239-1.323 1.195-.994 2.054-1.554 1.808-1.176.479-2.33-.278-3.686-.909-1.628.562-3.855-.802-5.243-.876.764.194 3.678-1.08 2.521.313.602 1.152 2.289 1.22 2.952-.739-.412-1.594-.857-1.87-1.729-.015.913.459 1.645.737 2.478.28.837-.775 3.423-1.237 1.627-.069.558-.372.742-.875.88-.389.106-.178 1.22-.285 1.496-.135.348-.842-.104-1 .216-.252.508.417.86 0 1.439-.189-1.695-.907.266-1.16.723-.421.762-.823 1.536-1.411 2.188-.931 1.032-1.416 2.441-2.506 3.342-.434.358-.928.192-1.361.515-.496.369-.523 1.018-1.035 1.317-1.452.852-2.697 2.725-3.256 4.302m17.64-24.192c.208-.762-.055-.905-.79-.432l.79.432m.5-7.632a4.082 4.082 0 0 0-.72-.576c-1.27 2.401 1.873 2.809 3.53 2.809.048-.442-.213-1.039-.611-1.26-.82-.457-1.338-.258-2.199-.973m-.79-13.68c.282.695.997 1.122 1.59 1.512.034-.89-.768-1.477-1.59-1.512m1.08 16.56-.939.216c.172.892 1.242.966 1.159 1.944.653-.589-.011-1.566-.22-2.16m1.15 11.952c-.097-1.258-1.732-.092-1.72.72.97.388.797-.851 1.72-.72m-.14-25.2c.154.414 1.751 1.692 2.13 1.991 1.613 1.274 1.217 2.934 2.389 4.274.514.588 3.993 6.938 4.767 3.239.164-.784.644-1.448.796-2.232.15-.778-.581-1.471-.581-2.25 0-1.86-.938-3.017-2.196-4.271-1.015-1.017-6.339-1.998-7.305-.751m1.15 14.328a7.959 7.959 0 0 0-.22-1.512c-.277.558-.204 1.062.22 1.512m-8.059-37.441c-.323 1.593.957 1.391 1.116 2.294.243 1.383.348 3.162 1.043 4.381.67 1.174 1.017 2.204 1.226 3.516.127.795 1.399 2.547 1.225.753 1.342.504.572 3.118 2.127 3.584 2.294.688.481-2.257.533-3.224.581.212 5.333 1.771 3.49 3.086-.707.504-1.327 1.115-1.964 1.701-1.021.939.021 2.794.124 3.997.612-.073.852-.437.58-1.009 1.296.021 1.89.74 1.659 2.017.422-1.496 1.363-.183 1.08.576.738-.122 1.825.334 2.436-.277.521-.522.666-1.318 1.261-1.767.185-.139 1.266-.97 1.53-.759.904.724 2.11 1.083 2.941 1.875 1.099 1.046 3.193 2.474 3.493 4.023.1.519 1.013 1.276 1.219.366a2.78 2.78 0 0 0-.401-1.379c-.1-.241-1.172-1.691-.599-1.508-1.151-.723-.851-2.273-1.659-3.239 1.554-.246 3.011 1.626 3.759 2.695 1.013 1.446 2.738 1.532 3.605 3.314.227.468-.297 1.374.386 1.521.741.159 1.364.686 2.043 1.012.542.261 1.014 1.015 1.634.688.451-.237 1.12-.925 1.683-.807-.115.884-1.742 1.279-1.035 2.308.128.186 1.472 2.115 1.829 1.163.555-1.479-.043-6.612-2.813-4.694-.31-.609.011-1.016-.134-1.61-.184-.752-1.271-1.835-1.916-2.207-1.711-.986 1.9-1.95 2.84-1.44-.163-1.06-1.879-1.486-2.745-1.565-1.476-.136-1.724-1.385-2.945-1.603-.307 1.002 1.567 2.461 0 3.024-1.147.412-1.485-2.342-1.992-3.2-1.031-1.75-5.363-3.313-5.277-.04a9.912 9.912 0 0 0-.57-.864c-.972.9 1.006 1.464.45 2.095-.939 1.068-2.865-.383-3.55-1.086-.614-.631-3.257-5.141-1.301-5.257-1.774-1.237-3.611-4.797-2.8-6.84.553-1.393-.152-2.662.351-3.888.621-1.518 2.652-1.619 3.68-2.736-.118.409-.238.817-.36 1.225.867-.986.593-2.143.995-3.311.614-1.78 1.432-3.69 1.095-5.617-1 .473-.544-.909-.869-1.369-.9-1.271-1.942-1.312-2.494-3.061-.564-1.795-.519-3.185.23-4.872.389-.875-.746-3.274-1.534-1.997-.313.507-.369 1.625-1.228 1.469-.52-.095-1.643-.693-2.105-.106-.277-.601-.856-1.025-1.399-1.362-1.089-.675-2.507-1.688-3.798-1.26-.557.185-1.163-.118-1.717-.167-.517-.047-.118.701-.605.701-1.385 0-.513.765-.54 1.584-.05 1.464-.508 3.266-.72 4.752-.387 2.704 1.655 5.093 1.092 7.969-.456 2.332.506 4.072.819 6.243.39 2.691-3.71-.898-4.001-2.044-.908.455-.82 1.436-.503 2.233m7.489-27.935c.331.49.784.802 1.36.936.213-.815-.685-1.375-1.36-.936m.57 4.464.79-.072c-.412-.183-.602-.319-.79.072m2.45-12.96c.232-.352.375-.735.43-1.152-.47.261-.613.645-.43 1.152m1.51 13.176c.479-.356.698-.935.51-1.512-.445.413-.615.917-.51 1.512" style="fill-opacity:.98823529;stroke:#fff;stroke-width:.5257113;stroke-miterlimit:3.98288536;stroke-dasharray:none;stroke-opacity:1" transform="translate(-12925.057 -3966.074) scale(6.48761)"/><path d="M2222.928 674.856c.235.884.696 2.579 1.66 2.951.423-1.08.119-4.529-1.66-2.951m3.75 8.64c-.216-.876-1.382-1.484-2.159-1.729.495.82 1.379 1.24 2.159 1.729m-2.159 4.824c-.027 1.616 2.487 2.827 2.56.517.035-1.176-2.184-1.815-2.56-.517m1.939-11.016c.215-.694-.025-.886-.72-.576l.72.576m-.07 25.488c2.336.414 1.775 2.229 1.731 4.019-.031 1.298.182 2.221-.168 3.52-.363 1.354.424 2.644-.053 3.981 1.34.284 2.196-2.016 3.657-2.016.951 0 2.723-1.387 2.447-2.333-.241-.828 2.796-1.137 2.386-2.317-.545-1.565.57-3.722-1.94-1.901.616-.673-.31-1.585-1.047-1.421-.684.152-1.129 1.013-1.715.39-.663-.704-1.135-1.509-2.046-1.938-.857-.403-1.965-.573-2.532-1.423a2.827 2.827 0 0 0-.72 1.439m.57-6.336c-.099 1.3-.635 2.405.36 3.527.176-1.48.295-2.963.604-4.41.174-.818-1.671-.3-.964.883m.08-18.792.72-.072a1.337 1.337 0 0 0-.72.072m1.87 18.792c.624.094.551-.146-.22-.72l.22.72m1.08 46.296c-.371 2.035 2.42 2.893 2.632.514.077-.866.452-3.26 1.114-3.524.527-.209.906-3.364 2.107-2.436.864.668.51 2.104 1.196 2.854.19-1.267.646-.651 1.01 0 .282-.781.046-1.861 1.011-2.232.431.52.348 1.147-.15 1.584.991.036 1.614 1.261 2.6 1.08-.301-.436-.673-1.028-.649-1.584.013-.316.708-.28.79-.576.217-.779-.647-.597.357-1.353.617-.464 1.226.352 1.693.645 1.589.996 3.024 1.271 3.557 3.377.288 1.145-1.263 2.217-1.385 3.44-.123 1.224.535 2.908.794 4.116.399 1.863 2.02 2.981 3.613 3.797.731.375 3.328 2.062 4.117 1.366.632-.557.297-1.873 1.491-1.811.118.006-.232 5.561 1.467 4.389 1.181-.814 2.207-3.612 2.024-4.976-.257-1.918-1.715-2.722-2.459-4.27-.449-.935 1.825-6.168 2.635-5.78.623.298 2.002 3.261 2.274 3.982.266.702.114 1.435.176 2.161.09 1.06.949 1.767 1.104 2.796 0-1.672.749-3.84-.511-5.256.621-.29 1.127.081 1.37.648-1.069-.95.516-1.902 1.037-2.614 1.008-1.375.299-3.385.028-4.856-.222-1.208-1.806-1.213-1.176-2.525.365-.76.393-2.717-.97-2.101 2.318-1.986-1.923-2.633-1.869-3.673.031-.608 1.214-.891 1.446-1.488.416-1.069-.774-1.498-1.087-2.327-.147-.391.286-2.259-.438-1.885-.914.471-1.083.138-1.577-.569-.585-.838.01-1.321-1.274-1.712-1.41-.431-1.666-1.705-2.899-2.242-.745 1.625.565 3.763 1.056 5.298.111.351.623 1.645-.016 1.83-.833.24-1.979.035-2.341-.864-.677 2.121.048 2.292-1.94.91-1.871-1.3-.246 3.828-1.795 4.041-.995.137-1.189-1.064-2.107-.651-.955.431-.691 2.183-.992 3-.361.982-1.793.544-2.506 1.124-.414.337-1.127 1.134-1.697 1.159-.588.026.73-.916.611-.836.745-.496.901-.772.713-1.718-.146-.734-1.153-4.267-2.376-2.562-.187-.589-.548-1.337-1.3-1.297.42 1.981-2.057 1.221-2.639 2.297-.688 1.27-.1 2.438-1.682 2.959-1.6.527-3.966.067-4.723 2.096-.324.87-.122 1.879-.222 2.783-.129 1.196-.751 2.391-1.243 3.472m.86-46.296a3.993 3.993 0 0 0-.72.576c.613.487 1.242.959 1.8 1.512.676-.944.08-2.094-1.08-2.088m2.95 26.568c.686.493 1.67.479 2.24 1.151.481.567.228 1.471.803 1.982.792.705 1.835-.137 2.231-.838.736-1.305-.618-2.194-.967-3.334-.645-2.099.169-5.19.828-7.236.501-1.558 2.153-3.65-.01-4.791-.713-.376-1.637-.495-2.389-.155-1.292.585-.751 1.712-1.078 2.779-.211.688-.885.91-.635 1.729.278.91.671 1.904.306 2.857-.549 1.436-3.195.518-3.156 2.121.034 1.343 1.081 2.689 1.826 3.735m-1.079-8.424c.644-.292 2.163-2.283.795-2.618-1.033-.253-1.298 2.082-.795 2.618m4.32-19.8c-.828-1.34-1.782-3.163-3.31-3.816-.753 1.266 2.74 2.988 3.31 3.816m-.79 5.976-.07.791c1.013-.693 1.771-3.42 2.995-1.995.496.578 1.042 1.114 1.483 1.737.559.789 1.71.83 2.292 1.626 1.109-2.146-1.817-3.451-2.804-4.625-.44-.523-1.126-1.101-1.644-1.519-.31-.251-2.023-1.063-2.393-1.055.265.687.048 2.505.349 2.909.744.998-.136 1.049-.208 2.131m3.24-4.32c.27.527.63.983 1.08 1.368-.145-.972-.415-2.162-1.37-2.664-.218.503-.121.935.29 1.296" style="fill-opacity:.98823529;stroke:#fff;stroke-width:.5257113;stroke-miterlimit:3.98288536;stroke-dasharray:none;stroke-opacity:1" transform="translate(-12925.057 -3966.074) scale(6.48761)"/><path d="M2239.638 718.128c.104 1.506-.364 2.977-.51 4.464 2.061.544 1.624-4.352 2.455-5.322 1.029-1.203 2.119-2.178 2.298-3.852.213-1.993-.422-3.956-.362-5.946-.997.205-1.279 3.326-1.448 4.085-.515 2.302-1.959 4.264-2.433 6.571m1.87-27.864c.119-.492-.121-.589-.72-.288l.72.288m1.08-2.592c1.809-1.271 1.543-4.132-.87-4.608-.706 1.478-.232 3.594.87 4.608m.431 3.024c-.229-.193-.493-.241-.79-.145l.79.145m.21 29.88c-.163 2.803 4.839-.383 5.479-.145-.395-1.444-.448-4.291-3.035-3.583-.908.248-3.694 2.932-2.444 3.728m.939-24.12c.568 1.532 1.226 2.841 2.521 3.888.722.583 2.927 2.916 3.819 2.521-.304.713-.27 1.659-1.16 1.943a4.45 4.45 0 0 1 1.08 1.296c-.767-.844-1.213.229-1.839.593-.97.563-2.492-1-2.911-1.744-.721.887.645 5.152 1.73 5.615-.191-1.934 2.081.562 2.133 1.548.133 2.513-.325 4.446 2.337 5.652-.114-.759-.505-1.451-.51-2.231.421.469 1.888.508 2.029-.29.078-.443-1-2.532-1.268-2.979-.614-1.03-.801-.895-.901-2.274-.065-.893.13-2.297-.65-2.952.598-.155 2.289 1.494 2.305 1.476.66-.774 3.139.212 3.815.612-.546-.639-.923-1.537-1.8-1.8 1.133-.867-1.138-3.423-1.241-4.453-.11-1.085.378-2.05-.217-2.974-.38-.59 1.05-.418-.099-1.109-.623-.375-1.418-.098-1.36-1.081.073-1.262-1.022-1.306-1.925-1.504-.977-.214-1.291-.23-2.32.101-1.183.378-2.482-.673-3.568.146" style="fill-opacity:.98823529;stroke:#fff;stroke-width:.5257113;stroke-miterlimit:3.98288536;stroke-dasharray:none;stroke-opacity:1" transform="translate(-12925.057 -3966.074) scale(6.48761)"/><path d="M2246.688 705.456c1.272.186.341-2.777-1.221-1.872.34.653.527 1.476 1.221 1.872m6.55 12.672c.271.234.538.474.8.72-.147-.683-.478-1.826-1.44-1.512.188.284.402.548.64.792m2.88 0c.575.399.647 1.009.15 1.512 1.073.158.827-1.373.7-1.963-.134-.618-.527-1.164-.631-1.781-.095-.562.283-1.014.07-1.584-1.419.606-.285 1.812-1.08 2.736.574.093.956.471.791 1.08m3.1 3.816c.494-.511.149-1.194-.359-1.513a2.005 2.005 0 0 0 .359 1.513m.43-3.816c-.359.484-.672 2.522.475 2.26 1.164-.266.301-2.116-.475-2.26m-13.53-5.04-.15-.792c.817.12.867.384.15.792m4.31-6.984c.127.3.177.611.15.937a1.587 1.587 0 0 1-.15-.937m-10.15 3.096c-.529-2.814 3.298-1.367 0 0" style="fill-opacity:.98823529;stroke:#fff;stroke-width:.5257113;stroke-miterlimit:3.98288536;stroke-dasharray:none;stroke-opacity:1" transform="translate(-12925.057 -3966.074) scale(6.48761)"/></g><g style="fill-opacity:.98823529;stroke:#fff;stroke-width:.5257113;stroke-miterlimit:3.98288536;stroke-dasharray:none;stroke-opacity:1"><path d="M2091.818 714.312a1.594 1.594 0 0 1-1.301.721c.975.748 1.068 2.032 1.801 2.951-.359-1.23.682-2.687-.5-3.672m-8.14-8.352h-.43c.157.291.351.555.58.792l-.15-.792m2.31 6.336c.351-.609.134-.849-.65-.72.2.256.417.495.65.72" style="fill-opacity:.98823529;stroke:#fff;stroke-width:.5257113;stroke-miterlimit:3.98288536;stroke-dasharray:none;stroke-opacity:1" transform="translate(-12925.057 -3966.074) scale(6.48761)"/><path d="M2077.059 689.544c.021-.754-.021-1.519-.291-2.232 2.388.082 3.398-3.35 4.134-5.084.803-1.893 4.694-3.048 6.358-2 .818.515 2.127.265 2.994-.038 1.146-.401 2.048.271 3.246-.219 2.161-.883 3.406 2.429 4.368.502.146 3.016 3.734.908 4.929 2.909.585.98 2.597 1.03 2.407-.463-.105-.824-1.93-1.834-.832-2.604.46-.323.907.328 1.051-.422.118-.612.634-.398 1.099-.438.584-.05.502-.866.988-.909.66-.057 1.327.861 1.799 1.206 2.073 1.516 4.866-.699 5.909-2.376.01.553.126 1.191-.069 1.728-.215.59-1.113.875-.884 1.627.218.715.026 1.459.218 2.179.201.754.743 1.65 1.041 2.396.723 1.804 1.818 2.505 1.283 4.661-.245.984-.771 1.873-.406 2.889.282.787.848 1.536.93 2.386.079.816-.295 1.968-.625 2.698-.448.989-.682-.292-1.436.115-.946.512-1.562 1.457-2.457 2.029-1.291.824-2.323.688-3.784 1.053.635.769.043 1.756.5 2.592-.818-.159-2.956-1.61-3.598-.614-.421.653-1.31.751-1.129 1.597.189.892.502 1.904.968 2.692.544.922 2.206.972 2.389 2.302-.943.138-.12.796-.141 1.584-.668-.215-1.451-.193-2.057-.59-.525-.344-.767-1.402-1.54-1.251-1.475.29-3.387 1.714-4.753.4-.763.79.175 1.853-.811 2.834-.957.953-1.826.476-2.934.92-.818.328-.936.854-1.945.423-.993-.423-3.031-.719-3.53-1.729.271 1.068-1.2 1.8-1.974 1.104-1.023-.922-.089-1.119.509-1.752.698-.741-.152-2.717-.799-3.234-1.156-.926-1.288 1.493-1.477 2.083-.711-.599-1.151.273-1.806-.048-.991-.487-.391-2.059-.629-2.875-.217-.742.512-1.807-.259-2.347-.537-.376-1.686-1.684-.337-1.858-.57-.302-.959-.009-1.08.576.186-1.228-.867-2.321-1.289-3.385-.471-1.19.146-2.854-.591-3.917-1.575-2.27-2.75-4.422-3.657-7.1" style="fill-opacity:.98823529;stroke:#fff;stroke-width:.5257113;stroke-miterlimit:3.98288536;stroke-dasharray:none;stroke-opacity:1" transform="translate(-12925.057 -3966.074) scale(6.48761)"/></g><path d="M392.18 111.78c1.862-7.571-.551-18.412 6.56-23.823 4.074-3.1 15.148.396 15.887-6.54-9.608 5.697-1.94-11.424-.726-14.532 2.005-5.138 1.946-7.934 7.532-10.412 4.704-2.09 13.773-6.877 12.333-13.358 8.012 4.502 1.272 26.022 15.415 20.222 8.271-3.393 8.479.48 15.674 3.244 10.153 3.899 1.025-8.46.785-9.258-1.98-6.488 1.79-11.198.966-17.186-.83-5.995-5.741-11.671-9.27-16.31-3.977-5.235-7.5-10.27-7.928-17.12-.098-1.545 4.885-18.47 7.668-15.052 2.803 3.439 2.2 5.495 8.414 3.893 9.59-2.479 10.608 4.424 16.11 9.926 5.819 5.826 12.514 11.301 18.664 16.835 4.717 4.236 4.159 13.728 10.568 15.668 2.686-2.874 3.315-6.144 1.882-9.81 1.498 5.807 8.18 4.574 9.595 11.12 1.42 6.52-2.62 14.156-.662 21.695C527.382 83.007 550.543 84 566.885 94.03c4.055-5.476 2.563-10.588 9.797-13.547 8.648-3.535 15.064-.22 22.116 4.86 4.087 2.945 10.095 6.234 10.925 11.749.74 4.865-7.928 4.755-9.167 9.55 4.327 1.764 12.346.473 14.033 6.15 1.29 4.346 4.554 4.19 7.895 5.994 14.124 7.59 8.934 8.953 1.882 19.619 9.601 2.75-8.953 14.15-15.804 13.111-1.667-.253-18.516-5.404-19.684-1.9-1.129 3.36 5.988 9.121 4.671 14.953-5.495.052-10.964 6.157-3.204 8.551 12.981 4.016 26.956 16.22 38.393 24.225 4.51 3.16 26.139 3.58 25.555 11.411-.454 6.144-4.457 7.922.908 13.787 3.945 4.32 10.627 11.074 15.363 11.184 4.866.11 7.908 8.61 9.589 12.08 3.84 7.948 9.614 13.825 15.641 20.118 3.465 3.62 16.005 20.767 21.28 19.204 5.131-1.512 9.257 15.33 14.318 17.497 5.975 2.556 3.594 14.85 7.402 19.832 1.259 1.648 4.288 8.02 6.553 8.376 2.744.435 5.696-2.485 8.388-.921 5.456 3.172 3.62 8.42 10.646 10.062 6.624 1.538 13.832 11.444 21.144 14.227-2.453 5.58-9.907 8.11-12.022 13.884-2.297 6.273 14.85 14.324 17.335 18.885 3.776 6.955 11.891 6.929 7.837 17.024-1.207 2.997-4.561 6.26-4.658 9.64-.085 3.153 3.419 5.327 3.38 9.057-.131 10.588-2.621 12.236-11.179 14.266-7.356 1.745-9.309 11.483-19.423 11.633-9.751.149-11.64-12.73-17.725-13.572-4.035-.558-2.004 4.956-4.677 6.078-2.66 1.116-5.716 1.37-8.492 2.102-3.25.85-12.658 5.573-10.432 9.654 2.958 5.404 10.205 11.515 4.82 17.66-6.585 7.505-21.96-13.437-32.756-9.48-6.072 2.226-15.687-8.589-9.79-13.545 4.412-3.698 12.554-7.137 11.82-14.027-.674-6.403 1.823-15.868.448-21.318-.921-3.626-7.007-4.055-7.007-8.174 0-3.789 3.238-7.227 4.678-10.517-1.83.883-3.451.779-4.872-.305-.94-5.242 11.217-12.099 3.276-20.15-4.301-4.36-21.344-9.524-10.536-16.907-18.01-7.065-36.434-19.177-39.289-40.521-2.219-16.576 3.432-39.795-13.604-49.897-17.368-10.302-23.271-35.305-43.428-39.607-2.602-.557-37.155-10.698-25.58 2.044-8.13 1.135-5.723 12.703-9.343 16.349-1.421 1.44-9.563 1.596-12.807 4.515-5.021 4.529-6.96-.357-10.536-3.01-5.962-4.418-15.713-10.795-22.803-13.02-7.215-2.265-7.474 12.43-16.012 7.31-.623 12.84-16.031 21.78-23.479 30.674-3.438 4.107-8.31 1.836-12.04-2.05-4.146-4.327-.831-12.3 1.037-16.848 2.913-7.091 3.802-11.879 2.706-19.573-.656-4.593-5.184-12.482-4.62-16.492a27.028 27.028 0 0 1 4.425-6.351c2.375-3.977-.084-4.1.188-8.136.597-8.836 3.53-13.941-.927-22.395-6.28-11.924.193-30.05-19.963-24.51-2.407-.014-4.197.934-5.391 2.861-1.966 4.528-2.524.603-6.351 1.362-6.696 1.337-9.77-1.355-13.06-7.798-4.684-9.167 7.603-20.273 2.238-27.079-2.206-2.796-8.628-11.665-11.632-13.066-5.988-2.79-7.11 4.21-12.132 5.605-.318-1.563-.642-3.12-.967-4.677" style="fill-opacity:1;stroke:#fff;stroke-width:3.41061115;stroke-miterlimit:3.98288536;stroke-dasharray:none;stroke-opacity:1"/><path d="M392.18 111.78c1.862-7.571-.551-18.412 6.56-23.823 4.074-3.1 15.148.396 15.887-6.54-9.608 5.697-1.94-11.424-.726-14.532 2.005-5.138 1.946-7.934 7.532-10.412 4.704-2.09 13.773-6.877 12.333-13.358 8.012 4.502 1.272 26.022 15.415 20.222 8.271-3.393 8.479.48 15.674 3.244 10.153 3.899 1.025-8.46.785-9.258-1.98-6.488 1.79-11.198.966-17.186-.83-5.995-5.741-11.671-9.27-16.31-3.977-5.235-7.5-10.27-7.928-17.12-.098-1.545 4.885-18.47 7.668-15.052 2.803 3.439 2.2 5.495 8.414 3.893 9.59-2.479 10.608 4.424 16.11 9.926 5.819 5.826 12.514 11.301 18.664 16.835 4.717 4.236 4.159 13.728 10.568 15.668 2.686-2.874 3.315-6.144 1.882-9.81 1.498 5.807 8.18 4.574 9.595 11.12 1.42 6.52-2.62 14.156-.662 21.695C527.382 83.007 550.543 84 566.885 94.03c4.055-5.476 2.563-10.588 9.797-13.547 8.648-3.535 15.064-.22 22.116 4.86 4.087 2.945 10.095 6.234 10.925 11.749.74 4.865-7.928 4.755-9.167 9.55 4.327 1.764 12.346.473 14.033 6.15 1.29 4.346 4.554 4.19 7.895 5.994 14.124 7.59 8.934 8.953 1.882 19.619 9.601 2.75-8.953 14.15-15.804 13.111-1.667-.253-18.516-5.404-19.684-1.9-1.129 3.36 5.988 9.121 4.671 14.953-5.495.052-10.964 6.157-3.204 8.551 12.981 4.016 26.956 16.22 38.393 24.225 4.51 3.16 26.139 3.58 25.555 11.411-.454 6.144-4.457 7.922.908 13.787 3.945 4.32 10.627 11.074 15.363 11.184 4.866.11 7.908 8.61 9.589 12.08 3.84 7.948 9.614 13.825 15.641 20.118 3.465 3.62 16.005 20.767 21.28 19.204 5.131-1.512 9.257 15.33 14.318 17.497 5.975 2.556 3.594 14.85 7.402 19.832 1.259 1.648 4.288 8.02 6.553 8.376 2.744.435 5.696-2.485 8.388-.921 5.456 3.172 3.62 8.42 10.646 10.062 6.624 1.538 13.832 11.444 21.144 14.227-2.453 5.58-9.907 8.11-12.022 13.884-2.297 6.273 14.85 14.324 17.335 18.885 3.776 6.955 11.891 6.929 7.837 17.024-1.207 2.997-4.561 6.26-4.658 9.64-.085 3.153 3.419 5.327 3.38 9.057-.131 10.588-2.621 12.236-11.179 14.266-7.356 1.745-9.309 11.483-19.423 11.633-9.751.149-11.64-12.73-17.725-13.572-4.035-.558-2.004 4.956-4.677 6.078-2.66 1.116-5.716 1.37-8.492 2.102-3.25.85-12.658 5.573-10.432 9.654 2.958 5.404 10.205 11.515 4.82 17.66-6.585 7.505-21.96-13.437-32.756-9.48-6.072 2.226-15.687-8.589-9.79-13.545 4.412-3.698 12.554-7.137 11.82-14.027-.674-6.403 1.823-15.868.448-21.318-.921-3.626-7.007-4.055-7.007-8.174 0-3.789 3.238-7.227 4.678-10.517-1.83.883-3.451.779-4.872-.305-.94-5.242 11.217-12.099 3.276-20.15-4.301-4.36-21.344-9.524-10.536-16.907-18.01-7.065-36.434-19.177-39.289-40.521-2.219-16.576 3.432-39.795-13.604-49.897-17.368-10.302-23.271-35.305-43.428-39.607-2.602-.557-37.155-10.698-25.58 2.044-8.13 1.135-5.723 12.703-9.343 16.349-1.421 1.44-9.563 1.596-12.807 4.515-5.021 4.529-6.96-.357-10.536-3.01-5.962-4.418-15.713-10.795-22.803-13.02-7.215-2.265-7.474 12.43-16.012 7.31-.623 12.84-16.031 21.78-23.479 30.674-3.438 4.107-8.31 1.836-12.04-2.05-4.146-4.327-.831-12.3 1.037-16.848 2.913-7.091 3.802-11.879 2.706-19.573-.656-4.593-5.184-12.482-4.62-16.492a27.028 27.028 0 0 1 4.425-6.351c2.375-3.977-.084-4.1.188-8.136.597-8.836 3.53-13.941-.927-22.395-6.28-11.924.193-30.05-19.963-24.51-2.407-.014-4.197.934-5.391 2.861-1.966 4.528-2.524.603-6.351 1.362-6.696 1.337-9.77-1.355-13.06-7.798-4.684-9.167 7.603-20.273 2.238-27.079-2.206-2.796-8.628-11.665-11.632-13.066-5.988-2.79-7.11 4.21-12.132 5.605-.318-1.563-.642-3.12-.967-4.677" style="fill-opacity:1;stroke:#fff;stroke-width:3.41061115;stroke-miterlimit:3.98288536;stroke-dasharray:none;stroke-opacity:1"/><path d="M392.18 111.78c1.862-7.571-.551-18.412 6.56-23.823 4.074-3.1 15.148.396 15.887-6.54-9.608 5.697-1.94-11.424-.726-14.532 2.005-5.138 1.946-7.934 7.532-10.412 4.704-2.09 13.773-6.877 12.333-13.358 8.012 4.502 1.272 26.022 15.415 20.222 8.271-3.393 8.479.48 15.674 3.244 10.153 3.899 1.025-8.46.785-9.258-1.98-6.488 1.79-11.198.966-17.186-.83-5.995-5.741-11.671-9.27-16.31-3.977-5.235-7.5-10.27-7.928-17.12-.098-1.545 4.885-18.47 7.668-15.052 2.803 3.439 2.2 5.495 8.414 3.893 9.59-2.479 10.608 4.424 16.11 9.926 5.819 5.826 12.514 11.301 18.664 16.835 4.717 4.236 4.159 13.728 10.568 15.668 2.686-2.874 3.315-6.144 1.882-9.81 1.498 5.807 8.18 4.574 9.595 11.12 1.42 6.52-2.62 14.156-.662 21.695C527.382 83.007 550.543 84 566.885 94.03c4.055-5.476 2.563-10.588 9.797-13.547 8.648-3.535 15.064-.22 22.116 4.86 4.087 2.945 10.095 6.234 10.925 11.749.74 4.865-7.928 4.755-9.167 9.55 4.327 1.764 12.346.473 14.033 6.15 1.29 4.346 4.554 4.19 7.895 5.994 14.124 7.59 8.934 8.953 1.882 19.619 9.601 2.75-8.953 14.15-15.804 13.111-1.667-.253-18.516-5.404-19.684-1.9-1.129 3.36 5.988 9.121 4.671 14.953-5.495.052-10.964 6.157-3.204 8.551 12.981 4.016 26.956 16.22 38.393 24.225 4.51 3.16 26.139 3.58 25.555 11.411-.454 6.144-4.457 7.922.908 13.787 3.945 4.32 10.627 11.074 15.363 11.184 4.866.11 7.908 8.61 9.589 12.08 3.84 7.948 9.614 13.825 15.641 20.118 3.465 3.62 16.005 20.767 21.28 19.204 5.131-1.512 9.257 15.33 14.318 17.497 5.975 2.556 3.594 14.85 7.402 19.832 1.259 1.648 4.288 8.02 6.553 8.376 2.744.435 5.696-2.485 8.388-.921 5.456 3.172 3.62 8.42 10.646 10.062 6.624 1.538 13.832 11.444 21.144 14.227-2.453 5.58-9.907 8.11-12.022 13.884-2.297 6.273 14.85 14.324 17.335 18.885 3.776 6.955 11.891 6.929 7.837 17.024-1.207 2.997-4.561 6.26-4.658 9.64-.085 3.153 3.419 5.327 3.38 9.057-.131 10.588-2.621 12.236-11.179 14.266-7.356 1.745-9.309 11.483-19.423 11.633-9.751.149-11.64-12.73-17.725-13.572-4.035-.558-2.004 4.956-4.677 6.078-2.66 1.116-5.716 1.37-8.492 2.102-3.25.85-12.658 5.573-10.432 9.654 2.958 5.404 10.205 11.515 4.82 17.66-6.585 7.505-21.96-13.437-32.756-9.48-6.072 2.226-15.687-8.589-9.79-13.545 4.412-3.698 12.554-7.137 11.82-14.027-.674-6.403 1.823-15.868.448-21.318-.921-3.626-7.007-4.055-7.007-8.174 0-3.789 3.238-7.227 4.678-10.517-1.83.883-3.451.779-4.872-.305-.94-5.242 11.217-12.099 3.276-20.15-4.301-4.36-21.344-9.524-10.536-16.907-18.01-7.065-36.434-19.177-39.289-40.521-2.219-16.576 3.432-39.795-13.604-49.897-17.368-10.302-23.271-35.305-43.428-39.607-2.602-.557-37.155-10.698-25.58 2.044-8.13 1.135-5.723 12.703-9.343 16.349-1.421 1.44-9.563 1.596-12.807 4.515-5.021 4.529-6.96-.357-10.536-3.01-5.962-4.418-15.713-10.795-22.803-13.02-7.215-2.265-7.474 12.43-16.012 7.31-.623 12.84-16.031 21.78-23.479 30.674-3.438 4.107-8.31 1.836-12.04-2.05-4.146-4.327-.831-12.3 1.037-16.848 2.913-7.091 3.802-11.879 2.706-19.573-.656-4.593-5.184-12.482-4.62-16.492a27.028 27.028 0 0 1 4.425-6.351c2.375-3.977-.084-4.1.188-8.136.597-8.836 3.53-13.941-.927-22.395-6.28-11.924.193-30.05-19.963-24.51-2.407-.014-4.197.934-5.391 2.861-1.966 4.528-2.524.603-6.351 1.362-6.696 1.337-9.77-1.355-13.06-7.798-4.684-9.167 7.603-20.273 2.238-27.079-2.206-2.796-8.628-11.665-11.632-13.066-5.988-2.79-7.11 4.21-12.132 5.605-.318-1.563-.642-3.12-.967-4.677" style="fill-opacity:1;stroke:#fff;stroke-width:3.41061115;stroke-miterlimit:3.98288536;stroke-dasharray:none;stroke-opacity:1"/><path d="M392.18 111.78c1.862-7.571-.551-18.412 6.56-23.823 4.074-3.1 15.148.396 15.887-6.54-9.608 5.697-1.94-11.424-.726-14.532 2.005-5.138 1.946-7.934 7.532-10.412 4.704-2.09 13.773-6.877 12.333-13.358 8.012 4.502 1.272 26.022 15.415 20.222 8.271-3.393 8.479.48 15.674 3.244 10.153 3.899 1.025-8.46.785-9.258-1.98-6.488 1.79-11.198.966-17.186-.83-5.995-5.741-11.671-9.27-16.31-3.977-5.235-7.5-10.27-7.928-17.12-.098-1.545 4.885-18.47 7.668-15.052 2.803 3.439 2.2 5.495 8.414 3.893 9.59-2.479 10.608 4.424 16.11 9.926 5.819 5.826 12.514 11.301 18.664 16.835 4.717 4.236 4.159 13.728 10.568 15.668 2.686-2.874 3.315-6.144 1.882-9.81 1.498 5.807 8.18 4.574 9.595 11.12 1.42 6.52-2.62 14.156-.662 21.695C527.382 83.007 550.543 84 566.885 94.03c4.055-5.476 2.563-10.588 9.797-13.547 8.648-3.535 15.064-.22 22.116 4.86 4.087 2.945 10.095 6.234 10.925 11.749.74 4.865-7.928 4.755-9.167 9.55 4.327 1.764 12.346.473 14.033 6.15 1.29 4.346 4.554 4.19 7.895 5.994 14.124 7.59 8.934 8.953 1.882 19.619 9.601 2.75-8.953 14.15-15.804 13.111-1.667-.253-18.516-5.404-19.684-1.9-1.129 3.36 5.988 9.121 4.671 14.953-5.495.052-10.964 6.157-3.204 8.551 12.981 4.016 26.956 16.22 38.393 24.225 4.51 3.16 26.139 3.58 25.555 11.411-.454 6.144-4.457 7.922.908 13.787 3.945 4.32 10.627 11.074 15.363 11.184 4.866.11 7.908 8.61 9.589 12.08 3.84 7.948 9.614 13.825 15.641 20.118 3.465 3.62 16.005 20.767 21.28 19.204 5.131-1.512 9.257 15.33 14.318 17.497 5.975 2.556 3.594 14.85 7.402 19.832 1.259 1.648 4.288 8.02 6.553 8.376 2.744.435 5.696-2.485 8.388-.921 5.456 3.172 3.62 8.42 10.646 10.062 6.624 1.538 13.832 11.444 21.144 14.227-2.453 5.58-9.907 8.11-12.022 13.884-2.297 6.273 14.85 14.324 17.335 18.885 3.776 6.955 11.891 6.929 7.837 17.024-1.207 2.997-4.561 6.26-4.658 9.64-.085 3.153 3.419 5.327 3.38 9.057-.131 10.588-2.621 12.236-11.179 14.266-7.356 1.745-9.309 11.483-19.423 11.633-9.751.149-11.64-12.73-17.725-13.572-4.035-.558-2.004 4.956-4.677 6.078-2.66 1.116-5.716 1.37-8.492 2.102-3.25.85-12.658 5.573-10.432 9.654 2.958 5.404 10.205 11.515 4.82 17.66-6.585 7.505-21.96-13.437-32.756-9.48-6.072 2.226-15.687-8.589-9.79-13.545 4.412-3.698 12.554-7.137 11.82-14.027-.674-6.403 1.823-15.868.448-21.318-.921-3.626-7.007-4.055-7.007-8.174 0-3.789 3.238-7.227 4.678-10.517-1.83.883-3.451.779-4.872-.305-.94-5.242 11.217-12.099 3.276-20.15-4.301-4.36-21.344-9.524-10.536-16.907-18.01-7.065-36.434-19.177-39.289-40.521-2.219-16.576 3.432-39.795-13.604-49.897-17.368-10.302-23.271-35.305-43.428-39.607-2.602-.557-37.155-10.698-25.58 2.044-8.13 1.135-5.723 12.703-9.343 16.349-1.421 1.44-9.563 1.596-12.807 4.515-5.021 4.529-6.96-.357-10.536-3.01-5.962-4.418-15.713-10.795-22.803-13.02-7.215-2.265-7.474 12.43-16.012 7.31-.623 12.84-16.031 21.78-23.479 30.674-3.438 4.107-8.31 1.836-12.04-2.05-4.146-4.327-.831-12.3 1.037-16.848 2.913-7.091 3.802-11.879 2.706-19.573-.656-4.593-5.184-12.482-4.62-16.492a27.028 27.028 0 0 1 4.425-6.351c2.375-3.977-.084-4.1.188-8.136.597-8.836 3.53-13.941-.927-22.395-6.28-11.924.193-30.05-19.963-24.51-2.407-.014-4.197.934-5.391 2.861-1.966 4.528-2.524.603-6.351 1.362-6.696 1.337-9.77-1.355-13.06-7.798-4.684-9.167 7.603-20.273 2.238-27.079-2.206-2.796-8.628-11.665-11.632-13.066-5.988-2.79-7.11 4.21-12.132 5.605-.318-1.563-.642-3.12-.967-4.677" style="fill-opacity:1;stroke:#fff;stroke-width:3.41061115;stroke-miterlimit:3.98288536;stroke-dasharray:none;stroke-opacity:1"/><path d="M392.18 111.78c1.862-7.571-.551-18.412 6.56-23.823 4.074-3.1 15.148.396 15.887-6.54-9.608 5.697-1.94-11.424-.726-14.532 2.005-5.138 1.946-7.934 7.532-10.412 4.704-2.09 13.773-6.877 12.333-13.358 8.012 4.502 1.272 26.022 15.415 20.222 8.271-3.393 8.479.48 15.674 3.244 10.153 3.899 1.025-8.46.785-9.258-1.98-6.488 1.79-11.198.966-17.186-.83-5.995-5.741-11.671-9.27-16.31-3.977-5.235-7.5-10.27-7.928-17.12-.098-1.545 4.885-18.47 7.668-15.052 2.803 3.439 2.2 5.495 8.414 3.893 9.59-2.479 10.608 4.424 16.11 9.926 5.819 5.826 12.514 11.301 18.664 16.835 4.717 4.236 4.159 13.728 10.568 15.668 2.686-2.874 3.315-6.144 1.882-9.81 1.498 5.807 8.18 4.574 9.595 11.12 1.42 6.52-2.62 14.156-.662 21.695C527.382 83.007 550.543 84 566.885 94.03c4.055-5.476 2.563-10.588 9.797-13.547 8.648-3.535 15.064-.22 22.116 4.86 4.087 2.945 10.095 6.234 10.925 11.749.74 4.865-7.928 4.755-9.167 9.55 4.327 1.764 12.346.473 14.033 6.15 1.29 4.346 4.554 4.19 7.895 5.994 14.124 7.59 8.934 8.953 1.882 19.619 9.601 2.75-8.953 14.15-15.804 13.111-1.667-.253-18.516-5.404-19.684-1.9-1.129 3.36 5.988 9.121 4.671 14.953-5.495.052-10.964 6.157-3.204 8.551 12.981 4.016 26.956 16.22 38.393 24.225 4.51 3.16 26.139 3.58 25.555 11.411-.454 6.144-4.457 7.922.908 13.787 3.945 4.32 10.627 11.074 15.363 11.184 4.866.11 7.908 8.61 9.589 12.08 3.84 7.948 9.614 13.825 15.641 20.118 3.465 3.62 16.005 20.767 21.28 19.204 5.131-1.512 9.257 15.33 14.318 17.497 5.975 2.556 3.594 14.85 7.402 19.832 1.259 1.648 4.288 8.02 6.553 8.376 2.744.435 5.696-2.485 8.388-.921 5.456 3.172 3.62 8.42 10.646 10.062 6.624 1.538 13.832 11.444 21.144 14.227-2.453 5.58-9.907 8.11-12.022 13.884-2.297 6.273 14.85 14.324 17.335 18.885 3.776 6.955 11.891 6.929 7.837 17.024-1.207 2.997-4.561 6.26-4.658 9.64-.085 3.153 3.419 5.327 3.38 9.057-.131 10.588-2.621 12.236-11.179 14.266-7.356 1.745-9.309 11.483-19.423 11.633-9.751.149-11.64-12.73-17.725-13.572-4.035-.558-2.004 4.956-4.677 6.078-2.66 1.116-5.716 1.37-8.492 2.102-3.25.85-12.658 5.573-10.432 9.654 2.958 5.404 10.205 11.515 4.82 17.66-6.585 7.505-21.96-13.437-32.756-9.48-6.072 2.226-15.687-8.589-9.79-13.545 4.412-3.698 12.554-7.137 11.82-14.027-.674-6.403 1.823-15.868.448-21.318-.921-3.626-7.007-4.055-7.007-8.174 0-3.789 3.238-7.227 4.678-10.517-1.83.883-3.451.779-4.872-.305-.94-5.242 11.217-12.099 3.276-20.15-4.301-4.36-21.344-9.524-10.536-16.907-18.01-7.065-36.434-19.177-39.289-40.521-2.219-16.576 3.432-39.795-13.604-49.897-17.368-10.302-23.271-35.305-43.428-39.607-2.602-.557-37.155-10.698-25.58 2.044-8.13 1.135-5.723 12.703-9.343 16.349-1.421 1.44-9.563 1.596-12.807 4.515-5.021 4.529-6.96-.357-10.536-3.01-5.962-4.418-15.713-10.795-22.803-13.02-7.215-2.265-7.474 12.43-16.012 7.31-.623 12.84-16.031 21.78-23.479 30.674-3.438 4.107-8.31 1.836-12.04-2.05-4.146-4.327-.831-12.3 1.037-16.848 2.913-7.091 3.802-11.879 2.706-19.573-.656-4.593-5.184-12.482-4.62-16.492a27.028 27.028 0 0 1 4.425-6.351c2.375-3.977-.084-4.1.188-8.136.597-8.836 3.53-13.941-.927-22.395-6.28-11.924.193-30.05-19.963-24.51-2.407-.014-4.197.934-5.391 2.861-1.966 4.528-2.524.603-6.351 1.362-6.696 1.337-9.77-1.355-13.06-7.798-4.684-9.167 7.603-20.273 2.238-27.079-2.206-2.796-8.628-11.665-11.632-13.066-5.988-2.79-7.11 4.21-12.132 5.605-.318-1.563-.642-3.12-.967-4.677" style="fill-opacity:1;stroke:#fff;stroke-width:3.41061115;stroke-miterlimit:3.98288536;stroke-dasharray:none;stroke-opacity:1"/><path d="M2252.918 884.313c.054 2.702.682 1.573 2.339.569 1.584-.96 4.035-1.54 5.794-2.223 2.832-1.1 6.902-2.155 8.884-4.712 1.141-1.471-1.928-1.171-2.583-.978-1.78.526-3.354.76-5.177 1.071-1.953.333-3.761.296-5.768.722-.756.161-1.779.065-2.417.58-.675.544-1.056 1.834-1.76 2.36 1.674.812 1.511 1.267.687 2.61zm-8.96 1.72c1.332-.989 2.075-1.356 3.701-1.663.164 1.156.222 2.41-.482 3.005-.149.127-.747-.694-.944-.541-.715.557-1.41-.534-2.243-.833" style="fill-opacity:1;stroke:#fff;stroke-width:.5257113;stroke-miterlimit:3.98288536;stroke-dasharray:none;stroke-opacity:1" transform="translate(-12925.06 -3966.07) scale(6.48761)"/><path d="M2171.518 764.928c2.897-.074 3.899-2.64 6.333-3.582 1.083-.419.602 1.018.14 1.391-1.072.865-1.277 1.026-1.092 2.528.015.121.701 5.564-1.026 4.357-.653-.456-2.114-1.464-2.554-2.173-.637-1.021-.343-2.209-1.801-2.521m6.99-1.224c-.22-1.323.492-.438.86-1.512 1.05 1.343 1.499 3.288 1.37 4.968-1.662-.373-2.141-1.943-2.23-3.456" style="fill-opacity:.98823529;stroke:#fff;stroke-width:.5257113;stroke-miterlimit:3.98288536;stroke-dasharray:none;stroke-opacity:1" transform="translate(-12925.06 -3966.07) scale(6.48761)"/><path d="M2063.426 747.214c-.959.252.51 2.079 1.8.359a3.689 3.689 0 0 0-1.8-.36" style="fill-opacity:1;stroke:#fff;stroke-width:.5257113;stroke-miterlimit:3.98288536;stroke-dasharray:none;stroke-opacity:1" transform="translate(-12731.067 -3673.648) scale(6.48761)"/></svg>