<svg xmlns="http://www.w3.org/2000/svg" version="1.0" width="454.143" height="608.48"><path d="m190.158 176.54.072-.072.504.792.288.72.72.432.72.65.648.718.576.217.504.72.72.215h.144l-.288.72-.576.72.72.576.72-.072.288-.79.072-.722-.072-.07-.072-.793-.216-.72.072-.72-.288-.72-.576-.72-.72-.145.36-.72.72-.216.72-.288.792-.288.72-.72.72-.648.647-.72.792-.287.72-.577.145-.719.576-.792.143-.72.577-.793.792-.359.72-.577.288-.072.72-.143.72.071h.287l.72-.215.433-.72.144-.72-.36-.793-.72-.072.432-.72.216-.72.288-.719.144-.504.072-.793.36-.719-.792-.145-.72.433.72-.577.288-.72.72-.216v-.72l.072-.792v-.72l.72-.72.72-.504.792-.504.216.29v-.362l.072-.504.72-.36.792-.432.576-.792.72-.647.648-.72.072-.073.792.217.72.215.719.216.72.217.72.144.793-.073.72-.143h.072v.072l-.792.215-.792.072-.288-.072-.073.29.144.72-.72-.074-.431.72.719.361.217-.72.432.72h.143l.72-.289.289-.792.288-.576.288-.647.072-.072.432-.792-.144-.72.144-.72.648-.72.719-.145.72-.07.72.286.72.288h1.513l.792-.07h.43l.722-.074.792-.072.72-.215.72-.432.648-.792.72-.504.719-.433.792-.432.289-.36.359-.288.72-.504.216-.07.72-.218.793-.287.719-.288.792-.217.72-.503.72-.433.432-.719.36-.72.217-.793-.216-.72.72-.144.72-.143.432.071-.288.792.719-.359.289-.72.144-.72.72.215.72-.719.72-.073-.72-.07.792-.218.72-.07.792.287.719.215.72.29.72.358.073.072.36.72.432.721.07.792-.718.575-.72.432-.433.648-.504.792-.72.433-.72.144-.791.215-.72.144-.72.217-.792.288-.721.216-.287.792.144.72.216.72.432.792.504.72.719.72.72.288-.72.144-.215.215.432.721.216.72v.072l.359.576.144.072.145.071.359.721-.215.72v.072l-.216.791-.144.36-.792.577-.648.72-.361.72-.215.36-.072.071-.792.576-.361.72-.144.29-.431.791-.576.72.288.72.648.72.432.72.072.72.72.287.719.504v.073l.648.143v.72l-.792.576h.433l.144.792.792.648.648.144.792-.144.72-.288.719-.215.577-.217.576-.504.143-.288.649-.72.72-.359.07-.288-.142-.72v-.217l-.144-.72.287-.648.073-.719-.216-.72v-.649l-.144-.215-.72-.72-.36-.217-.216-.792-.505-.72-.215-.144-.144-.07-.144-.074-.36-.575-.288-.288-.504-.792v-.289l-.36-.792-.288-.359.144-.72v-.793l-.288-.215-.073-.216h-.071l.792-.145.504-.72.215-.215-.792-.36.792-.288.72.071.504-.144.72-.359.72-.36.792-.36.72-.433.793-.43.719-.217.72-.217.72-.072.72-.072.72-.359.793-.217.719-.287.72-.217.649-.288.144-.792.719.217-.36-.72-.144-.36.72.36.505.072.359.288.36.216.792.215.72-.43-.071-.722-.217-.72-.72-.288-.72.217-.503.071-.721.145-.648.216-.215.071h-.36v-.72l.072-.43-.216-.217-.505-.792.144-.72.36-.72.217-.72.792-.216.72-.505.43-.144.793.36.505.72.287.792.073.721.07.792.362.72.216.72.432.792.719.647.72-.359.793-.073.719.073.72-.36.72.144.72.143.792.361h.72l.72-.073h.504l.792.648.72.072.793.576.719.432.792.433.576.792.144.144.36.792.217.72-.432.72.144.792.144.288.359.792v.071l.72.721.72.143h.72l.793.146h.648l.719-.288.72-.073.792-.07.216-.073.72-.145.793-.143h.432l.719-.073.792-.072.72-.143.793-.288.792-.073.719-.07.72-.073.793-.073.79-.072h.72l.72-.072.793.072.72.072.144-.144.792-.144.72.288.72.216-.432.721.289.288.719.503.217.145.719.503.72.792.793.144-.792-.504.792.216.719.217.72.287.72.144.72.216.792.072.72.144.72.072.792.288-.648-.072.72.288.72-.216.792-.288.792.073.72-.145.432-.576.72-.575.792-.145.216-.07h.72l.72-.434-.72-.072.792-.648.72-.215.72-.288.792-.36.72.287.72-.07.792.07h.72l.72-.288-.72-.504-.72-.143-.792-.288h-.72l-.791.143-.721.217-.72-.576.792-.216.793.144.719-.289.72.145.72-.073.792-.575.72.36.792.143.72.072.72-.216.72-.07.792-.145.72-.073.72-.43.793.142h.719l.72.144.72-.216.792-.144.72-.07.72.07h.72l.792.144.72.072.72.144.792-.07.72-.074.72-.072.792-.07.72-.145-.647.792-.792.144-.721.071-.792-.07-.72.286-.792.65-.72-.074h-.72l-.792-.144-.72-.07-.72.07-.792.144-.72.145-.72.575.72-.43.72-.074.073.721-.721.144-.72.144-.072.72.432-.72.72.215.792-.215.72.72.36.72.288.792-.72.647h-.72l-.72.072-.792-.36-.576.072.72.72.072.144h.072l.72-.36.36.288h.216l.72-.43.792-.29.072-.719.72-.288.504.72.288.72.072.287v.576l.72.577.36.72-.072.503h.072v.072l.072.144.504-.792.216-.72-.144-.719.648.72.072.72.072.791-.36.577.288-.073.216-.72-.072-.792-.144-.72.792.144.577.145-.721-.577-.792-.07-.288-.506h.792l.792.145.72.504.72.65.648.718-.143.792v.217l.359-.793.36.072.216.721v.432l.072-.792-.576-.793.792-.288.72.145h.504l-.576-.72h.792l.72.503.432.72.72.65.792.575.432.143.144.073h.72l.792-.073.72.361.72.575.72.721.144.72-.72.431-.72.432-.792.433-.144.143-.504.72.72-.648.144.792-.792.577-.144.287-.072.504.072.144-.432.792-.36.72v.721l-.792.215-.72-.144h-.72l-.792.144-.72-.288h-.432l-.144.288.792.36.72.144.72.504.72.145.792.36.72-.648.792-.073.072.721.72-.72.792-.72h.216l.792-.073.72-.144.72.217.792.215.72.145.216.071.432-.43.72-.506.792.073.72.071.72.288.72.288.289.072.07.073.72.72.577.72.576.288.72.288.792.36.72.36.72.576.289.215-.72-.719-.721-.288-.792-.504-.721-.432.72-.072.722.431.792.432.72.36.72.432.72.433.792.431.72.432.648.721.36.287.792.647.72.648.72.72.432.721.72.288.505.72.648.72.504.792-.145.72.072.72v.215l-.072.721-.288.576-.504.72-.288.791v.792l-.145.72-.071.72v.576l-.433.72-.144.073v.144l.72-.289.216-.432.073-.792.07-.72.36-.72.505-.792.72-.648.72-.144.36.144.72.432.217.216.72-.072.72.144.792.576.144.217.72.575.793.721 1.44 1.151.288.721.43.72.794-.433.72.36.72.504.72.72.36.72v.576l.072.072.072.72-.145.792-.216.72.07.72-.143.792-.504.72v-.072l.72-.432.217-.792.07-.72.218-.792.359-.72.072-.503.432-.145.072-.144.792-.144.72.072.72.145.792.072.792.216.576-.07.72.142.72.216.793.144.72.216.72.216.72.288.793.216.72.36v.792l.217-.36-.217-.792.072-.36v-.648l.72-.43h.72l.72-.146.792.072.793.073.72.071.72.144.72.288.216.216.577-.072.359.72.433-.504.79.288.434.072.792-.072-.504-.216-.721.072-.72-.288-.792-.648.72-.144h1.225l.72.073.72.071.792.144.576.072.72.216.72.144.793.072.72.144.72.144.72.144.72.36.793.576-.145.72-.287.72v.721l-.648.792-.433.72h.145l.72-.577.217-.36.432-.792v-.72l.36-.72.79-.288.578.072.718.144.792.504.722.36.792.576.216.072.72.217.793.215.792.216.72.072.432.072.792.36.36-.216.792.504.792.72.575.72.72.648.648.72.793.576.718.432.434.72.145.072.144-.216.72.36-.432.792-.288.72.216-.216.288-.648.72-.287.576.72.72.431.648.792.216.721.144.72v.72l-.792.647.36-.144.72-.432v-1.584l.288-.719.72.431.433.72.144.72.577.72-.145.72.504.792-.072.792-.216.72.646-.648.506-.72.36.792.359.72.433.792-.288-.792-.36-.792-.218-.792-.286-.72.286-.792.792.576.722.576.792.72.575.792.36.72.072.72v.864l-.144.72.072.792.07-.576.145-.72.576-.864.072.792.072.72-.072.792v.72l.072.792v.72l.07.792.29.792v.792l.287.792.433.792.288.72.144.72.432.72.288.792v.792l.504.72.145.792.288.72.288.792-.576.792.647-.216.72.792.433.792.432.72.72.576h.72l.793.072.792.144.792.216.72.36.288.216.504.72.215.72.074.864-.074.72-.286.792-.792.36-.36.072-.72.288.359.072.72-.072h.864l-.144.72-.72.504-.216.072-.721.72-.792.576-.72.36-.36.72-.72.72-.721.504-.431.792-.866 1.44-.792.792-.646.792-.72.288-.792.072-.793.576-.575.792-.288.432-.432.288-.794.288-.503.36-.576.864-.287.792-.721.72-.504.792-.72.648-.65.792-.573.72-.145.792v.792l-.216.792-.792.72-.72.216-.216.216.07.792-.36.792-.718.504-.792-.144-.721-.576-.792.432-.792.216-.792.432-.792.288-.72.144-.722.216-.07.216v.144h.216l.792-.144h.792l.792.072.72-.216.72-.072.433.72-.216.72.792-.576.72-.072.72-.072.792-.36.792-.432.72-.432.793-.504.216-.072.72-.144.792-.288.72-.72h.793l.72-.504.647-.72.72-.36.792-.432.145-.792.72-.072.864.216-.071.792.07.72.073.792-.218.792-.07.72.216.792.36.72.72.792.144.792-.36.72.288.288.648-.144.72.432.792.288.289.792.719-.216.72-.36.793-.072.792-.216.72-.144.433.144.72.504.144.792.145.864v-.792l.576-.72.79-.144.793-.144.792-.504.72-.432h.72l.72.36-.502.72-.36.792-.432.72-.073.72-.431.864-.361.72.217.792.07.72-.358.72.07.144.073.072.36-.432.216-.72.217-.792.432-.72.504-.792.216-.792.288-.72.576-.72.72-.288.72-.145.72-.216.576-.792.503-.72.722-.792.72-.792h.792l.288.432.576.792.72.648-.071-.72.144-.792.72.072.72-.144h.793l-.648-.288h-.792l-.722.072-.718-.432.144-.72.72-.216.72-.072.216-.72-.071-.072.504-.72-.433-.792.145-.72.576-.792.72-.216.504-.792.72-.36.72.648.72-.576.72-.36.72.36.289.504.793-.648.719.216.288.792h.792l-.575-.72.504-.792-.072.792.792-.576.217-.144.792.36-.217.792.792-.072.072.792.576-.72.432.72.72-.576.217.792-.217.72.503-.792.792-.432-.143.792.72.144.215.72.289-.792.793.432-.721.792.72.504.792.144.792.072.72.072.72.288.145-.72.72-.504-.36.72v.72l-.287.72.792-.288.72.072-.144.72.504-.288.648-.72-.29.72.36.72.793-.36-.144.72.72-.144.792-.504.145.72-.072.792h.72l.719-.648.578.792.719-.576-.647.72-.36.72.503.72v-.72l.722-.504.432-.792.288.792-.504.72.07.72-.07.792-.144.72.79.072.434-.648-.145-.72.72-.72h.793l.72.144v.792l.288.144v-.216l.36-.72.72-.36-.434.72.146.72.72.36.432.792-.287.72.72.144.792-.432-.36.72.792-.144-.216.72.72.216.072.792-.576.72-.36.72-.791.576-.721.216.72.504.145.72v-.72l.72-.72.72-.72.72.144.36.72.145.72-.576.792-.792.144-.504.72-.648.576.72-.072-.503.72-.288.792-.072.72-.361.72-.143.72.504.72-.72.72-.72.576-.072.72.216.072.143-.072.073-.72.719-.216.649-.72.72-.648.792-.576.288-.72.216-.72.072-.792.288-.72v-.72l.576-.144.216-.36.72-.072.792-.36.72.216-.071.72-.648.72-.72.792-.792.216-.144.72.79-.144-.143.72.576-.288.72-.216v-.216l.216-.72.72-.648.72.144.72-.576.72-.576.793.216.72.216.289-.72.72.504v-.144l.359-.72.792-.072.72.216.72.144.793.432.72.36.793.288.72.432.72.288.792.576.72.576.72.072.504.72.72.288.72-.144.649.576.792.144 1.439.432.217-.288-.648-.72.72.072.792.288h.072l.72.432.576.72h.145l.72.288.792.144h.72l.72.576.79.648v-.504l-.07-.792.72.072.72.072h.793l.72.072.793-.072.359.144.72-.144h.792l.72-.072.793-.144.72.216.792.072.792.144.719.36.433-.072.72.144.649.432.719.504.72.648.72.36.792.576.722.504.72.432.72.36.792.576.72.648.72.648.72.144.648.72.504.72.793.504.72.648.72.576.72.36.792.432.288.72.504.72.72.504.865 1.44.576.792.647.72.72.576.648.792.79.288.146.504.36.792.72.72.72.288.72.288.793.36.72.648.216.792.144.432.72.576h.36l.72.144.72.144.722.576.647.792.72.36h.936l.72.072.793.072.72.216.72.144.72.072.792-.144.72-.072.72.144.722.288.79.216.794.288.72.216.792.504.504.504.36.72.216.72.359.792.36.792.144.72.217.792v.792l.144.288.145.792.287.792-.071.792v.72l-.288.792.792.504v.72l.43.72v2.448l.146.216-.071.792.145.792.359.792-.145.792-.433.72.793-.576v.72l.216.72-.144.72-.072.72-.144.792-.072.72h-.72l-.144.144.719.288-.433.792-.215.792-.071.576.504.72-.073.792-.504.792-.144-.144-.072.216v.072l.145.072-.288.72-.36.792-.071.72-.721.432.072.792-.36.72-.36.72-.215.72-.504.792-.217.72-.071.144-.576.792-.504.792-.504.72-.648.72-.721.432-.648.72-.574.72-.793.504-.505.72-.215-.216-.576-.504-.144.792-.792-.36.504.72h.432l-.72.72-.648.72-.647.792-.576.72-.792.576-.72.432-.72.792-.504.792-.648.72-.504.144-.721.144-.791.36-.721.288-.792.432-.72.432-.792.72-.72.216-.072-.72-.72-.576-.072.288v.36l.072.144.647.504-.29.792-.357.504-.72.216-.792-.432.144.432.792.648-.432.792-.721.792-.36.72-.791-.072.432-.72.288-.792-.433.792-.791.576.359.792-.72.36h.287l.792-.216-.647.72-.432.792-.36.72-.29.36-.358.576-.36.72-.432.72-.432.72-.647.72-.576.792-.65.72-.718.72-.36.72-.575.72-.722.504-.72.792-.72.648-.72.648-.72.216-.792-.216.288-.792v-.72l-.288-.792-.72-.432-.721-.648-.36.792-.287.72-.72.072-.504-.792.144.36.36.72.07.072.722.144v.72l-.576.792h-.072l-.72.36.576.792-.793.36-.575.72v.792l-.72-.432-.216.72-.288.72-.145.792v.144l.215-.72.722.144-.072.792.072.72-.722.648-.72-.72.577.792-.144.72.216.72.288.72-.504.72.72-.648.504-.792-.146.792-.143.72-.36.72-.29.72.074.36-.288.72-.216.72-.144.72-.36.792-.072.72.144.792.07.72.074.72v.72l-.145.72-.071.72v.792l.07.792v.72l.072.72v1.728l.289.72.144.792-.287.504-.36.72-.288.72-.145.72-.504.792-.071.72-.504.72-.217.72-.216.792-.217.72-.36.72-.143.72-.071.792-.29.72-.214.72-.433.792-.072.72-.072.792.072.72-.072.72-.071.792.288.72-.36.72-.72.648-.792.576-.72.144-.721.72-.575.721-.433.504-.504.72-.288.791-.288.65-.288.72-.216.791-.144.72-.145.791-.071.721-.073.791v2.953l-.071.721-.072.72-.36.792-.432.72-.432.72-.217.072-.72.215-.72.36-.073.073-.503.72-.36.72-.575.72-.072.288-.216.721-.288.72-.504.72h-1.08l.504.721-.36.72-.505.72-.503.791-.72.432-.721.722-.72.288-.72.216-.72.72-.072.792-.36.72-.792.721-.36.72v.072l-.145.72-.575.72-.36.791.36.722-.144.646-.073.793v.791l.146.721-.216.721-.722.288-.792.36-.72.287-.72.145-.72.143-.791.146-.721.143-.72.29-.721.431-.792.648-.721.72-.72.576-.143.72.144.72.719.433-.792.288-.646.72.072.791-.576-.36-.792-.144-.72-.144-.721-.07-.792-.147-.72-.07h-.72l-.36.07h-.721l-.721-.07h-.792l-.72-.218-.646-.792.216-.287.432-.79.432-.723-.72.073-.72.144-.72.505.359.72v.144l.36.145.072.143-.36.72-.72.146h-1.512l-.721.288-.792-.216h-2.232l-.72.216.289-.577h.719l.72.29h.72l.793-.147-.145-.144-.72-.503-.72-.577h-.72l-.721.073-.72.431-.791.361-.721-.434-.72-.504-.792.434-.721.143-.72.073-.792.646.433.722-.145.72.72-.36v.791l-.72.146-.72.071-.072.072-.792.071-.72-.432-.722.505-.792.72-.72.288-.791.503-.72.144-.72.36.144.721-.144.721-.721.071-.72-.433-.792-.215-.792-.145-.72-.144-.72.071-.794.29-.72.215-.72.576.72-.217-.72.792-.72.287.145-.287-.216-.72-.72-.072v.145l-.218.431.146.145.072.217-.721.143-1.44.576-.791.433-.72.287-.794.434-.718.72-.433.72-.792.433-.721.575-.72.36-.72.36h-.072l-.792.288-.72.216-.648.36-.792.504-.72.504-.72.72-.576.72-.216.145.72.071-.287.721-.721.504-.144.072-.576.72-.721.503-.647.721.144-.72.504-.72-.72.07-.72-.144-.792-.288v.72l-.145.792-.72.072h-.72l-.72-.504v.792l.72.29h.72l.43.575.723.216-.722.72-.431.72-.432.721-.792-.145-.721.287.72.146.72.216-.287.72-.216.433.072.72-.433.792-.72.143-.216-.719-.288-.72.072.72.144.72-.144.72.72.575.145.072.359.577-.36.72-.36.791-.071.505.072.72.72.433-.504.72v.72l.288.793-.36.72.648.792-.721.288v.72l.145.791-.647.72.287.72-.36.793.073.721.216.72.07.791-.431.721.072.721-.36.791-.216.721-.36.72-.361.791-.286.721-.36-.288v-.145l-.433-.719.217.792v.503l.216.72-.72.433-.721.288-.72.504-.72.432-.792.504-.72.577-.721.576-.72.72-.72.791-.648.72-.504.722-.216.216-.647.72-.504.72-.505.72-.432.792-.36.721-.432.503-.36.72-.288.721-.287.576-.36.721-.288.791-.288.721-.36.72-.432.72-.504.792-.576.721-.432.72-.576.791-.576.721-.145.217-.432.72-.65.72-.645.72-.72.72-.721.793-.72.646-.792.576-.72.648-.792.575-.72.576-.721.433-.72.36-.72.36-.721.36-.72.72-.575.72-.721.72.288-.72v-.72l.144-.793-.36-.72.72-.07.722.574.792-.72.72.071.72-.576.647-.72.79-.432.075-.72.718.145.792-.434.578-.72.214-.792.073-.719v-.792l.719-.433.792-.145.218-.72.288-.72.792-.433.72-.288.433-.719.215-.792v-1.512l.289-.722.719.576v-.288l.289-.719-.072-.792-.792-.36-.576.721-.72.288-.721-.218-.647.722-.216-.722-.505-.72-.72-.359-.287-.792v-.72l-.577.215-.071.722.216.72.576.792.216.792-.72.576-.288.72-.216.72.07.72-.143.792v-.72l-.432-.72-.217.72v.791l-.071.721-.792.288-.072.72.144.72-.792.216-.72.504-.071.792-.721.072-.432-.143-.721.358-.792.648-.215.72-.073.792-.36.72-.72.576-.72.648-.287.72.72.792-.792.504.432.72.72.072-.071.72-.721.506-.72.72-.36.72-.432.791-.287.72-.29.721-.215.792-.575 1.44-.433.791-.433.72-.432.722-.576.791-.72.647-.792.65-.72.575-.721.575-.72.721-.72.575-.792.505-.72.646-.288.792-.218.721-.215.72-.72.72-.792.72-.288.722-.216.72-.72.36-.792.432-.72.72-.504.72-.721-.07-.071-.723-.721.506v.791l-.72.36-.792.36-.576.215-.72.216-.721.433-.792.217-.72-.217-.648-.36-.72.072-.72-.072-.647-.719-.576-.073-.72-.072-.721-.216-.72.073-.721.143-.792.288-.72.433h-.144l-.792.287-.72-.216-.721-.288-.071-.72-.217-.072-.72-.216-.792-.143-.72-.288-.721-.216-.791-.36-.577-.792-.72-.72-.72-.434-.432-.07-.721.07-.792-.07-.72.07-.792-.07-.792.216-.72.143-.072-.216-.287-.43-.361-.723-.575-.792-.72-.72-.793-.504-.504-.792-.647-.72-.288-.72-.145-.433v-2.16l.216-.719.145-.72-.071-.577.432-.72-.072-.72.504-.793.72.072.72-.432.289-.72.216-.793-.576-.72-.144-.719v-.792l-.145-.72-.216-.722-.072-.432-.145.576v.793l.073.72.144.72.07.791.218.72-.072.793-.504.72-.792-.072h-.721l-.144 1.441-.216.791-.36.721-.215.792v.72l-.145.791.07.72.434.722.216.646v.938l.504.646-.071.721-.073.36-.144.36-.36.287-.791.144.07.072.505.72-.144.792.359.722.72.432.36.646.72.576.793.288.72.288.792.433.792.36.72.503.72.65.648.357.72.576.72.648.505.792.504.72.359.72-.215.722-1.152 1.438-.433.792v.072l-.216.432v.721l.072.792.36.721.432.792.576.72.72.72.792.36.72.071.793-.36.215.288v.072l.289.792-.073.72.145.72v2.232l-.145.792-.647.72-1.008 1.44-.433.72-.504.792-.36.72-.575.792-.72.722-.721.72-.647.72-.504.791-.288.721-.072.721v.72l-.72.72-.792.503-.721.505-.72.287-.647.36-.721.432-.72.288-.792.36-.72.144-.721.36-.792.216-.72.146-.72.288-.792.288-.72.358-.792.072-.72.144-.72.146-.792.215-.721.073-.721.288-.792.287h-.72l-.72.144-.144.073-.72.071-.72.144-.792.144-.72.146-.792.071-.72.144-1.44.288-.792.072h-.72l-.72.144-.792-.072-.72-.07-.791.216-.721.071-.72-.145h-.792l-.72-.216-.72-.144-.72-.433-.576-.792h-.72l-.791.288.503.72.216.792-.432.721.072.721.144.791.72.144.792.217.72.72-.72-.072-.792-.216.648.792.505.72-.073.72-.144 1.44-.288.72-.287.146-.792-.217v.721l-.145.792-.072.071v1.513l-.72.72-.072.72.217.791.719.576.576.721-.216.792.72-.287-.36.72-.288.72-.36.72-.72.433-.72.36-.792.503-.72.288-1.152.575-.72.433-.792.071h-.72l-.72.072-.792-.072-.792.146h-1.44l-.792-.577-.72-.36-.72-.216-.792-.359-.72-.288-.792-.36-.72-.144-.72-.287-.792-.146-.72-.288.72.072-.215-.719-.792.431-.721.073-.792.646-.288 1.44.288 1.44.216.72.217.792.215.72.648.792-.072.72-.144.722.289.792-.145.792-.288.72.072.72.288.503.288.433.72.576.72.144.72.216.72.145.792.144-.648.72-.216.792.72-.07.792.07.72-.216.72.072.72-.432v-.72l-.72-.433-.72-.216.72-.216.793-.359.719-.36.72-.36.72.432.36.72.505.792v.721l.07.72.073.793-.072.791-.144.72-.36.72-.792.217-.72.217-.72.071-.72.144-.648-.719-.144-.722.144-.792-.72-.575-.791-.36h-.721l-.72.144-.792.504-.72.576-.72.65v.791l.72.143.72.36.72.432.792.217.72.216.72.432-.72.432-.72.36-.72.288-.792.29-.72.574-.792.72-.072.216-.072.792-.648.72-.576.722-.36.718-.071.792.143.721.36.721.289.792.07.721-.431.72.288.791.288.72-.576.721.073.793-.792.43-.721.65-.648.72-.215.72.359.72.72.575-.287.721v.144l-.721.145-.72-.217h-.36l.073.146-.721-.073-.215-.215-.721-.074-.72.362-.576.287-.792.36-.288.72-.72.504-.791.144-.721.072-.72.503-.431.721-.36.792-.361.721-.648.72-.288.72v.791l-.432.721-.576.792-.288.721-.071.071-.073.792.073.721.215.792.289.72.288.72.575.721.576.792.792.36.72.503.576.721.72.575.72.721.72.576.792.144.72-.072.72.072.792.144h.792l.72-.216.72.216.792.721.217.72.287.791v1.441l-.144.721-.287.791-.361.793-.792-.074-.72.577-.72.36-.72.071.649.072.719-.36.792-.359.72-.073.289.793.43.72-.72.36-.143.72-.792.216-.432.792-.792.576-.36.721-.792.647-.72.287-.648.721-.72.575-.791.433-.721.576-.288.721-.575.721-.721.718-1.007 1.441v.72l-.217.792-.504.72-.288.721.72-.649.36-.719v.72l-.071.791-.073.792-.144.721v1.441l-.072.718-.144.792-.648.721-.36.36-.792.504-.72.36-.72-.287-.72-.72-.36-.649-.648-.72-.216-.576-.576-.289.505.29.215.647.216.216-.072.792-.72.143-.72.074-.432.143-.288.145-.071.143.503-.07.144-.072.145-.145.359-.07h1.584l.432.72.72.431-.575.721-.792.287-.721.433-.72.647-.432.721-.432.72-.144.72-.071.791-.073.722.144.72-.288.792-.575.72-.433.72.072-.144.72-.72.72.432.072.72.36.721.288.792.288.72.433.72.144.72-.721.36h-.792l-.72-.216-.72.215-.792.504.216-.07.72-.218.72-.07.72.72.72-.504.72.143.577.792.43.721.433.721.504.72.576.792.72.72.576.721v.792l-.071.143-.217-.36-.287-.215-.505.072-.648-.145h-.936l-.72-.144-.72-.432-.36-.072-.792.216-.72.36-.143.792-.288.72v.288l-.073.072-.071.143-.721.433-.792-.287-.72.575-.216.071-.72.361-.72.504-.72.504-.72.144-.792.217-.72.358.72.288-.36.721.145.792-.073.721-.071.72-.29.72.073.721-.072.792.144.72.289.792.144.72-.073.791-.071.721-.721.575-.72.361-.791-.288-.792-.073-.721-.07-.792-.36-.72-.216-.72-.216-.791-.505-.721-.647-.72-.648-.143-.72.144-.72.719-.504.792.216.217.72-.648.72.792-.504.144-.72.216-.793.792.433.144.721.144.792-.433.72.72-.648-.143-.792-.144-.72.07-.72.722-.504.719-.36.792-.647.217-.792.43-.722-.143-.719-.72-.216-.72-.433v.648l-.72.576-.72.576-.792.647-.431.72-.65.721-.718-.504h-.721l-.72.216.72.288.505.72-.792.072h-.721l.289.792v.72l-.721-.36.577.792.719.217.288.72h-.792l-.72-.433-.791-.287-.721-.505-.72-.287-.72-.36-.503-.72.719-.145.72-.144.793.36.72.575-.361-.72-.215-.72-.721-.36-.287-.72-.144-.792.07-.72.793-.576h.72l-.287.72.719-.216.72-.434.648-.719.577-.72.792.216h1.44l.792-.216.792-.433-.648-.647h-1.513l-.72.144-.72-.144-.72.144-.792.504-.216.721-.792-.434.36-.72-.72.361h-.791l-.721-.146-.071.722v.72l.504-.72.72.647-.65.72-.791.721.217.72.288.792-.576.72-.721-.432.144.72-.72-.144-.36-.722.288-.792-.792-.504-.72-.504.72.216.288-.719.36-.72.432-.72.433-.792h.719l-.72-.146-.791.361.07.792-.358.72-.721-.504-.648.72h-.792l-.071-.72.215-.72.073-.72-.721-.145.433-.792-.217-.72-.648-.792-.144-.72.576.72.72-.145.72.576.72-.36.505-.792.72.071.36.721.719-.144-.143-.792-.361.792-.288-.72.217-.72.288-.793.719.576.433.792.719.648v.72l-.287.72-.721.36-.576.72.72-.432h.72l.793.071-.432-.72.215-.792-.071-.72-.432-.36-.721-.72.217-.72.575-.72-.143-.722-.361-.719-.72-.432-.72-.722-.792-.143-.72-.36-.72-.647-.215.216-.721.576.72-.072.793.288.719.288.72.143.72.792.792.361-.504.72-.72-.073-.72-.287-.791-.359-.721-.072-.792-.504.649.72.792.433-.144.792h.719l-.72.432-.143.72-.432.721-.216-.72-.288-.72-.144-.72-.433-.793.216.72.217.72.144.792.288.792-.144.721-.721-.505-.792-.432-.288-.72.073-.72.719.647-.288-.792-.72-.72.433-.792-.792.288-.721.288-.288-.722-.72-.143.432-.72-.792-.722.073-.72.792.504.719.721.576.721-.288-.792-.431-.72-.432-.793.07-.72-.718-.72-.721.576-.575-.792-.72.216-.29-.72.074-.72-.721.07.072-.719.72-.288.792.072.72-.217.072-.72-.071-.72.648-.72.719.504-.288-.722-.72-.216v-.718l.145-.72-.504.645-.217.721-.071.721.144.792-.577.72-.72.144-.72-.72-.432-.72-.071-.792-.217-.72.648.72-.216-.72.72.358.793-.07-.792-.217-.721-.432.289-.792-.721.576-.792-.287-.144-.72-.143.72-.793-.217-.72-.72-.791-.434.576-.792.719-.07h.792l.72.647.72.215.792.361.72-.072-.72-.145-.792-.504-.72-.144-.36-.72-.792-.576.505-.648.719.504.144.145.72.072.793-.145-.721-.216-.071-.216.287-.72-.72.72-.72-.504h-.792l-.36-.792.72-.433.72-.43-.72.214-.72-.215-.071-.792.792-.505.719-.216.72.288.793.72.792.576-.433-.72-.72-.433-.216-.72h-.792l-.72-.575-.072-.72.433-.793.792.358-.577-.358-.215-.792-.288-.72.215-.722.792-.07-.72-.072-.503.72.07.72-.502.791.144.721-.073.721-.504.792-.72-.575-.143-.72-.217-.793-.071-.72-.504-.722.144-.719-.073-.72-.432-.72.72-.793.72-.288.792.072-.143-.144-.721-.072-.72.216-.504-.792.217-.72.719-.72.72.432.793.288-.504-.72.07-.722-.72-.07-.36-.722-.718.074-.648-.793-.72-.288-.721-.72-.792-.36.72-.72.72.216.793.72.575.72-.36-.792-.288-.72.72-.072.793-.07.719.358.72.071.72.146.792.216.144.792.792-.433.72.36.072-.72-.72.071-.72-.575-.72-.648v-.792l.72.576h.792l.72-.145h-.791l-.792-.504-.361-.72-.575-.072-.721-.72.144-.72-.432-.792.217.72-.217.792.144.72-.72.504-.72.072-.72-.359-.72.071-.792-.216-.72.288-.791.072-.72-.288.215-.72h.72l-.432-.722.72-.215.793.288-.144.792.719.216.72.145-.72-.36.576-.792.792-.144-.792-.072-.72.216-.72-.577-.143-.718-.721.143.073-.792.576-.72.648-.72.719.36.144-.722.72-.143-.216-.72.288-.722-.72-.43h-.72l-.72-.722-.504-.72h-.72l-.791-.072-.073.721.72.504h-.72l-.72-.072-.72-.576-.72-.07-.792-.36-.504-.72.288-.722.073-.792-.432.721-.721.792-.72.144-.791.288-.792.432-.073.721.72-.72.793.647.359.72-.72.792-.72-.217-.647-.792-.504-.719-.073-.792.36-.72.72-.647.72-.433.145-.722.719.073.36-.72h.72l-.72-.36.288-.793.72-.07.72-.793.144-.72v-.793l-.504.792-.72.65-.72-.65.72-.43-.792-.218-.287-.72h.719l.792-.288.72-.576.72.145.72.576.793.36-.433-.72.504-.793.72.072.72-.072v.72l.72.36-.576.791.72.361v-.72l.648.72-.288.72-.72.648-.791.287-.721.146h.72l.72-.217.792-.36.577.72.719.146-.72-.72-.143-.794.72.288.719.721v.72l-.36.72-.36.721.072.72.72-.36.217-.793.215-.718.72-.72.072-.722.144-.72.217-.793-.432.721-.29.721-.502.792.07-.72.145-.793-.144-.72-.288-.72.288-.72.144-.72.504-.72.792-.649.72-.216-.791-.216-.721.432-.72.504-.072-.72.073-.719v-.792l.648-.792.576-.72.792.216.719.43.72.362h.793l.07-.434-.574-.07-.72-.073-.792-.577-.721-.504-.72.504-.791-.358.719-.793-.287-.72-.361-.72.577-.432.719-.145.793-.432.719-.504.577-.792.719-.576-.071-.72.07-.72.362-.793-.288-.72-.144.72-.721-.216-.792-.432-.648-.72-.72-.145-.791-.36-.288-.217-.217-.718.72-.578-.215-.792.36-.719.432-.72.216-.145.72-.216-.72-.216-.721-.145.217-.504.288-.792-.217.073-.72-.649-.431-.72.07-.792.433-.72.577-.72-.288-.793.288-.72.719-.216v-.937l-.792-.647-.215-.72.144-.792-.36-.72.287-.722.72-.07.793.432.215-.287-.648-.146-.575-.72-.576-.719-.145-.792.72-.289.72-.215.36.792.432.72.36.72h.144l-.144-.505-.36-.792-.071-.72-.073-.79-.144-.074-.071-.72-.36-.792-.721.577-.72.07-.72-.433v-.792l.504-.719.648-.72.72-.145.793-.36.288-.72.144-.793-.361-.79v.79l-.071.721-.504.792-.721.36-.72-.288-.504-.719-.648-.649-.792-.143-.72.72-.072.72-.071.72-.577.792-.72-.072-.791.288-.72.072h-.073l-.72-.217-.72-.575.432-.72.72-.289.145-.72-.361.792h-.648l-.792-.144-.72-.72v-.722l-.216-.718-.36-.792-.432-.72-.288-.722-.216-.792.577-.72-.217-.72.144-.72.073-.289.144-.792.287-.72-.144-.719-.072-.72v-.793l.145-.72-.073-.433.288-.719-.431-.722.575-.72.72-.576.793-.359-.144-.433-.216-.792.36-.72.288-.72.144-.72-.073-.793.145-.216-.145-.792-.071-.72-.073.36-.215-.72-.36-.793-.361-.72-.36-.72-.36-.792-.216-.576h-.215l-.29-.72-.287-.72-.215-.793-.216-.359v-.79l-.073-.723.289-.792v-.72l-.145-.719-.432-.793-.504-.719-.576-.722-.36-.792-.215-.72.504-.72-.145-.72-.647-.793.144-.72.503-.792.792.504.72-.143.72-.288.433-.72.07-.722-.07-.792v-.72l-.216-.792-.217-.072.217-.792.36-.72.144.72.719-.144v-.792l.288-1.44.144-.792.216-.646-.071-.722v-.72l.07-.792v-.792l.577-.792.577-.72v-.719l-.432-.793-.145-.72.792-.648.144-.72.36-.793v-.216l.073-.43.575-.794.649-.719.072-.722v-.936l.215-.792.288-.719.073-.36.144-.792-.144-.72v-1.514l.36-.504-.144-.72-.29-.79.29-.72.432-.723.144-.792.07-.07.074-.722.36-.72.792-.576.07-.792.145-.792-.575-.72-.073-.792v-.719l-.36-.722-.36-.72.576-.792.72-.358.072-.793.073-.647.144-.72.287-.793-.071-.72-.216-.72.216-.72v-.722l-.504-.72-.504-.792v-.07l-.073-.722.073-.792-.144-.719v-1.44l-.361-.72-.287-.72v-.649l-.288-.72-.288-.719-.144-.792-.216-.722-.217-.79v-.722l-.071-.719-.288-.72-.216-.722-.073-.72-.071-.215-.073-.72v-.722l.073-.792-.073-.792.577-.72.792-.43.719-.723.073-.792-.36-.72.36-.359.503-.72-.071-.36-.432-.792.07-.72.145-.72-.431-.72.143-.793-.287-.72-.576-.72-.721-.504-.071-.432-.145-.722v-.72l-.215-.792.36-.72.576-.72.504-.793v-.72l.288-.719.287-.792.144-.289.144-.576-.144-.719.073-.792-.144-.72.144-.288v-1.513l.288-.72.215-.793.072-.719.72-.217.145-.72.144-.72-.36-.72-.073-.72-.071-.288-.144-.722-.073-.72.72-.576.433-.719-.217-.792v-.792l.36-.72.288-1.44-.144-.72.144-.722.217-.719-.144-.72-.073-.792v-.72l.217-.72-.288-.793-.504-.72-.144-.72.144-.72.36-.794-.145-.719.72-.505.288-.719.505-.72.07-.722-.214-.792-.432-.72.215-.719-.504-.792-.288-.72-.144-.722-.216-.792.072-.719-.072-.72.072-.792-.072-.792.072-.722.217-.72-.073-.719-.216-.792.145-.722v-.79l-.073-.505.505-.72.215-.793v-.719l-.647-.722-.721.576-.36-.72-.071-.792-.073-.719.144-.72.073-.792.216-.722.719.361h.144l.72-.648.216-.792v-.72l-.144-.72.144-.792v-.792l.144-.722-.071-.72v-.79l.07-.72.074-.793.07-.72.074-.72.144-.793.143-.72-.071-.793-.072-.719.216-.722.288-.792.144-.72v-.216l-.073-.215-.288-1.44-.287-.793-.217-.719-.288-.792.144-.72-.432-.72-.143-.722v-.792l-.073-.719.144-.792-.071-.72.143-.792v-.722l-.072-.719.145-.792v-.72l-.145-.433-.071-.72-.217-.72v-.792l-.36-.722-.144-.719-.071-.144v-.722l-.432-.719-.36-.793.07-.719-.143-.792-.288-.72-.071-.792-.144-.72-.29-.793.074-.72-.073-.72.144-.72.072-.72-.143-.36-.72-.504-.29-.216-.718-.576-.792-.36-.721-.504-.792-.576-.72-.433-.575-.719-.721-.432-.071-.072-.792-.216-.721-.504-.144-.216-.792-.36-.72-.648-.072-.792-.215-.792-.29-.72-.718-.576-.288-.288-.721-.216-.72-.288-.72-.072-.72-.288h-.071l-.792-.72-.72-.36-.72-.072-.29-.504-.718-.504-.72-.504-.577-.72-.72-.36-.72-.216-.792-.216h-.72l-.791-.072-.288-.216-.504-.36-.72-.216-.72-.288-.792-.36-.288-.217-.721-.07-.792-.649-.72-.216-.72-.144-.72-.216-.72-.144-.72-.216-.792-.288-.72-.432-.72-.504-.72-.72-.72-.288-.791-.216-.72-.288-.72-.072-.721-.72-.792-.432-.215-.144-.72-.144-.792-.432-.72-.216-.792-.504-.721-.216-.72-.288-.072-.072-.792-.36-.071-.648-.577-.72-.72-.576-.72-.432-.503-.72-.144-.144-.576-.72-.72-.36-.721-.288-.792-.432-.72-.36-.72-.504-.215-.72-.432-.72-.72-.792-.72-.72-.072-.72-.72-.576-.721-.144.073-.792-.073-.72-.287-.72-.792-.144.36-.72.792.36.144-.792.144-.72.072-.216.072-.792v-.792l-.216-.72-.504-.72-.144-.216-.72-.72-.648-.72-.65-.576-.358-.72-.072-.792-.504-.72-.72-.72-.36-.792-.648-.72-.432-.72-.288-.792-.721-.648-.72-.432-.72-.432-.36-.72-.791-.288.144-.216.07-.432-.143-.72-.36-.792.073-.72-.36-.792-1.44-1.44-1.44-.864-.792-.216-.648-.792.432-.72-.36-.72-.072-.36-.288-.72-.433-.792-.431-.72-.576-.72-.72-.792v-.072l-.504-.72-.576-.792-.432-.72-.576-.72-.504-.792-.216-.72-.288-.72-.36-.72-.144-.72-.361-.72-.647-.792-.36-.72-.144-.72-.433-.792-.215-.72-.72-.504.144-.792-.72-.072-.144-.72-.432-.648-.144-.288v-.36l-.576-.792-.576-.72.144-.792-.216-.72-1.44-1.44-.288-.72-.36-.792-.72-.72-.72-.576-.792-.648-.72-.504-.72-.72-.504-.72-.288-.792-.432-.792-.648-.72-.288-.72-.216-.72-.216-.504-.792-.792v-.144l-.288-.72-.72-.72-.792-.576-.576-.648v-.072l-.432-.72-.288-.216-.792-.648-.72-.288-1.584-.576-.72-.36-.792-.36-.792-.576-.648-.288-.792-.144-.72-.288-.792-.288-.72-.216-.792-.288-.72-.144v-.72l-.216-.72.216-.792.792-.504.72.36.792-.648.144-.72v-.792l-.36-.864-.36-.72-.72-.72-.72-.576-.792-.576-.072-.72v-.72l.72-.216-.144-.792-.792-.576-.576-.72-.72-.648-.072-.72.144-.792-.144-.648.216-.648.072-.432-.072-.792.216-.432.36-.288.36-.36.36-.576.576-.432.288-.648.576-.792.792-.648.144-.792.72-.792.792-.504.72-.72.36-.72.72-.288.792-.288.216-.792v-.072l.072-.072.72-.36.504-.144.504-.072.144-.216.72-.36.216-.288.144-.072.36-.288.144-.72.36-.72.072-.288.072-.792.432-1.584.288-.72.432-.864v-.72l-.792-.72-.36-.792-.072-.792-.216-.792v-.144l.504-.72.36-.72-.504.36-.576.72-.072.576v.288l.144.216.216.792.072.792-.144.792-.36.792-.216.072-.432.288-.648-.36.576-.864.36.072.288-.144-.648-.144-.216-.288.072-.144.144-.432v-.288l-.36.288-.216.72-.36.792-.72.792-.792.504-.288.72-.792-.576-.792-.36-.72-.648-.792-.72-.72-.36h-.792l-.432-.216-.648-.504-.216-.792.288.144.504-.288.792-.792.144-.792.144-.72-.216-.792-.216-.72-.504-.792v-.072l-.288-.792.216-.72.36-.72.144-.792-.36-.72-.648-.72-.36-.72.144-.72.576-.792.72-.144.792-.144.72-.36.288-.72.072-.72.36-.72.36-.792.72.504.72-.072-.216-.144-.792-.072-.432-.792-.504-.72.216-.72.576-.72.432-.792.72-.432.576-.72.72-.72.072-.216.36-.792.144-.72-.072-.72.36-.792h.072v-.36l-.432-.504.144-.72-.072-.72-.072-.144-.648-.792.216-.72.72-.36h.144l.72-.432.72-.36.72-.72.792.072.216.72.144.216-.072-.288-.216-.216.432-.792.72-.36.72-.576.72-.072.792-.144.72-.072.72-.72.72-.432.36.72.144-.072.144-.792.72-.72.144-.72.36-.72-.36-.72-.72-.504h-.36l-.72-.36.504-.72.648-.792.792-.432.72.144.792-.072.72.144.215-.72-.36-.72-.143-.72-.504-.792-.216-.72.432-.864.432-.792.72-.576.576-.72.72.432 1.44-.864.792.36.72-.576.72-.144.144-.504.72.432.792-.216v-.792l-.361-.72.577-.432.72-.72.432-.72-.72-.36.72-.576.576-.144.36-.792.072-.72.72-.432.144-.288.072-.72.72.36-.432-.72.36-.792.36-.72.648-.36.72-.576-.576-.72.72-.432.504-.792-.72.072-.792.36-.72-.432.144-.792h.72l.144-.72-.72-.072-.504.792-.72.072-.217-.72-.071-.72.72-.72h.72l.36-.432h-.808l-.504-.72.288-.72.144-.792.072-.72.216-.792v-.72l-.504-.792-.144-.72v-.504l-.072-.72v-.792l.072-.72-.144-.792-.216-.72-.72-.719-.216-.72.72-.36.792.071.648-.792.215-.72-.36-.72-.432-.719-.503-.792-.648-.72-.288-.793v-.72l.72.36.432-1.44-.072-.72.216-.792-.65-.72-.79-.36-.648-.719-.792-.577-.29-.693.074-.72-.72-.577-.072-.144-1.08-.864-.072-.07.75-2.088.538-.506.095-1.74 1.519 1.234 1.993-1.456.475-1.835 1.17-.317-2.657-5.347.869-1.05zm117.79-32.616-.36-.792.434.792h-.073m-19.224.792.72-.144-.72.144m54.072 4.608.288-.792.72-.576.72-.216.793-.215v.72l-.721.287-.792.216-.72.361-.288.215m-41.4 2.737-.72-.144.72-.577.72.361-.72.36m11.304 0-.648-.72-.72.071-.792-.072-.72-.144-.072-.72.72-.216.72-.144.793.577.719.215.648-.719.72-.72.72.647.505.721-.792.431-.792.433-.721.216-.288.144m1.368 1.08-.792-.288.72-.144.072.431" style=";stroke:none;stroke-width:1;stroke-miterlimit:1;stroke-dasharray:none" transform="rotate(-5.058 -1401.445 1706.204) scale(1.01264)"/><path d="m363.245 555.043-.217-.287-.432-.793-.432-.72-.216-.719-.072-.72v-.792l-.145-.722v-.72l.36-.719-.072-.793.433-.72v-.72l.07-.72.722-.433.72.071.505-.72v-.792l.07-.719-.215-.722v-.792l-.072-.72-.216-.792-.072-.72.144-.287.648-.792v-.72l-.287-.218-.217-.359.072-.72.072-.217.072-.72-.361-.792.576-.719.72-.722.433-1.438-.433-.72-.36-.36.722-.577.07-.358.434-.722v-.07l.144-.722.216-.72.072-.72-.072-1.009.72-.432v-.719l-.072-.434-.071-.432-.432-.719-.072-.72.287-.505.72-.504.72-.647.36-.792v-.72h.145m31.319 33.056-.434-.505-.72-.145.073-.719.144-.72.145-.792v-.722l-.071-.72v-.792l.287-.72.72-.648.72-.432.287-.72.792-.576.722-.72-.433-.72-.071-.073-.792-.504-.647-.288h-.145l-.721-.72-.72-.792-.361-.792-.07-.72-.433-.792-.215-.792-.793-.504-.575-.792h-.072l-.72-.433-.792.146-.721-.649-.72-.646-.576-.792-.36-.146v-.792l-.647-.719-.792-.504-.722-.217-.792-.216-.718-.72-.36-.505-.721.36-.72-.648-.576-.719-.504-.72-.288-.72-.72-.722-.504-.576-.72-.287-.072.72-.792.217-.648.72-.791.287h-.721l.072-.864.145-.72.07-.719-.72-.792-.431-.792-.577-.722-.791-.646-.648-.72-.504-.36-.648-.792-.647-.72-.792-.504-.72-.649-.72-.072-.792.217-.721.433-.288.72-.792.215-.792-.07-.72-.072h-.721l-.144-.36-.36-.359" style="fill:none;stroke:#fff;stroke-width:1;stroke-miterlimit:1;stroke-dasharray:none" transform="rotate(-5.058 -1401.445 1706.204) scale(1.01264)"/><path d="m394.277 478.291-.071.072-.36.72.144.721.288.721-.288.792-.431.72.144.72-.144.721-.073.792-.071.72-.218.791-.574.72-.218.722-.215.792h-.72l-.432.72-.504.432-.721.36-.288.792-.72.215-.216-.072-.72.146-.792.215-.217.792-.72.216-.504.792.072.721-.216.721-.792.504-.647.215-.65-.792-.79-.143-.288-.146-.721-.144-.72.29-.72.72-.36.718-.503.72-.721-.504-.648-.72h-.72l-.288.073-.72.36-.721-.648-.72-.073-.72.361-.72.143-.792-.216-.721-.359h-.72l-.72-.359-.792-.145-.792-.36-.721-.36-.72-.144-.72-.145-.792.073-.72-.073-.72-.07-.72.215-.792-.07-.721.07-.792.217.07-.145v-.505l-.431-.792.72-.575.648-.72.36-.72.72-.434.144-.646.72-.434.073-.719.576-.72-.36-.577.216-.792.072-.719.072-.792 1.008-1.44.792-.505.72-.43.072-.723.432-.79.07-.218.36-.72.433-.792.792-.36.36-.79.145-.722-.721-.646-.216-.72-.288-.218-.144-.215-.288-.792-.792-.577-.721-.215-.791-.289-.72-.432-.504-.36-.721.216-.792-.36-.504-.719-.721-.289-.792-.07-.72-.36-.792-.073-.72-.576-.72-.574-.72-.504-.72-.218-.792-.504-.145-.07-.72-.576-.72-.72-.792-.577-.721-.575-.721-.433-.792-.504-.72-.505-.72-.504-.36-.144-.792.217h-.72l-.72-.146h-.216l-.792-.287-.72-.289-.792-.504-.72-.07-.72-.145h-.432l-.792-.504-.72-.289-.072-.216-.576-.719-.216-.792-.288-.146-.72-.358-.72-.576-.72-.288-.72-.289-.504-.719-.72-.36-.792-.505-.504-.792-.72-.648-.72-.504-.288-.72-.504-.719-.504-.792-.432-.72-.648-.722v-.792l-.72-.43-.36-.074h-.072l-.72-.719-.72-.504-.72-.722m40.907 71.714.72-.289.649-.72.719-.647.216-.722.145-.72.792-.504.72-.072.288-.216.289-.358.575-.792.647-.722.648-.72.288-.359.72-.72.288-.72.288-.72.72-.649.792-.215.216-.72.72-.649.145-.719.793-.576.647-.72.72-.649.144-.72.72-.504.289-.72.72-.36.72.36.433-.72-.792-.505.792-.503.432-.504.288-.217.72-.36.72-.215.648-.792.504-.288.72-.577.72-.07.793-.506h.07l.722-.72.433-.792.359-.719.72.216.72-.216.36-.72.72.286.72-.646.792.216.72-.577.289-.719.72.144.72-.647.719-.433.722.071.432-.575.36-.792.36-.72.072-.72-.29-.792.218-.722v-.792l.072-.72.144-.719.07-.792.505-.792v-.217l-.36-.72-.287-.792-.36-.72-.216-.793-.071-.719-.217-.72-.144-.722-.647-.79-.721-.29-.792-.288-.72.577-.721-.289-.72.576-.792-.287-.504-.289h-.145" style="fill:none;stroke:#fff;stroke-width:1;stroke-miterlimit:1;stroke-dasharray:none" transform="rotate(-5.058 -1401.445 1706.204) scale(1.01264)"/><path d="m365.837 428.684.217-.722v-.936l-.217-.719v-.722l-1.8-1.224-1.151-.719-1.297-.792-.864-.576-.432-.216-2.017-1.296-.144-.145-1.008.072h-4.248l-2.16.072h-.503l-.505.143-.792.217-2.376.648-.792.215-.792.216-.288.073-.792.144-.792.145-.792.143-.72.146-.792.143-.792.146-.72.143-.792.146-.792.144-.792.145-.792.144-.792.216-.288.791-.287.72-.29.792-.287.793-.215.721v.07l-.361.506-.504.72-.504.792-.504.72-.504.791-.072.073-.504.72v1.656l.072.792v2.304l-.216.792-.215.792-.217.72-.432 1.584-.288.721-.216.863-.072.433-.216.72-.216.791-.216.793-.216.72-.216.792-.288.791m66.24 30.74v-.574l-.07-.288.07-.505.074-.145.43-.719.506-.72.432-.722-.144-.792.072-.719.287-.72.145-.793.504-.863.144-.36.217-.72-.145-.72.216-.72.504-.793-.072-.72-.432-.72-.071-.792.79-.577-.574-.359-.576-.576-.721-.648-.72-.43-.72-.147-.72.288-.792.288-.721.577-.72.144-.432.145-.792.143-.721-.072-.72-.144-.792-.647v-.72l-.071-.792-.072-.72-.576-.72v-.722l-.072-.287.216-.72-.287-.793.216-.719-.145-.504-.36-.72-.071-.794-.144-.719-.145-.72.072-.792.216-.72-.216-.722-.72-.72-.074-.792-.214-.719-.792-.576-.504-.145-.721-.145-.72.073-.721-.217-.72-.505-.792-.646-.216-.792-.792.144-.287.288-.36.721-.792.504-.721-.145-.792.504-.72-.432-.647-.146h-.721l-.72-.215h-.721l-.792-.07-.72-.218-.72-.144-.216-.072-.72-.36-.721-.287-.72.36-.72-.073-.72-.359v-.146l.215-.719.289-.793-.072-.719v-.504l.36-.648-.072-.217-.145-.719.145-.146-.36-.792.433-.72.432-.719-.145-.792.288-.72v-.72l.145-.793-.648-.72.36-.72-.72-.434.503-.72-.72-.575-.216-.72-.071-.72-.288-.72-.433-.722-.575-.792.07-.719" style="fill:none;stroke:#fff;stroke-width:1;stroke-miterlimit:1;stroke-dasharray:none" transform="rotate(-5.058 -1401.445 1706.204) scale(1.01264)"/><path transform="rotate(-5.058 -331.97 533.768) scale(1.01264)" style="fill:none;stroke:#fff;stroke-width:1;stroke-miterlimit:1;stroke-dasharray:none" stroke-miterlimit="1" d="m267.873 331.063.145-.073.792-.503.719-.649.792-.215.144-.217-.575-.576-.792-.719-.721-.719.217-.865.287-.719.36-.792.361-.721.359-.792.36-.721.361-.719.359-.792.792-.576-.072-.216-.073-.72-.287-.36.216-.792.288-.72.216-.792.288-.72.216-.72.217-.792.287-.72.432-.72-.432-.72-.287-.72-.649-1.296v-.792l-.288-.792-.144-.144-.432-.72.216-.504-.288-.288-.72-.576-.216-.216-.719.36-.433-.144-.72-.72-.792-.433-.719-.575-.721-.288-.287-.721.071-.791-.145-.72-.215-.792-.072-.792v-.072l-.143-.72v-.792l.288-.576.72-.792v-.72l.287-.792v-.648l-.936.432h-.721l-.215-.072h-.72l-.72-.072h-1.513l-.792-.072h-.502l-.792-.072h-.72l-.721-.072h-.792l-.647-.072h-1.512l-.217-.072h-1.513l-.719-.073h-.719l-.649-.071h-.792l-.072-.792-.071-.721v-.719l-.073-.792-.072-.72-.072-.792-.144-1.44-.072-.792-.36-.72-.648-.72-.648-.792-.648-.72-.072-.864h2.088v-.864l-.072-.792-.072-1.224v-1.08l-.648-1.008.072-.432-.432-.72-.288-.792-.288-.72-.216-.72.288-.72.504-.72-.216-.36-.288-.792-.36-.72-.792-.216-.72-.288-.72-.576h-.072l-.792-.288-.72-.432-.719-.504-.793-.504-.72.36h-.72l-.72-.36-.792.432-.72.216-.792-.432-.432.072-.792.216-.72.072-.288-.144-.216-.72-.792-.576-.72-.648-.648-.792v-.648l-.72-.216-.72.144-.792.072-.72-.504-.72-.144-.72-.288-.792-.648-.72.36-.72-.648-.576-.72-.72-.432-.288-.72-.72-.72-.791.288-.721.288-.72-.288-.72-.504-.792-.504-.72-.432-.792-.288-.72-.072-.72.36-.719.288-.792-.144-.721-.072-.719-.216-.721.072-.288-.144-.719-.072-.361-.504-.288-.72-.143-.792-.721-.072h-.144l-.792-.36-.719-.648-.721-.72-.72-.072-.72-.072-.072-.576.072-.216-.072-.072-.36-.72-.648-.792-.719.144v-.72l-.288-.72-.289-.72-.72-.576-.144-.72-.36-.72-.071-.72.287-.72.144-.792.217-.72-.073-.72v-.144l-.792-.432.217-.792-.433-.72-.072-.72-.144-.72.432-.792.36-.504.432-.792.073-.72-.145-.792-.144-.72-.072-.144.072-.792.072-.72-.431-.72-.721-.504-.432.36-.575.72-.721.144-.792-.504-.719.36-.721-.144-.72.072-.792.216h-.72l-.72.288-.792.216-.719.288-.792.144-.721.072-.719.288-.433.36-.72.432-.648.504-.719.648-.721.72-.719.72-.721.432h-.144l-.72-.072-.72.648-.792.504-.719.432-.72.504-.577.72v.072l-.215.72-.433.144-.719-.36h-1.513l-.719.36-.432.72-.577.72-.359.792-.792.72-.721.36-.719.072-.721.576-.215.072-.792.216-.721-.36.217-.72-.576-.072-.792.144-.721-.072-.719-.288h-.721l-.719-.072-.792.072-.721-.216-.719.288h-.792"/><path d="m290.38 453.955-.791.217-.792.217-.791.216-.792.215h-.721l-.792-.07-.792-.29-.36-.79v-.722l.073-.719-.144-.792-.144-.72-.432-.722.07-.719-.287-.72v-.792l-.791-.72-.505-.722v-.792l-.144-.719-.287-.792-.577-.792v-.792l-.071-.72v-.793l-.361-.79-.071-.073-.073-.145-.071-.07-.216-.36-.505-.793-.575-.792-.721-.433-.503-.07-.29-.793-.07-.792.36-.72-.072-.722-.72-.358-.721-.36-.575-.72.215-.72v-1.656l-.503-.72.72-.217.719-.073.289-.503v-.07l.215-.722-.36-.72-.432-.288-.792-.647.648-.722.36-.792.217-.288.503-.792-.071-.72-.792-.504-.721-.359-.648-.72-.791-.72-.792-.36-.072-.217-.576-.719.144-1.008-.361-.72-.216-.793-.144-.72-.071-.504-.073-.72-.36-.792-.144-.72-.288-.792-.144-.72.432-.72-.576-.073-.72-.287-.791-.36-.073-.792-.216-.72-.72-.72-.72-.792-.071-.576v-.288m59.687 40.682h-.072l-.72-.719-.432-.72-.144-.72h-1.296l-.792.07h-2.376l-.72.072h-1.944l-.287.217-.217.145-.072.07-.072.073-1.008-.432-.792.215-.36.721-.288.721-.36.72-.36.72-.144.791-.648.792-.287.72-.217.792v.722l-.144.72-.144.36-.287-.722-.361-.72-.144-.288-.36-.359.216-.79-.575-.723-.361-.792-.143-.719-.288-.72-.792-.433h-.577l-.72-.288-.72-.07-.72-.289h-.648l-.792.071h-1.08l-.792.072h-1.584l-.072.072-.72.072h-.72l-.72-.649-.863-.864-.792-.143-.721-.792-.863-.289-.073.073-.072.792-.216.72-.072.791-.432.721-.575.145-.721.288-.792.287-.792.072-.432.721-.144.792v.07l-.504.722-.863.432-.648.791-.144.865-.721.72-.36.72" style="fill:none;stroke:#fff;stroke-width:1;stroke-miterlimit:1;stroke-dasharray:none" transform="rotate(-5.058 -1401.445 1706.204) scale(1.01264)"/><path d="M265.038 347.612h-.144l-.721.072h-.792l-.72-.144-.72-.072-.72.36-.36.216-.72.36-.72.36-.791.216h-.721l-.72-.432-.72-.576-.144.072-.72.072-.072-.72v-1.512l-.071-.288v-1.512l-.073-.72v-.792l-.071-.72v-.792l-.073-.72v-1.8l.073-.72.72-.72-.432-.72-.361-.72.432-.504.36-.792-.36.072-.72.504-.72.72-.72.72-.791.576-.65.72-.718.504-.721.432-.431.72-.721.432-.792.216-.576.072-.72.072h-.791l-.721.072-.792.072h-.72l-.72.072-.792.072h-.72l-.72.072.145-.504v-.72l-.648-.792-.288-.72-.29-.72-.214-.72-.792-.36h-.721l-.792-.072-.72-.216-.791-.144h-.361l-.72.072h-.791l-.721.072h-.792l-.72-.216 1.297-1.44.504-.72.216-.792-.144-.72-.792-.576-.505-.792-.504-.72-.72-.504-.72-.36-.36-.792-.287-.72-.792-.432-.721-.504-.143-.792-.432-.72-.288-.792-.648-.72-.721-.288.36-.792.217-.72-.721-.432-.72-.36-.72-.72-.575-.72.287-.144.144-.72-.215-.792.792.072 1.44-.72-.36-.792-.504-.72.144-.792.072-.72.144-.72.648-.792.72-.648.72-.432.72-.648.864-.504.79-.144.722-.72.216-.792-.216-.72-.288-.864-.504-.792v-.792l.288-.432.287-.792.505-.792.504-.72.36-.72.215-.792.073-.72-.073-.792.36-.792.217-.792-.144-.72-.216-.216.07-.072.074-.072.792-.432.863-.36.72-.072.289-.504.72-.504.792-.576.359-.72.72-.576.793-.216.72-.432.575-.72.792-.36.72-.648.72-.144.792-.144.288-.144.792-.144h.792l.72-.36.289-.072h.792l.72-.648.79-.144h.793l.72-.288.793-.288.648-.72.36-.72h.72l.792-.432.792.144h.719l.792.144.577.72.719.432.288.36.577-.792.792.648h.07l.362-.072.216-.216.144-.648m8.784 119.52v-.288l-.073-.792-.647-.576-.721-.216.217-.504.504-.72.72-.648.792-.432.36-.72.432-.792.575-.72.288-.72.72-.288.72-.576-.36-.576v-1.008l.864-.72.72-.36-.288-.72-.72-.576h-.216l-.72.216h-.575l-.721-.504-.287-.792-.361-.72-.288-.72-.216-.504-.288-.72-.36-.72-.215-.792.43-.792.145-.36v-.144l.504-.72.432-.792.72-.72-.647-.72-.721-.504-.576-.792-.287-.504.144-.72.143-.72.72-.36.072-.72.073-.792.648-.72.72-.648.719-.576-.215-.72.575-.72.72-.36-.288-.792-.288-.72-.575-.72-.217-.72-.144-.72-.648-.792.504-.792.432-.72v-1.512l-.071-.72-.144-.792v-1.44l-.073-.576-.071-.792.576-.72.719-.648.792-.648-.071-.792.43-.72h.074l-.217-.432-.36-.72-.432-.72-.36-.72-.432-.72-.36-.72-.504-.792-.432-.72-.504-.72-.503-.72-.433-.792-.503-.72-1.008-1.44-.432-.72-.504-.72-.505-.72-.431-.72-.504-.792m3.312 59.256-.65.648-.791.792-.792.072-.648.72.36.792.144.72.217.72-.288.792-.29.72-.647.72-.503.504-.792.288-.721.36h-1.367l-.576.288" style="fill:none;stroke:#fff;stroke-width:1;stroke-miterlimit:1;stroke-dasharray:none" transform="rotate(-5.058 -1401.445 1706.204) scale(1.01264)"/><path transform="rotate(-5.058 -331.97 533.768) scale(1.01264)" style="fill:none;stroke:#fff;stroke-width:1;stroke-miterlimit:1;stroke-dasharray:none" stroke-miterlimit="1" d="m161.602 189.727.071-.144.144-.792.288-1.44.145-.792.071-.72.144-.792.144-.72.073-.72.144-.792.071-.72.145-.72.144-.792.071-.72.144-.72.144-.792.073-.72.071-.216.073-.792.143-.72.144-.72.073-.792.144-.72.144-.792.071-.72.144-.72.145-.792.071-.72.144-.72.144-.792.073-.72.144-.72.143-.72.073-.792.071-.216.073-.72.071-.216.504-.792-.143-.864-.073-.72-.359-.576-.073-.648-.719-.72-.433-.792-.432-.72.217-.72-.144-.792-.144-.72-.792-.36-.721-.432-.719-.72-.792-.216-.577-.576-.503-.792v-6.408l.432-.144.719-.144.792-.072.721-.288.719-.432.792.072.721-.576.719.072.72.648.792.144h.504l.792-.216-.504-.72.216-.72-.143-.792-.505-.72-.719-.648h-.721l-.792-.072-.719.072-.792-.072-.721.144-.792-.216-.432.288v-2.304l-.071-.792v-2.304l-.073-.36.721-.144.792-.216.72-.216.792-.144.719.144.577.216.792-.072h.792l.792-.072h1.584l.792-.072h.792l.792-.072h.792l.792-.072h1.511l.793-.072h.792l-.432-.72-.144-.792.432-.72.719.072.36.792.432.72.721.432.792-.216.719-.432.577-.72.503-.72.721-.72.719-.576.721-.36.719.216.432.72.433.72.576.72.575.792.36.72.288.792.144.72-.071.792-.144.72-.073.792.073.72.719-.144.721-.144.503-.144"/><path d="m210.102 253.508-.721.288-.792.144-.792-.36h-.863l.072.648.79.144.722.576.144.792.504.72.792.432.576.72-.216.648-.145.72.289.72.216.792.216.648-.721.072-.792-.288-.143-.144-.144.72-.216.72-.144.792-.216.72-.144.792-.288 1.44-.216.504-.144.072-.288.36-.577.72-.575.792-.576.792-.648.72-.577.792-.575.792-.36.504-.72.648-.792.648-1.44 1.296-.217.144-.792.648-.72.648-.575.432-.72.36-.792.288-.72.36-.72.288-.72.36-.792.288-.144.072-.792.36-.721.288-.72.36-.791.288-.72.36-.72.288-.432.216-.721.288-.503.36-.648.72-.72.72-.648.72-.36.72-.648.792.432.72-.72.576v-.72l-.72-.072-.216.72v.792l-.144.792-.144.72-.144.36-.576.72-.432.72-.072.792-.072.72-.288.72-.216.72-.36.504.144.792v.936l-.144.72-.216.144-.72.36-.72.648-.36.72.288.72-.72.36-.216.792-.36.432-.072.072-.072-.072-.432-.216h-.72l-.36.072-.792-.216-.648-.72-.648-.648-.36-.792-.36-.72.144-.216-.72-.648-.792-.504-.72.432-.72.072-.792-.648-.432.072-.36-.144-.72-.576-.504-.144-.72.72-.72.792-.792.504-.72-.288.144-.72.432-.792.504-.72-.72.216-.576-.72-.216-.648.576-.72h.72l.72-.36.72-.576.288-.216-.36-.72-.216-.792v-.72l-.288-.792-.216-.504-.072-.576-.288-.072h-.072l-.432-.216m94.104.432-.433-.576-.503-.36-.721-.576-.287-.792-.576-.72-.721-.576-.792-.144-.72.432-.72.144-.648-.144-.503-.36-.216-.432.43-.72.505-.864.505-.792.43-.792.506-.792.504-.792.432-.72.43-.792.505-.72.505-.864.43-.72.506-.792-.65-.144-.791-.576-.431-.72-.792.216.215-.72-.792.216-.792-.36-.72.216-.792-.72-.72-.72-.791-.288-.792-.36-.72-.144-.432.72-.792.504-.792.144-.72.072-.72.216-.361-.72-.792.288-.648-.792-.792-.144-.791-.432-.072.072-.72.648-.29.72-.791.648-.144-.072-.792.072-.72.72-.791.576-.721-.144-.792-.504-.431.072-.793.144-.792-.288-.36.792-.72-.072-.863.144-.792.072-.576-.72-.72-.288-.792-.576.288-.792.144-.792-.288-.792.07-.864-.718-.792-.792-.072-.72.216-.792-.144-.72-.504.072-.792.215-.792-.575-.792-.217-.72-.575-.792-.72-.36-.792.144-.792-.432-.433-.72-.792-.144-.792-.504-.792-.144-.863-.288-.432-.72.144-.792-.72-.792-.072-.72-.144-.792-.29-.432-.791-.144-.648-.72h-.72l-.791-.72-.288-.792-.721-.072-.863-.072-.721-.648-.431-.144-.792-.504h-.72l-.648.792" style="fill:none;stroke:#fff;stroke-width:1;stroke-miterlimit:1;stroke-dasharray:none" transform="rotate(-5.058 -1401.445 1706.204) scale(1.01264)"/><path d="M399.965 227.228h.72l.36-.792v-.072l.72-.216.576-.792.288-.72.504-.72.576-.72.07-.792.218-.72-.072-.72-.146-.72.146-.719.72-.72h.072l.36-.72.504-.577-.145-.792.216-.72-.792-.504-.287-.792-.72-.432-.577-.72-.432-.72-.575-.719.215-.72-.647-.793.072-.72-.288-.648-.072-.36-.071-.792.288-.719-.217-.72-.36-.793.072-.72v-.72l.143-.72.506-.792.648-.72.144-.36.72-.648.647-.504.577-.719.72-.72.07-.793.073-.72.433-.648m-5.977 30.168-.288.072-.72-.432.144-.792h-.72l-.72.144-.72-.648-.648-.792-.144.072-.217.144-.72.36h-.72l-.72.072-.721.576-.792.072h-1.441l-.792.216-.718-.216-.721-.288-.792-.504-.72.576-.217.72-.72.36-.144.72.72.216.433.72.647.72.072.72.072.792-.721.504-.72-.072-.792-.288-.721-.144-.791-.216-.72-.144-.793-.144m-172.578 23.184-.072-.072-.72-.288-.721-.216-.72-.36-.647-.432-.72.144h-.864l-.72-.576-.072-.144-.72-.36-.576-.72-.792-.432-.793-.432-.72-.072-.72.144-.791-.072v.432l.144.792-.144.144-.792.144-.792.072-.792-.216-.72.288h-.792l-.72-.216-.72-.144-.72-.504-.721.216h-.72l-.72-.072-.791-.216-.288-.72-.216-.792-.504-.792-.72-.144-.576-.36-.144-.72-.144-.144-.72.072-.792.216-.72-.576-.72-.144-.72.072-.72-.432-.792-.504-.72-.144-.792-.576-.72-.648-.72.072-.36-.648-.288.144-.144-.072-.792-.72-.792-.648" style="fill:none;stroke:#fff;stroke-width:1;stroke-miterlimit:1;stroke-dasharray:none" transform="rotate(-5.058 -1401.445 1706.204) scale(1.01264)"/><path d="m382.685 230.324-.72-.648-.72-.144h-.576l-.504-.72-.576-.792-.36-.72-.216-.504-.432-.792-1.008-1.44-.288-.792-.36-.72-.792-.504v-.792l-.216-.72-.072-.792-.575-.719v-1.513l-.721-.36-.72.145-.792-.073-.721-.072h-.36v-.792l-.215-.72-.432-.36-.721-.648-.504-.72-.288-.719-.504-.72-.72-.649-.36-.864-.216-.72.432-.792.648-.72-.072-.72.432-.72.288-.792.433-.72-.36-.72-.432-.792.576-.72.72-.216.72-.719.792.071.72-.144.72.216.792-.143.36-.145.505.072-.216-.719.72-.36.215-.72-.215-.36-.792-.433.432-.72.145-.72.07-.072m7.056 31.392-.504.216-.144.072-.721-.288-.792.144-.72.432-.72-.144-.72-.288-.792-.144-.433-.72-.72.144-.72.432-.72-.288-.793.504-.432.72-.504.72-.72.504h-.792l-.721-.216-.72.36-.72.216-.721.504-.432.72h-.792l-.72-.504h-.72l-.72.144-.721.72-.792.144.288.72-.216.72-.721.144-.72-.072-.72.504-.792.36-.72-.648-.72-.576-.288-.072-.721-.072-1.44-.432-.431-.72-.792-.576-.648-.72-.647-.72-.721-.288-.792-.36.359-.72-.288-.072-.792-.144.145-.72.072-.792.072-.72-.072-.72-.072-.72-.791-.288-.721-.576v-.72l-.216-.72-.36-.792-.216-.72.073-.72v-.792l.215-.792.072-.72.36-.792.288-.72.359-.719.217-.72v-.793l-.36-.72.072-.288.72-.216.792-.576.217-.72.719-.432.146-.72-.146-.792-.432-.72-.144-.719-.792-.505v-.72l.504-.72-.432-.43-.29-.146-.791-.216-.72-.36h-.72l-.504.072-.72-.143.072-.72.648-.72.288-.793.144-.72.073-.72v-.072l.07-.72-.07-.792h-.073l-.72-.504-.288-.576-.72-.36-.72.36-.72.288-.792.144-.792-.144-.72-.144h-.72l-.504.072" style="fill:none;stroke:#fff;stroke-width:1;stroke-miterlimit:1;stroke-dasharray:none" transform="rotate(-5.058 -1401.445 1706.204) scale(1.01264)"/><path d="m343.445 201.236.72.216.288.72.216.792.072.072-.072.72-.576.792-.72.576-.792.361-.72.36-.288.72-.504.72-.72.072-.792.143h-.216l-.72-.216-.576.72-.72.145-.72.071-.36.721-.36.72-.792.072-.72-.073-.72.36-.792.505h-.72l-.792.071-.792.504-.72-.072-.72-.288-.792-.288-.72-.072-.72.432-.144.792h-.792l-.72.072-.576.72-.072.72.288.72.144.792-.36.72-.72.432-.792.072-.72-.432-.647-.792-.721-.648-.72-.792-.72-.648-.72-.216-.575.72-.721.216-.72-.648h-.791l-.721.144-.72-.216-.72.361-.792.287-.576-.72-.216-.792-.72-.576-.792-.216h-.72l-.72.072-.792.144-.72.072-.504-.72-.072-.144-.72-.432-.72.144.145.72.719.72.432.72.72.721.649.72.792.575.719.29.72.718.72.648v.792l-.36.72.073.792.143.72-.072.792.36.72.432.721.577.792.432.72.287.72-.072.791-.215.72-.217.792.72.072.793.216.719.144.72-.144h.792l.72.072h1.512l.36.792v.72l-.144.216-.216.792-.792.072-.72.144-.72.504-.792.432-.72.432h-.792l-.72.072-.72.576v.792l-.144.72-.071.72-.577.72-1.44 1.152-.503.72-.145-.72-.792-.288-.72.432-.431.72-.792.504-.721.504-.72-.288-.792.576-.72.36-.144.072-.72.216-.648.792-.144.72-.72.576-.791.144-.577.72-.144.72-.72.72-.72-.216v-.72l.504-.72-.144-.72-.792-.504-.72.072-.72.288-.72.288-.791.648-.721.576-.72.36h-2.232l-.792-.648-.72-.576-.864-.648-.72-.648-.791-.576-.792-.576-.217-.216-.072-.072m63.36-65.447.432.575 1.296 1.584-.576.576-.792.144-.144.144-.287.72-.217.576h-.72l-.792.577-.72.503-.72.648-.576.216-.72-.072-.72.648-.288.72-.504.793-.648.72.576.72.576.792-.432.72.576.72.72-.145h.72l.72.217.504.504-.504.72-.288.72-.504-.073-.72.504-.792.288-.72.36-.72.361-.72-.145-.72.288-.72.216h-.792l-.72.217-.072.143-.36.72.216.792.36.721-.216.72.504.72-.216.72-.72.575-.792.504-.216.36-.792.72.144.216.792.792 1.44 1.584.72.72.793.792.719.792.72.792.792.792" style="fill:none;stroke:#fff;stroke-width:1;stroke-miterlimit:1;stroke-dasharray:none" transform="rotate(-5.058 -1401.445 1706.204) scale(1.01264)"/><path transform="rotate(-5.058 -331.97 533.768) scale(1.01264)" style="fill:none;stroke:#fff;stroke-width:1;stroke-miterlimit:1;stroke-dasharray:none" stroke-miterlimit="1" d="m188.961 139.831-.215-.72-.073-.72-.288-.72-.287-.792-.144-.72-.288-.72-.216-.72-.361-.792-.575-.72.071-.36.073-.72-.649-.72-.288-.792.288-.72-.719-.648-.721-.648-.792-.648-.648-.72-.719-.216-.217-.72-.719-.216-.721-.36-.792.216-.071.288.071-.792.792-.72.792-.792.865-.792.792-.72.719-.503h.144l.577-.721.215-.792-.719-.432-.361-.72-.215-.72-.577-.72h-.719l-.504-.792-.361-.72-.215-.72-.144-.504-.145-.36-.576-.72-.216-.72.216-.72-.071-.72-.577-.72-.071-.792.144-.72.215-.792.073-.72-.073-.72v-.144l.144-.576.145-.504-.36-.72.144-.432-.288-.72.215-.72v-.144l.792-.504.721-.504.288-.72-.217-.72v-.72l.36-.792.72-.72.721-.647.143-.721-.504-.792.361-.575h-.361l-.719-.577-.792-.144-.721-.071-.792-.073-.719.288-.792.577-.721.071-.72-.071-.792.215-.719.289-.721-.073-.792-.072-.719.288-.792.288-.721-.144-.719-.144h-.721l-.792-.143-.72-.145-.719.288-.721.72-.792.216-.719-.504-.721.288-.648-.792-.215-.144-.721-.864-.648-.72-.647-.792-.648-.719-.648-.792-.648-.721-.505-.504-.648-.792-.431-.432h-.721l-.72.361-.792-.217-.719-.359-.792-.217-.792-.288-.721-.216-.792.144-.791.216-.72.432-.792.432-.721-.072-.719.288-.792-.432h-.721l-.792-.072h-.719l-.792-.144-.72.216-.792.36-.72.144-.792-.144h-.361l-.791-.36h-.145l-.431-.72-.361-.792-.071-.216.144-.72-.792-.431-.792.071-.72-.071-.72-.792.216-.721-.216-.72.072-.792.215-.575v-.721l.144-.719.721-.649.144-.719-.288-.792-.073-.721-.287-.72-.217-.072-.792-.72-.719-.72-.576-.576-.072-.072-.144-.72-.217-.72-.215-.792-.216-.72-.217-.719-.071-.145.144-.215-.72-.217-.792.36-.216-.719-.217-.721-.719.144-.792.36-.721.432-.719.072h-.648l.504-.72.36-.72.359-.72.577-.719.72-.792.287-.721.577-.72.359-.719-.144-.792.073-.792.215-.793.217-.72.144-.792v-.72l.143-.792.505-.72.36-.719.576-.721.287-.72.361-.792.72-.719.503-.721.433-.719.72-.577.792-.288.719.073.433-.792.504-.792.288-.577.504-.792.432-.792.432-.72.719-.288.792-.143.792-.288.792-.289.721-.215 1.584-.432.719-.433"/><path d="m399.965 227.228.72.36.504.72.72.144.793.36.72.072.72.288.792-.576.72-.072.72-.648.793-.288.72-.504.72.648.793.216.72.216.72-.216.72-.576.432.288.72.648-.432.504.72-.144.72-.072.793.36.72.072.72-.72.72-.36.722-.432.647-.72.72-.72v-.144M139.83 186.476l.144-.648-.288-.719-.432-.72-.288-.072.144-.72.72-.576.576-.504.072-.073v-1.08l-.432-.792-.144-.719.648-.72.216-.217.72-.43h.072l-.432-.722-.792-.36-.72-.144v-2.95l.216-.72.72-.29-.36-.432.72-.43.72.36.72.431.288-.073.36-.648m42.408 17.137.216-.72.144-.433.216-.792.792-.432.144-.504-.36-.72.432-.792.72.792.648.72.72-.72.792-.504.648-.72-.216-.215.216-.72.216-.505.72-.359.719-.145-.503-.72-.216-.792-.432-.719-.72-.577-.144-.72-.216-.719-.792-.36.432-.793.144-.216.504-.792" style="fill:none;stroke:#fff;stroke-width:1;stroke-miterlimit:1;stroke-dasharray:none" transform="rotate(-5.058 -1401.445 1706.204) scale(1.01264)"/><path transform="rotate(-5.058 -331.97 533.768) scale(1.01264)" style="fill:none;stroke:#fff;stroke-width:1;stroke-miterlimit:1;stroke-dasharray:none" stroke-miterlimit="1" d="m327.201 117.223.216-.216.576-.72.576-.792.432-.144"/><path d="m295.925 740.082-.144-.646v-.36l.144.072.433.72.719-.432.72-.288.289.72.792.215.719.146.72.216.72.144.792-.07.72-.65-.72-.719.72.36.72.432.432-.216-.432-.576-.072-.073.72.504.288-.07.792-.434.217-.07.432.144.719.215.792.073.72.072h.72l.792-.146.72.073h1.512l.72.143.72.073.793.36.719.432.72.072.793-.576.719-.073.792-.288.72-.575.72.071.72.146.792-.434.792.073.289-.792.144-.72-.361-.72-.792.144-.72.072-.72.216-.792-.145-.72-.288-.791-.288-.721-.216-.72-.432-.72-.432-.72-.433-.648-.792-.72-.359-.791-.36-.721-.504-.72-.288-.72-.432-.72-.505-.72-.505-.215-.72-.721-.288-.288-.504-.72-.503-.72-.648-.432-.792-.216-.72-.432-.72-.72-.216-.72.07-.792-.358-.288-.72.504-.793.505-.72.719.648-.216-.792-.432-.72-.72-.576-.576-.792-.216-.217-.36-.504-.071-.07-.145-.073-.576-.433-.72.288-.72.504-.72.36-.791-.647-.577-.72-.72-.289-.144.071-.431.217-.144.721-.145.72-.288.72v.072l-.72.36-.72.358-.288-.143-.72-.72-.72.216-.72.432h.72l.433.792.719.648-.72.647-.72-.432-.36.72.216.792-.144.72.217.721.43.647.793.504.72-.072.792-.575.504-.36.792-.144.792-.218h.72l.72.146.217.72-.433.791-.72.505-.72.433-.792.358-.72.434-.216.143-.72.504.144.792.288.721.432.721.576.792.649.288.719.216.72.144.793.36.719.216.72.288.792.36.72.575-.216.145-.72.216.072.791-.72.073-.36.792.073-.792.43-.72-.503-.792-.72-.433-.791.433-.721-.648-.72-.144.36.72.432.792v.72l-.72-.72-.503-.792-.361-.72-.431-.218-.577.722.72.431-.72.073-.72-.504-.792-.288-.72-.216-.792-.36-.72-.145.144.792.792-.07.72.07.504.792.792.576.72.288.72.433-.72.287-.72-.647-.792-.432-.72.071-.216.721.504.792-.792-.072.144-.72v-.792l.073-.72-.721-.145-.792.36.072.72-.648.72-.72-.648-.72.288-.72-.144-.791.072.288.72-.721-.577-.792.217h.72l.72.721-.72.216-.72-.576-.72.215.72.433-.215.793.792-.36.719.215.72-.43.72.215v-.792l.72.288v.72l.792-.216.72-.145.217.721h.719l.72-.216.504-.722.72-.287-.576.792-.72.433-.144.72.72-.577.792.146.72-.36.432-.72-.216.72.216.72.792-.576.72.284m.36 2.81h.144l.72-.073.216.721.792-.432.72-.146-.504.722-.72.358.792.146.72.576.72.574.144-.792.433.792.792-.43-.792-.289-.505-.792-.792-.577.792-.07-.36-.722.792.073.72.36.72.432.792-.505-.288.721-.143.721.719.071-.792.433.72.574.793-.43.719-.145.72.36h.792l.72.72.792.504-.216-.792-.144-.722-.648-.719h-.792l-.72-.505-.72.144-.648-.719.792.504.72-.144.72-.504-.72-.504-.792.07-.72-.07h-.792l-.72-.36-.504-.72.72.358.72.434.72-.576.793.143.719-.574-.575-.722-.721-.07-.792.144-.72.36h-.72l-.792.144-.72.072-.72.576-.72.288-.144.72-.072-.72-.72-.072-.72.216-.791.504.07.361m.289 1.8-.071-.577-.433-.144.504.72m53.64-37.51v-.289.288" style=";stroke:none;stroke-width:1;stroke-miterlimit:1;stroke-dasharray:none" transform="rotate(-5.058 -1401.445 1706.204) scale(1.01264)"/><path d="M301.902 718.194v-.215l-.504-.36h-.288l-.648-.144-.577-.072-.648-.216-.432-.216-.72-.288-.504-.145-.72-.144-.792.072-.72-.145-.575-.144-.721-.217-.72-.287-.792-.218h-.072l-.72.073-.72.072-.792.072-.72.07-.72.073-.791.072-.721.071-.72.072-.791.072-.721.072-.72.07-.431.073h-.721l-.72.145h-.791l-.36-.145v-.72l-.721-.792-.792-.504-.72-.146-.071-.143-.29-.72-.718-.505.43-.72v-1.512l.145-.216-.215-.433-.721-.647.144-.72.433-.72-.072-.793-.361-.72-.288-.792.073-.504-.721-.145-.72-.07-.791.574-.721-.217-.72.504-.504.722-.72.144-.216-.72-.575-.792-.144-.792-.216-.72-.217-.722-.648-.719-.72-.432-.431-.72.215-.793-.215-.144-.288-.72.215-.72-.215-.794-.29-.719-.502-.72.07-.72.362-.722v-.792l.792-.07.719-.576-.071-.433.432-.72.07-.792.505-.72.72-.217.72-.575.577-.648.07-.72-.143-.792-.216-.72-.288-.722.36-.504.793-.504.504-.719-.144-.72-.216-.648-.432-.792-.792-.576-.433-.72.216-.72.144-.792.288-.722.144-.719-.215-.792.504-.72.719-.36.432-.793.144-.214.145-.578.72-.143-.288-.72-.721-.577.144-.792-.071-.72.36-.719.792-.72.288-.722-.144-.792v-.217l-.073-.215-.431-.72-.217-.72-.071-.359-.217-.722-.72-.647.72-.432.36-.72.145-.217.144-.504-.144-.36-.073-.07-.72-.289-.072-.648-.288-.719.073-.792.432-.72.719-.072.433-.434-.144-.72.792-.576.144-.72-.721-.793-.648-.719-.503-.72-.504-.145-.792-.216-.721.072-.72-.217-.791-.575-.073-.72.72.144h.793l.719-.36.72.073.72-.36.792.36h.72l.216-.792v-.72l.576-.793-.071-.146-.505-.792-.72-.07-.791-.145-.792.144-.721.071-.792.074-.72-.217.216-.792v-.72l-.503-.722.648-.719.07-.145.433-.72v-.288l-.576-.647-.72-.72.72-.793-.287-.72-.288-.215-.648-.649-.721-.72.433-.719.719-.649-.072-.72-.432-.145-.792-.216h-.72l-.72-.576-.288-.72.144-.792-.144-.792-.144-.719-.143-.72-.073-.722.433-.72-.144-.793-.648-.718.359-.722.648-.792h.72l.72-.574-.288-.722-.143-.504-.288-.792-.432-.72-.433-.72v-.72l-.071-.72v-.72l-.288-.792.07-.72-.215-.722.145-.72v-.144l-.145-.72v-.722l-.503-.719-.29-.792-.143-.288.504-.72-.071-.792.215-.72.72-.72.145-.72-.721-.505-.432-.72-.071-.793h.72l.143-.72.073-.216.215-.72-.575-.792v-.145l-.288-.792-.144-.719.432-.505.719.144.36-.144-.287-.72.43-.793.074-.72.144-.72-.144-.72-.073-.72-.287-.793v-.72l.719-.792.145-.072.79-.504.722-.576h.719l.577-.646.07-.72-.143-.793-.72-.433-.36-.792-.216-.72-.144-.719v-.506l-.071-.72-.433-.72-.36-.792-.431-.72-.36-.72-.144-.793.288-.72.07-.792-.431-.719-.36-.72.289-.794v-.72l-.073-.72-.575-.72.504-.217-.072-.216-.217-.288-.144-.72.144-.72.577-.72-.144-.792v-.72l.07-.217.793-.072.144-.646.792.215.504-.719-.072-.722.648-.72.792-.43.504-.29.288-.719-.144-.506.073-.72-.144-.792v-.719l-.361-.792v-.72l-.072-.722-.432-.792.073-.72-.792-.143-.217-.722.288-.216.72-.288.36-.792-.144-.576.144-.792.145-.72.215-.72.073-.79.07-.722.434-.792.288-.72.432-.72-.144-.72.07-.216.36-.146.722.073.503-.72-.36-.722.072-.792-.144-.719-.216-.72-.288-.793.36-.72-.287-.72.07-.72.217-.792.36-.72-.287-.722-.721-.504-.792.577-.504-.72-.36-.792-.072-.649.432-.792.217-.576-.073-.359-.647-.36-.073-.144-.504-.72-.215-.72.215-.72-.215-.792-.792-.576v-.72l-.073-.146-.648-.719v-.146l-.287-.72-.288-.792.792.072.288-.792-.576-.719-.792.07-.648-.72-.217-.792-.575-.72-.288-.72.07-.72.145-.793-.144-.72.073-.719.215-.722h.72l.433-.72.287-.719-.287-.793v-.72l.216-.72.07-.72.289-.792.073-.72.504-.722.792-.358h.215l.72-.649.072-.792.36-.719v-.145l-.792-.505-.072-.792.072-.792-.072-.72-.144-.72v-.36l-.432-.792-.071-.719-.29-.722-.07-.07-.288-.72-.073-.792.217-.218.43-.72.72-.503.36-.72-.143-.792.217-.72.288-.722-.217-.719v-.792l.504-.72v-.794l-.071-.72.07-.07.722-.648.432-.792.719-.72.432-.793.216-.72.72-.36.36-.72.144-.793.073-.358.36-.792.07-.72.289-.722v-.792l.72-.719.289-.72-.073-.792.36-.72.72-.289.793.433.719-.577.72-.288.792-.288.216-.792.073-.647-.577-.72-.575-.792-.65-.72-.574-.72-.217-.72v-.792l.144-.722.72-.719.504-.72-.288-.72-.144-.793-.216-.72-.144-.72-.215-.722-.577-.79.073-.722-.505-.72.073-.79.144-.722.144-.287.144-.72.287-.434.72-.288-.144-.719-.288-.504-.215-.72-.721-.36-.288-.792.288-.72.217-.722.648-.792.719-.432.144-.215.217-.288.648-.72.863-.434.792-.43.864-.433.864-.434.792-.43.289-.146.503-.217.72-.36.793-.432.504-.792.215-.792.144-.719.072-.504v-.073l.216-.792.145-.792.144-.719.215-.72.216-.864.217-.792.215-.72.288-.793-.144-.792-.792-.72-.504-.577m25.128 287.272-.648-.143-.792-.288-.72-.36-.792-.359-.72-.217-.72-.217h-.288l-.72-.07-.791.144-.721-.073h-2.232l-.792.073-.792.144-.72.145h-.792v-.792l-.072-.073-.071-.646-.073-.72-.071-.793v-.216l-.073-.432-.071-.792-.145-.792-.072-.72-.144-1.585-.144-1.439-.143-.72-.073-.792-.071-.792-.073-.792-.144-.72-.072-.793v-.144l-.072-.792-.072-.72-.072-.792-.072-.072v-.288l-.071-.504-.073-.649-.071-.792-.073-.719-.071-.432" style="fill:none;stroke:#fff;stroke-width:1;stroke-miterlimit:1;stroke-dasharray:none" transform="rotate(-5.058 -1401.445 1706.204) scale(1.01264)"/></svg>